G04 #@! TF.GenerationSoftware,KiCad,Pcbnew,(5.99.0-12439-g94954386e6)*
G04 #@! TF.CreationDate,2021-10-25T23:58:22+03:00*
G04 #@! TF.ProjectId,proteusM73tu,70726f74-6575-4734-9d37-3374752e6b69,a*
G04 #@! TF.SameCoordinates,PX2160ec0PYcfb5d40*
G04 #@! TF.FileFunction,Profile,NP*
%FSLAX46Y46*%
G04 Gerber Fmt 4.6, Leading zero omitted, Abs format (unit mm)*
G04 Created by KiCad (PCBNEW (5.99.0-12439-g94954386e6)) date 2021-10-25 23:58:22*
%MOMM*%
%LPD*%
G01*
G04 APERTURE LIST*
G04 #@! TA.AperFunction,Profile*
%ADD10C,0.050000*%
G04 #@! TD*
G04 APERTURE END LIST*
D10*
X170500000Y4100000D02*
X170500000Y0D01*
X5500000Y107200000D02*
X5500000Y111300000D01*
X344500000Y0D02*
X350000000Y0D01*
X88000000Y4100000D02*
X88000000Y0D01*
X278250000Y4100000D02*
G75*
G03*
X278250000Y4100000I-1750000J0D01*
G01*
X5500000Y0D02*
X0Y0D01*
X88000000Y107200000D02*
X88000000Y111300000D01*
X195750000Y4100000D02*
G75*
G03*
X195750000Y4100000I-1750000J0D01*
G01*
X170500000Y111300000D02*
X97000000Y111300000D01*
X335500000Y111300000D02*
X262000000Y111300000D01*
X262000000Y4100000D02*
X262000000Y0D01*
X97000000Y0D02*
X170500000Y0D01*
X335500000Y4100000D02*
G75*
G02*
X344500000Y4100000I4500000J0D01*
G01*
X253000001Y111300000D02*
X179500000Y111300000D01*
X157750000Y107200000D02*
G75*
G03*
X157750000Y107200000I-1750000J0D01*
G01*
X344500000Y111300000D02*
X349999999Y111300000D01*
X30750000Y4100000D02*
G75*
G03*
X30750000Y4100000I-1750000J0D01*
G01*
X179500000Y107200000D02*
X179500000Y111300000D01*
X97000000Y107200000D02*
X97000000Y111300000D01*
X350000000Y0D02*
X350000000Y111300000D01*
X344500000Y107200000D02*
X344500000Y111300000D01*
X5500000Y111300000D02*
X0Y111300000D01*
X335500000Y4100000D02*
X335500000Y0D01*
X253000000Y4100000D02*
G75*
G02*
X262000000Y4100000I4500000J0D01*
G01*
X75250000Y107200000D02*
G75*
G03*
X75250000Y107200000I-1750000J0D01*
G01*
X14500000Y0D02*
X88000000Y0D01*
X5500000Y4100000D02*
X5500000Y0D01*
X113250000Y4100000D02*
G75*
G03*
X113250000Y4100000I-1750000J0D01*
G01*
X253000000Y107200000D02*
G75*
G03*
X262000000Y107200000I4500000J0D01*
G01*
X170500000Y107200000D02*
G75*
G03*
X179500000Y107200000I4500000J0D01*
G01*
X14500000Y4100000D02*
G75*
G03*
X5500000Y4100000I-4500000J0D01*
G01*
X240250000Y107200000D02*
G75*
G03*
X240250000Y107200000I-1750000J0D01*
G01*
X262000000Y0D02*
X335500000Y0D01*
X335500000Y107200000D02*
X335500000Y111300000D01*
X170500000Y107200000D02*
X170500000Y111300000D01*
X97000000Y4100000D02*
X97000000Y0D01*
X88000000Y111300000D02*
X14500000Y111300000D01*
X262000000Y107200000D02*
X262000000Y111300000D01*
X0Y111300000D02*
X0Y0D01*
X322750000Y4100000D02*
G75*
G03*
X322750000Y4100000I-1750000J0D01*
G01*
X344500000Y4100000D02*
X344500000Y0D01*
X179500000Y4100000D02*
X179500000Y0D01*
X97000000Y107200000D02*
G75*
G02*
X88000000Y107200000I-4500000J0D01*
G01*
X30750000Y107200000D02*
G75*
G03*
X30750000Y107200000I-1750000J0D01*
G01*
X113250000Y107200000D02*
G75*
G03*
X113250000Y107200000I-1750000J0D01*
G01*
X253000000Y4100000D02*
X253000000Y0D01*
X322750000Y107200000D02*
G75*
G03*
X322750000Y107200000I-1750000J0D01*
G01*
X335500000Y107200000D02*
G75*
G03*
X344500000Y107200000I4500000J0D01*
G01*
X14500000Y107200000D02*
G75*
G02*
X5500000Y107200000I-4500000J0D01*
G01*
X195750000Y107200000D02*
G75*
G03*
X195750000Y107200000I-1750000J0D01*
G01*
X179500000Y4100000D02*
G75*
G03*
X170500000Y4100000I-4500000J0D01*
G01*
X253000000Y107200000D02*
X253000001Y111300000D01*
X14500000Y107200000D02*
X14500000Y111300000D01*
X75250000Y4100000D02*
G75*
G03*
X75250000Y4100000I-1750000J0D01*
G01*
X278250000Y107200000D02*
G75*
G03*
X278250000Y107200000I-1750000J0D01*
G01*
X179500000Y0D02*
X253000000Y0D01*
X157750000Y4100000D02*
G75*
G03*
X157750000Y4100000I-1750000J0D01*
G01*
X97000000Y4100000D02*
G75*
G03*
X88000000Y4100000I-4500000J0D01*
G01*
X14500000Y4100000D02*
X14500000Y0D01*
X240250000Y4100000D02*
G75*
G03*
X240250000Y4100000I-1750000J0D01*
G01*
M02*
