G04 #@! TF.GenerationSoftware,KiCad,Pcbnew,(5.99.0-12439-g94954386e6)*
G04 #@! TF.CreationDate,2021-10-25T23:58:22+03:00*
G04 #@! TF.ProjectId,proteusM73tu,70726f74-6575-4734-9d37-3374752e6b69,a*
G04 #@! TF.SameCoordinates,PX2160ec0PYcfb5d40*
G04 #@! TF.FileFunction,Paste,Top*
G04 #@! TF.FilePolarity,Positive*
%FSLAX46Y46*%
G04 Gerber Fmt 4.6, Leading zero omitted, Abs format (unit mm)*
G04 Created by KiCad (PCBNEW (5.99.0-12439-g94954386e6)) date 2021-10-25 23:58:22*
%MOMM*%
%LPD*%
G01*
G04 APERTURE LIST*
G04 #@! TA.AperFunction,Profile*
%ADD10C,0.050000*%
G04 #@! TD*
%ADD11R,5.250000X4.550000*%
%ADD12R,1.100000X4.600000*%
%ADD13O,0.000001X0.000001*%
%ADD14R,2.540000X1.520000*%
%ADD15R,1.350000X0.690000*%
G04 APERTURE END LIST*
D10*
X170500000Y4100000D02*
X170500000Y0D01*
X5500000Y107200000D02*
X5500000Y111300000D01*
X344500000Y0D02*
X350000000Y0D01*
X88000000Y4100000D02*
X88000000Y0D01*
X278250000Y4100000D02*
G75*
G03*
X278250000Y4100000I-1750000J0D01*
G01*
X5500000Y0D02*
X0Y0D01*
X88000000Y107200000D02*
X88000000Y111300000D01*
X195750000Y4100000D02*
G75*
G03*
X195750000Y4100000I-1750000J0D01*
G01*
X170500000Y111300000D02*
X97000000Y111300000D01*
X335500000Y111300000D02*
X262000000Y111300000D01*
X262000000Y4100000D02*
X262000000Y0D01*
X97000000Y0D02*
X170500000Y0D01*
X335500000Y4100000D02*
G75*
G02*
X344500000Y4100000I4500000J0D01*
G01*
X253000001Y111300000D02*
X179500000Y111300000D01*
X157750000Y107200000D02*
G75*
G03*
X157750000Y107200000I-1750000J0D01*
G01*
X344500000Y111300000D02*
X349999999Y111300000D01*
X30750000Y4100000D02*
G75*
G03*
X30750000Y4100000I-1750000J0D01*
G01*
X179500000Y107200000D02*
X179500000Y111300000D01*
X97000000Y107200000D02*
X97000000Y111300000D01*
X350000000Y0D02*
X350000000Y111300000D01*
X344500000Y107200000D02*
X344500000Y111300000D01*
X5500000Y111300000D02*
X0Y111300000D01*
X335500000Y4100000D02*
X335500000Y0D01*
X253000000Y4100000D02*
G75*
G02*
X262000000Y4100000I4500000J0D01*
G01*
X75250000Y107200000D02*
G75*
G03*
X75250000Y107200000I-1750000J0D01*
G01*
X14500000Y0D02*
X88000000Y0D01*
X5500000Y4100000D02*
X5500000Y0D01*
X113250000Y4100000D02*
G75*
G03*
X113250000Y4100000I-1750000J0D01*
G01*
X253000000Y107200000D02*
G75*
G03*
X262000000Y107200000I4500000J0D01*
G01*
X170500000Y107200000D02*
G75*
G03*
X179500000Y107200000I4500000J0D01*
G01*
X14500000Y4100000D02*
G75*
G03*
X5500000Y4100000I-4500000J0D01*
G01*
X240250000Y107200000D02*
G75*
G03*
X240250000Y107200000I-1750000J0D01*
G01*
X262000000Y0D02*
X335500000Y0D01*
X335500000Y107200000D02*
X335500000Y111300000D01*
X170500000Y107200000D02*
X170500000Y111300000D01*
X97000000Y4100000D02*
X97000000Y0D01*
X88000000Y111300000D02*
X14500000Y111300000D01*
X262000000Y107200000D02*
X262000000Y111300000D01*
X0Y111300000D02*
X0Y0D01*
X322750000Y4100000D02*
G75*
G03*
X322750000Y4100000I-1750000J0D01*
G01*
X344500000Y4100000D02*
X344500000Y0D01*
X179500000Y4100000D02*
X179500000Y0D01*
X97000000Y107200000D02*
G75*
G02*
X88000000Y107200000I-4500000J0D01*
G01*
X30750000Y107200000D02*
G75*
G03*
X30750000Y107200000I-1750000J0D01*
G01*
X113250000Y107200000D02*
G75*
G03*
X113250000Y107200000I-1750000J0D01*
G01*
X253000000Y4100000D02*
X253000000Y0D01*
X322750000Y107200000D02*
G75*
G03*
X322750000Y107200000I-1750000J0D01*
G01*
X335500000Y107200000D02*
G75*
G03*
X344500000Y107200000I4500000J0D01*
G01*
X14500000Y107200000D02*
G75*
G02*
X5500000Y107200000I-4500000J0D01*
G01*
X195750000Y107200000D02*
G75*
G03*
X195750000Y107200000I-1750000J0D01*
G01*
X179500000Y4100000D02*
G75*
G03*
X170500000Y4100000I-4500000J0D01*
G01*
X253000000Y107200000D02*
X253000001Y111300000D01*
X14500000Y107200000D02*
X14500000Y111300000D01*
X75250000Y4100000D02*
G75*
G03*
X75250000Y4100000I-1750000J0D01*
G01*
X278250000Y107200000D02*
G75*
G03*
X278250000Y107200000I-1750000J0D01*
G01*
X179500000Y0D02*
X253000000Y0D01*
X157750000Y4100000D02*
G75*
G03*
X157750000Y4100000I-1750000J0D01*
G01*
X97000000Y4100000D02*
G75*
G03*
X88000000Y4100000I-4500000J0D01*
G01*
X14500000Y4100000D02*
X14500000Y0D01*
X240250000Y4100000D02*
G75*
G03*
X240250000Y4100000I-1750000J0D01*
G01*
D11*
G04 #@! TO.C,Q2*
X54450000Y76500000D03*
X54450000Y71650000D03*
X60000000Y76500000D03*
X60000000Y71650000D03*
D12*
X54685000Y64925000D03*
X59765000Y64925000D03*
G04 #@! TD*
G04 #@! TO.C,R5*
G36*
G01*
X61330000Y10733750D02*
X60550000Y10733750D01*
G75*
G02*
X60480000Y10803750I0J70000D01*
G01*
X60480000Y11363750D01*
G75*
G02*
X60550000Y11433750I70000J0D01*
G01*
X61330000Y11433750D01*
G75*
G02*
X61400000Y11363750I0J-70000D01*
G01*
X61400000Y10803750D01*
G75*
G02*
X61330000Y10733750I-70000J0D01*
G01*
G37*
G36*
G01*
X61330000Y12333750D02*
X60550000Y12333750D01*
G75*
G02*
X60480000Y12403750I0J70000D01*
G01*
X60480000Y12963750D01*
G75*
G02*
X60550000Y13033750I70000J0D01*
G01*
X61330000Y13033750D01*
G75*
G02*
X61400000Y12963750I0J-70000D01*
G01*
X61400000Y12403750D01*
G75*
G02*
X61330000Y12333750I-70000J0D01*
G01*
G37*
G04 #@! TD*
G04 #@! TO.C,C2*
G36*
G01*
X62540000Y13188751D02*
X63220000Y13188751D01*
G75*
G02*
X63305000Y13103751I0J-85000D01*
G01*
X63305000Y12423751D01*
G75*
G02*
X63220000Y12338751I-85000J0D01*
G01*
X62540000Y12338751D01*
G75*
G02*
X62455000Y12423751I0J85000D01*
G01*
X62455000Y13103751D01*
G75*
G02*
X62540000Y13188751I85000J0D01*
G01*
G37*
G36*
G01*
X62540000Y11608749D02*
X63220000Y11608749D01*
G75*
G02*
X63305000Y11523749I0J-85000D01*
G01*
X63305000Y10843749D01*
G75*
G02*
X63220000Y10758749I-85000J0D01*
G01*
X62540000Y10758749D01*
G75*
G02*
X62455000Y10843749I0J85000D01*
G01*
X62455000Y11523749D01*
G75*
G02*
X62540000Y11608749I85000J0D01*
G01*
G37*
G04 #@! TD*
D13*
G04 #@! TO.C,M2*
X280356666Y56937499D03*
G04 #@! TD*
G04 #@! TO.C,C3*
G36*
G01*
X46450500Y29049986D02*
X46450500Y28369986D01*
G75*
G02*
X46365500Y28284986I-85000J0D01*
G01*
X45685500Y28284986D01*
G75*
G02*
X45600500Y28369986I0J85000D01*
G01*
X45600500Y29049986D01*
G75*
G02*
X45685500Y29134986I85000J0D01*
G01*
X46365500Y29134986D01*
G75*
G02*
X46450500Y29049986I0J-85000D01*
G01*
G37*
G36*
G01*
X44870498Y29049986D02*
X44870498Y28369986D01*
G75*
G02*
X44785498Y28284986I-85000J0D01*
G01*
X44105498Y28284986D01*
G75*
G02*
X44020498Y28369986I0J85000D01*
G01*
X44020498Y29049986D01*
G75*
G02*
X44105498Y29134986I85000J0D01*
G01*
X44785498Y29134986D01*
G75*
G02*
X44870498Y29049986I0J-85000D01*
G01*
G37*
G04 #@! TD*
G04 #@! TO.C,R3*
G36*
G01*
X50875000Y63589999D02*
X50875000Y62809999D01*
G75*
G02*
X50805000Y62739999I-70000J0D01*
G01*
X50245000Y62739999D01*
G75*
G02*
X50175000Y62809999I0J70000D01*
G01*
X50175000Y63589999D01*
G75*
G02*
X50245000Y63659999I70000J0D01*
G01*
X50805000Y63659999D01*
G75*
G02*
X50875000Y63589999I0J-70000D01*
G01*
G37*
G36*
G01*
X49275000Y63589999D02*
X49275000Y62809999D01*
G75*
G02*
X49205000Y62739999I-70000J0D01*
G01*
X48645000Y62739999D01*
G75*
G02*
X48575000Y62809999I0J70000D01*
G01*
X48575000Y63589999D01*
G75*
G02*
X48645000Y63659999I70000J0D01*
G01*
X49205000Y63659999D01*
G75*
G02*
X49275000Y63589999I0J-70000D01*
G01*
G37*
G04 #@! TD*
G04 #@! TO.C,C4*
G36*
G01*
X47520498Y28369986D02*
X47520498Y29049986D01*
G75*
G02*
X47605498Y29134986I85000J0D01*
G01*
X48285498Y29134986D01*
G75*
G02*
X48370498Y29049986I0J-85000D01*
G01*
X48370498Y28369986D01*
G75*
G02*
X48285498Y28284986I-85000J0D01*
G01*
X47605498Y28284986D01*
G75*
G02*
X47520498Y28369986I0J85000D01*
G01*
G37*
G36*
G01*
X49100500Y28369986D02*
X49100500Y29049986D01*
G75*
G02*
X49185500Y29134986I85000J0D01*
G01*
X49865500Y29134986D01*
G75*
G02*
X49950500Y29049986I0J-85000D01*
G01*
X49950500Y28369986D01*
G75*
G02*
X49865500Y28284986I-85000J0D01*
G01*
X49185500Y28284986D01*
G75*
G02*
X49100500Y28369986I0J85000D01*
G01*
G37*
G04 #@! TD*
D14*
G04 #@! TO.C,U1*
X66618000Y19008750D03*
D15*
X70174000Y17108750D03*
D14*
X66618000Y16468750D03*
D15*
X70174000Y15838750D03*
X70174000Y14568750D03*
D14*
X66618000Y13928750D03*
X66618000Y11388750D03*
D15*
X70174000Y13298750D03*
X80016500Y13298750D03*
D14*
X83382000Y11388750D03*
X83382000Y13928750D03*
D15*
X80016500Y14568750D03*
X80016500Y15838750D03*
D14*
X83382000Y16468750D03*
D15*
X80016500Y17108750D03*
D14*
X83382000Y19008750D03*
G04 #@! TD*
G04 #@! TO.C,R4*
G36*
G01*
X50649999Y64624999D02*
X47799999Y64624999D01*
G75*
G02*
X47549999Y64874999I0J250000D01*
G01*
X47549999Y65599999D01*
G75*
G02*
X47799999Y65849999I250000J0D01*
G01*
X50649999Y65849999D01*
G75*
G02*
X50899999Y65599999I0J-250000D01*
G01*
X50899999Y64874999D01*
G75*
G02*
X50649999Y64624999I-250000J0D01*
G01*
G37*
G36*
G01*
X50649999Y70549999D02*
X47799999Y70549999D01*
G75*
G02*
X47549999Y70799999I0J250000D01*
G01*
X47549999Y71524999D01*
G75*
G02*
X47799999Y71774999I250000J0D01*
G01*
X50649999Y71774999D01*
G75*
G02*
X50899999Y71524999I0J-250000D01*
G01*
X50899999Y70799999D01*
G75*
G02*
X50649999Y70549999I-250000J0D01*
G01*
G37*
G04 #@! TD*
D13*
G04 #@! TO.C,M4*
X280356666Y28437499D03*
G04 #@! TD*
G04 #@! TO.C,F4*
G36*
G01*
X222600000Y78605010D02*
X222600000Y79295010D01*
G75*
G02*
X222830000Y79525010I230000J0D01*
G01*
X224170000Y79525010D01*
G75*
G02*
X224400000Y79295010I0J-230000D01*
G01*
X224400000Y78605010D01*
G75*
G02*
X224170000Y78375010I-230000J0D01*
G01*
X222830000Y78375010D01*
G75*
G02*
X222600000Y78605010I0J230000D01*
G01*
G37*
G36*
G01*
X222600000Y75704990D02*
X222600000Y76394990D01*
G75*
G02*
X222830000Y76624990I230000J0D01*
G01*
X224170000Y76624990D01*
G75*
G02*
X224400000Y76394990I0J-230000D01*
G01*
X224400000Y75704990D01*
G75*
G02*
X224170000Y75474990I-230000J0D01*
G01*
X222830000Y75474990D01*
G75*
G02*
X222600000Y75704990I0J230000D01*
G01*
G37*
G04 #@! TD*
G04 #@! TO.C,F1*
G36*
G01*
X295600000Y79105010D02*
X295600000Y79795010D01*
G75*
G02*
X295830000Y80025010I230000J0D01*
G01*
X297170000Y80025010D01*
G75*
G02*
X297400000Y79795010I0J-230000D01*
G01*
X297400000Y79105010D01*
G75*
G02*
X297170000Y78875010I-230000J0D01*
G01*
X295830000Y78875010D01*
G75*
G02*
X295600000Y79105010I0J230000D01*
G01*
G37*
G36*
G01*
X295600000Y76204990D02*
X295600000Y76894990D01*
G75*
G02*
X295830000Y77124990I230000J0D01*
G01*
X297170000Y77124990D01*
G75*
G02*
X297400000Y76894990I0J-230000D01*
G01*
X297400000Y76204990D01*
G75*
G02*
X297170000Y75974990I-230000J0D01*
G01*
X295830000Y75974990D01*
G75*
G02*
X295600000Y76204990I0J230000D01*
G01*
G37*
G04 #@! TD*
G04 #@! TO.C,R6*
G36*
G01*
X49885499Y30599986D02*
X49885499Y29819986D01*
G75*
G02*
X49815499Y29749986I-70000J0D01*
G01*
X49255499Y29749986D01*
G75*
G02*
X49185499Y29819986I0J70000D01*
G01*
X49185499Y30599986D01*
G75*
G02*
X49255499Y30669986I70000J0D01*
G01*
X49815499Y30669986D01*
G75*
G02*
X49885499Y30599986I0J-70000D01*
G01*
G37*
G36*
G01*
X48285499Y30599986D02*
X48285499Y29819986D01*
G75*
G02*
X48215499Y29749986I-70000J0D01*
G01*
X47655499Y29749986D01*
G75*
G02*
X47585499Y29819986I0J70000D01*
G01*
X47585499Y30599986D01*
G75*
G02*
X47655499Y30669986I70000J0D01*
G01*
X48215499Y30669986D01*
G75*
G02*
X48285499Y30599986I0J-70000D01*
G01*
G37*
G04 #@! TD*
G04 #@! TO.C,C1*
G36*
G01*
X63820000Y13958749D02*
X63140000Y13958749D01*
G75*
G02*
X63055000Y14043749I0J85000D01*
G01*
X63055000Y14723749D01*
G75*
G02*
X63140000Y14808749I85000J0D01*
G01*
X63820000Y14808749D01*
G75*
G02*
X63905000Y14723749I0J-85000D01*
G01*
X63905000Y14043749D01*
G75*
G02*
X63820000Y13958749I-85000J0D01*
G01*
G37*
G36*
G01*
X63820000Y15538751D02*
X63140000Y15538751D01*
G75*
G02*
X63055000Y15623751I0J85000D01*
G01*
X63055000Y16303751D01*
G75*
G02*
X63140000Y16388751I85000J0D01*
G01*
X63820000Y16388751D01*
G75*
G02*
X63905000Y16303751I0J-85000D01*
G01*
X63905000Y15623751D01*
G75*
G02*
X63820000Y15538751I-85000J0D01*
G01*
G37*
G04 #@! TD*
D15*
G04 #@! TO.C,U2*
X38600000Y16250500D03*
X38600000Y17520500D03*
X38600000Y14980500D03*
X48442500Y14980500D03*
X38600000Y18790500D03*
X48442500Y18790500D03*
X48442500Y17520500D03*
X48442500Y16250500D03*
G04 #@! TD*
M02*
