G75*
G70*
%OFA0B0*%
%FSLAX25Y25*%
%IPPOS*%
%LPD*%
%AMOC8*
5,1,8,0,0,1.08239X$1,22.5*
%
%ADD87C,0.00197*%
X0000000Y0000000D02*
%LPD*%
G01*
D87*
X0671260Y0016142D02*
X0671260Y0000000D01*
X0021654Y0422047D02*
X0021654Y0438189D01*
X1356299Y0000000D02*
X1377953Y0000000D01*
X0346457Y0016142D02*
X0346457Y0000000D01*
X1095472Y0016142D02*
G75*
G03*
X1095472Y0016142I-006890J0000000D01*
G01*
X0021654Y0000000D02*
X0000000Y0000000D01*
X0346457Y0422047D02*
X0346457Y0438189D01*
X0770669Y0016142D02*
G75*
G03*
X0770669Y0016142I-006890J0000000D01*
G01*
X0671260Y0438189D02*
X0381890Y0438189D01*
X1320866Y0438189D02*
X1031496Y0438189D01*
X1031496Y0016142D02*
X1031496Y0000000D01*
X0381890Y0000000D02*
X0671260Y0000000D01*
X1320866Y0016142D02*
G75*
G02*
X1356299Y0016142I0017717J0000000D01*
G01*
X0996063Y0438189D02*
X0706693Y0438189D01*
X0621063Y0422047D02*
G75*
G03*
X0621063Y0422047I-006890J0000000D01*
G01*
X1356299Y0438189D02*
X1377953Y0438189D01*
X0121063Y0016142D02*
G75*
G03*
X0121063Y0016142I-006890J0000000D01*
G01*
X0706693Y0422047D02*
X0706693Y0438189D01*
X0381890Y0422047D02*
X0381890Y0438189D01*
X1377953Y0000000D02*
X1377953Y0438189D01*
X1356299Y0422047D02*
X1356299Y0438189D01*
X0021654Y0438189D02*
X0000000Y0438189D01*
X1320866Y0016142D02*
X1320866Y0000000D01*
X0996063Y0016142D02*
G75*
G02*
X1031496Y0016142I0017717J0000000D01*
G01*
X0296260Y0422047D02*
G75*
G03*
X0296260Y0422047I-006890J0000000D01*
G01*
X0057087Y0000000D02*
X0346457Y0000000D01*
X0021654Y0016142D02*
X0021654Y0000000D01*
X0445866Y0016142D02*
G75*
G03*
X0445866Y0016142I-006890J0000000D01*
G01*
X0996063Y0422047D02*
G75*
G03*
X1031496Y0422047I0017717J0000000D01*
G01*
X0671260Y0422047D02*
G75*
G03*
X0706693Y0422047I0017717J0000000D01*
G01*
X0057087Y0016142D02*
G75*
G03*
X0021654Y0016142I-017717J0000000D01*
G01*
X0945866Y0422047D02*
G75*
G03*
X0945866Y0422047I-006890J0000000D01*
G01*
X1031496Y0000000D02*
X1320866Y0000000D01*
X1320866Y0422047D02*
X1320866Y0438189D01*
X0671260Y0422047D02*
X0671260Y0438189D01*
X0381890Y0016142D02*
X0381890Y0000000D01*
X0346457Y0438189D02*
X0057087Y0438189D01*
X1031496Y0422047D02*
X1031496Y0438189D01*
X0000000Y0438189D02*
X0000000Y0000000D01*
X1270669Y0016142D02*
G75*
G03*
X1270669Y0016142I-006890J0000000D01*
G01*
X1356299Y0016142D02*
X1356299Y0000000D01*
X0706693Y0016142D02*
X0706693Y0000000D01*
X0381890Y0422047D02*
G75*
G02*
X0346457Y0422047I-017717J0000000D01*
G01*
X0121063Y0422047D02*
G75*
G03*
X0121063Y0422047I-006890J0000000D01*
G01*
X0445866Y0422047D02*
G75*
G03*
X0445866Y0422047I-006890J0000000D01*
G01*
X0996063Y0016142D02*
X0996063Y0000000D01*
X1270669Y0422047D02*
G75*
G03*
X1270669Y0422047I-006890J0000000D01*
G01*
X1320866Y0422047D02*
G75*
G03*
X1356299Y0422047I0017717J0000000D01*
G01*
X0057087Y0422047D02*
G75*
G02*
X0021654Y0422047I-017717J0000000D01*
G01*
X0770669Y0422047D02*
G75*
G03*
X0770669Y0422047I-006890J0000000D01*
G01*
X0706693Y0016142D02*
G75*
G03*
X0671260Y0016142I-017717J0000000D01*
G01*
X0996063Y0422047D02*
X0996063Y0438189D01*
X0057087Y0422047D02*
X0057087Y0438189D01*
X0296260Y0016142D02*
G75*
G03*
X0296260Y0016142I-006890J0000000D01*
G01*
X1095472Y0422047D02*
G75*
G03*
X1095472Y0422047I-006890J0000000D01*
G01*
X0706693Y0000000D02*
X0996063Y0000000D01*
X0621063Y0016142D02*
G75*
G03*
X0621063Y0016142I-006890J0000000D01*
G01*
X0381890Y0016142D02*
G75*
G03*
X0346457Y0016142I-017717J0000000D01*
G01*
X0057087Y0016142D02*
X0057087Y0000000D01*
X0945866Y0016142D02*
G75*
G03*
X0945866Y0016142I-006890J0000000D01*
G01*
X1137598Y0078051D02*
G01*
G75*
X1102684Y0249262D02*
G01*
G75*
X1137598Y0190748D02*
G01*
G75*
X1102684Y0137057D02*
G01*
G75*
M02*
