G75*
G70*
%OFA0B0*%
%FSLAX25Y25*%
%IPPOS*%
%LPD*%
%AMOC8*
5,1,8,0,0,1.08239X$1,22.5*
%
%AMM19*
21,1,0.035430,0.030320,0.000000,-0.000000,90.000000*
21,1,0.028350,0.037400,0.000000,-0.000000,90.000000*
1,1,0.007090,0.015160,0.014170*
1,1,0.007090,0.015160,-0.014170*
1,1,0.007090,-0.015160,-0.014170*
1,1,0.007090,-0.015160,0.014170*
%
%AMM20*
21,1,0.033470,0.026770,0.000000,-0.000000,270.000000*
21,1,0.026770,0.033470,0.000000,-0.000000,270.000000*
1,1,0.006690,-0.013390,-0.013390*
1,1,0.006690,-0.013390,0.013390*
1,1,0.006690,0.013390,0.013390*
1,1,0.006690,0.013390,-0.013390*
%
%AMM21*
21,1,0.027560,0.030710,0.000000,-0.000000,90.000000*
21,1,0.022050,0.036220,0.000000,-0.000000,90.000000*
1,1,0.005510,0.015350,0.011020*
1,1,0.005510,0.015350,-0.011020*
1,1,0.005510,-0.015350,-0.011020*
1,1,0.005510,-0.015350,0.011020*
%
%ADD112M19*%
%ADD113M20*%
%ADD114M21*%
%ADD14R,0.20669X0.17913*%
%ADD20R,0.03150X0.03543*%
%ADD21R,0.04331X0.18110*%
%ADD32R,0.03543X0.03150*%
%ADD36R,0.04724X0.08661*%
%ADD37R,0.05709X0.01772*%
%ADD39R,0.10827X0.12008*%
%ADD40C,0.02362*%
%ADD50O,0.00000X0.00000*%
%ADD53R,0.04803X0.02559*%
%ADD57R,0.05315X0.02717*%
%ADD62R,0.10000X0.05984*%
%ADD87C,0.00197*%
%ADD99O,0.02362X0.08661*%
X0000000Y0000000D02*
%LPD*%
G01*
D87*
X0671260Y0016142D02*
X0671260Y0000000D01*
X0021654Y0422047D02*
X0021654Y0438189D01*
X1356299Y0000000D02*
X1377953Y0000000D01*
X0346457Y0016142D02*
X0346457Y0000000D01*
X1095472Y0016142D02*
G75*
G03*
X1095472Y0016142I-006890J0000000D01*
G01*
X0021654Y0000000D02*
X0000000Y0000000D01*
X0346457Y0422047D02*
X0346457Y0438189D01*
X0770669Y0016142D02*
G75*
G03*
X0770669Y0016142I-006890J0000000D01*
G01*
X0671260Y0438189D02*
X0381890Y0438189D01*
X1320866Y0438189D02*
X1031496Y0438189D01*
X1031496Y0016142D02*
X1031496Y0000000D01*
X0381890Y0000000D02*
X0671260Y0000000D01*
X1320866Y0016142D02*
G75*
G02*
X1356299Y0016142I0017717J0000000D01*
G01*
X0996063Y0438189D02*
X0706693Y0438189D01*
X0621063Y0422047D02*
G75*
G03*
X0621063Y0422047I-006890J0000000D01*
G01*
X1356299Y0438189D02*
X1377953Y0438189D01*
X0121063Y0016142D02*
G75*
G03*
X0121063Y0016142I-006890J0000000D01*
G01*
X0706693Y0422047D02*
X0706693Y0438189D01*
X0381890Y0422047D02*
X0381890Y0438189D01*
X1377953Y0000000D02*
X1377953Y0438189D01*
X1356299Y0422047D02*
X1356299Y0438189D01*
X0021654Y0438189D02*
X0000000Y0438189D01*
X1320866Y0016142D02*
X1320866Y0000000D01*
X0996063Y0016142D02*
G75*
G02*
X1031496Y0016142I0017717J0000000D01*
G01*
X0296260Y0422047D02*
G75*
G03*
X0296260Y0422047I-006890J0000000D01*
G01*
X0057087Y0000000D02*
X0346457Y0000000D01*
X0021654Y0016142D02*
X0021654Y0000000D01*
X0445866Y0016142D02*
G75*
G03*
X0445866Y0016142I-006890J0000000D01*
G01*
X0996063Y0422047D02*
G75*
G03*
X1031496Y0422047I0017717J0000000D01*
G01*
X0671260Y0422047D02*
G75*
G03*
X0706693Y0422047I0017717J0000000D01*
G01*
X0057087Y0016142D02*
G75*
G03*
X0021654Y0016142I-017717J0000000D01*
G01*
X0945866Y0422047D02*
G75*
G03*
X0945866Y0422047I-006890J0000000D01*
G01*
X1031496Y0000000D02*
X1320866Y0000000D01*
X1320866Y0422047D02*
X1320866Y0438189D01*
X0671260Y0422047D02*
X0671260Y0438189D01*
X0381890Y0016142D02*
X0381890Y0000000D01*
X0346457Y0438189D02*
X0057087Y0438189D01*
X1031496Y0422047D02*
X1031496Y0438189D01*
X0000000Y0438189D02*
X0000000Y0000000D01*
X1270669Y0016142D02*
G75*
G03*
X1270669Y0016142I-006890J0000000D01*
G01*
X1356299Y0016142D02*
X1356299Y0000000D01*
X0706693Y0016142D02*
X0706693Y0000000D01*
X0381890Y0422047D02*
G75*
G02*
X0346457Y0422047I-017717J0000000D01*
G01*
X0121063Y0422047D02*
G75*
G03*
X0121063Y0422047I-006890J0000000D01*
G01*
X0445866Y0422047D02*
G75*
G03*
X0445866Y0422047I-006890J0000000D01*
G01*
X0996063Y0016142D02*
X0996063Y0000000D01*
X1270669Y0422047D02*
G75*
G03*
X1270669Y0422047I-006890J0000000D01*
G01*
X1320866Y0422047D02*
G75*
G03*
X1356299Y0422047I0017717J0000000D01*
G01*
X0057087Y0422047D02*
G75*
G02*
X0021654Y0422047I-017717J0000000D01*
G01*
X0770669Y0422047D02*
G75*
G03*
X0770669Y0422047I-006890J0000000D01*
G01*
X0706693Y0016142D02*
G75*
G03*
X0671260Y0016142I-017717J0000000D01*
G01*
X0996063Y0422047D02*
X0996063Y0438189D01*
X0057087Y0422047D02*
X0057087Y0438189D01*
X0296260Y0016142D02*
G75*
G03*
X0296260Y0016142I-006890J0000000D01*
G01*
X1095472Y0422047D02*
G75*
G03*
X1095472Y0422047I-006890J0000000D01*
G01*
X0706693Y0000000D02*
X0996063Y0000000D01*
X0621063Y0016142D02*
G75*
G03*
X0621063Y0016142I-006890J0000000D01*
G01*
X0381890Y0016142D02*
G75*
G03*
X0346457Y0016142I-017717J0000000D01*
G01*
X0057087Y0016142D02*
X0057087Y0000000D01*
X0945866Y0016142D02*
G75*
G03*
X0945866Y0016142I-006890J0000000D01*
G01*
D14*
X0214370Y0301181D03*
X0214370Y0282087D03*
X0236220Y0301181D03*
X0236220Y0282087D03*
D21*
X0215295Y0255610D03*
X0235295Y0255610D03*
G36*
G01*
X0241457Y0042259D02*
X0238386Y0042259D01*
G75*
G02*
X0238110Y0042534I0000000J0000276D01*
G01*
X0238110Y0044739D01*
G75*
G02*
X0238386Y0045015I0000276J0000000D01*
G01*
X0241457Y0045015D01*
G75*
G02*
X0241732Y0044739I0000000J-000276D01*
G01*
X0241732Y0042534D01*
G75*
G02*
X0241457Y0042259I-000276J0000000D01*
G01*
G37*
G36*
G01*
X0241457Y0048558D02*
X0238386Y0048558D01*
G75*
G02*
X0238110Y0048834I0000000J0000276D01*
G01*
X0238110Y0051038D01*
G75*
G02*
X0238386Y0051314I0000276J0000000D01*
G01*
X0241457Y0051314D01*
G75*
G02*
X0241732Y0051038I0000000J-000276D01*
G01*
X0241732Y0048834D01*
G75*
G02*
X0241457Y0048558I-000276J0000000D01*
G01*
G37*
G36*
G01*
X0246220Y0051924D02*
X0248898Y0051924D01*
G75*
G02*
X0249232Y0051590I0000000J-000335D01*
G01*
X0249232Y0048912D01*
G75*
G02*
X0248898Y0048578I-000335J0000000D01*
G01*
X0246220Y0048578D01*
G75*
G02*
X0245886Y0048912I0000000J0000335D01*
G01*
X0245886Y0051590D01*
G75*
G02*
X0246220Y0051924I0000335J0000000D01*
G01*
G37*
G36*
G01*
X0246220Y0045704D02*
X0248898Y0045704D01*
G75*
G02*
X0249232Y0045369I0000000J-000335D01*
G01*
X0249232Y0042692D01*
G75*
G02*
X0248898Y0042357I-000335J0000000D01*
G01*
X0246220Y0042357D01*
G75*
G02*
X0245886Y0042692I0000000J0000335D01*
G01*
X0245886Y0045369D01*
G75*
G02*
X0246220Y0045704I0000335J0000000D01*
G01*
G37*
D50*
X1103766Y0224163D03*
G36*
G01*
X0182876Y0114370D02*
X0182876Y0111693D01*
G75*
G02*
X0182541Y0111358I-000335J0000000D01*
G01*
X0179864Y0111358D01*
G75*
G02*
X0179530Y0111693I0000000J0000335D01*
G01*
X0179530Y0114370D01*
G75*
G02*
X0179864Y0114705I0000335J0000000D01*
G01*
X0182541Y0114705D01*
G75*
G02*
X0182876Y0114370I0000000J-000335D01*
G01*
G37*
G36*
G01*
X0176656Y0114370D02*
X0176656Y0111693D01*
G75*
G02*
X0176321Y0111358I-000335J0000000D01*
G01*
X0173644Y0111358D01*
G75*
G02*
X0173309Y0111693I0000000J0000335D01*
G01*
X0173309Y0114370D01*
G75*
G02*
X0173644Y0114705I0000335J0000000D01*
G01*
X0176321Y0114705D01*
G75*
G02*
X0176656Y0114370I0000000J-000335D01*
G01*
G37*
G36*
G01*
X0200295Y0250354D02*
X0200295Y0247283D01*
G75*
G02*
X0200020Y0247008I-000276J0000000D01*
G01*
X0197815Y0247008D01*
G75*
G02*
X0197539Y0247283I0000000J0000276D01*
G01*
X0197539Y0250354D01*
G75*
G02*
X0197815Y0250630I0000276J0000000D01*
G01*
X0200020Y0250630D01*
G75*
G02*
X0200295Y0250354I0000000J-000276D01*
G01*
G37*
G36*
G01*
X0193996Y0250354D02*
X0193996Y0247283D01*
G75*
G02*
X0193720Y0247008I-000276J0000000D01*
G01*
X0191516Y0247008D01*
G75*
G02*
X0191240Y0247283I0000000J0000276D01*
G01*
X0191240Y0250354D01*
G75*
G02*
X0191516Y0250630I0000276J0000000D01*
G01*
X0193720Y0250630D01*
G75*
G02*
X0193996Y0250354I0000000J-000276D01*
G01*
G37*
G36*
G01*
X0187089Y0111693D02*
X0187089Y0114370D01*
G75*
G02*
X0187423Y0114705I0000335J0000000D01*
G01*
X0190100Y0114705D01*
G75*
G02*
X0190435Y0114370I0000000J-000335D01*
G01*
X0190435Y0111693D01*
G75*
G02*
X0190100Y0111358I-000335J0000000D01*
G01*
X0187423Y0111358D01*
G75*
G02*
X0187089Y0111693I0000000J0000335D01*
G01*
G37*
G36*
G01*
X0193309Y0111693D02*
X0193309Y0114370D01*
G75*
G02*
X0193644Y0114705I0000335J0000000D01*
G01*
X0196321Y0114705D01*
G75*
G02*
X0196656Y0114370I0000000J-000335D01*
G01*
X0196656Y0111693D01*
G75*
G02*
X0196321Y0111358I-000335J0000000D01*
G01*
X0193644Y0111358D01*
G75*
G02*
X0193309Y0111693I0000000J0000335D01*
G01*
G37*
D62*
X0262276Y0074838D03*
D57*
X0276276Y0067357D03*
D62*
X0262276Y0064838D03*
D57*
X0276276Y0062357D03*
X0276276Y0057357D03*
D62*
X0262276Y0054838D03*
X0262276Y0044838D03*
D57*
X0276276Y0052357D03*
X0315026Y0052357D03*
D62*
X0328276Y0044838D03*
X0328276Y0054838D03*
D57*
X0315026Y0057357D03*
X0315026Y0062357D03*
D62*
X0328276Y0064838D03*
D57*
X0315026Y0067357D03*
D62*
X0328276Y0074838D03*
G36*
G01*
X0199409Y0254429D02*
X0188189Y0254429D01*
G75*
G02*
X0187205Y0255413I0000000J0000984D01*
G01*
X0187205Y0258268D01*
G75*
G02*
X0188189Y0259252I0000984J0000000D01*
G01*
X0199409Y0259252D01*
G75*
G02*
X0200394Y0258268I0000000J-000984D01*
G01*
X0200394Y0255413D01*
G75*
G02*
X0199409Y0254429I-000984J0000000D01*
G01*
G37*
G36*
G01*
X0199409Y0277756D02*
X0188189Y0277756D01*
G75*
G02*
X0187205Y0278740I0000000J0000984D01*
G01*
X0187205Y0281594D01*
G75*
G02*
X0188189Y0282579I0000984J0000000D01*
G01*
X0199409Y0282579D01*
G75*
G02*
X0200394Y0281594I0000000J-000984D01*
G01*
X0200394Y0278740D01*
G75*
G02*
X0199409Y0277756I-000984J0000000D01*
G01*
G37*
D50*
X1103766Y0111959D03*
G36*
G01*
X0876378Y0309469D02*
X0876378Y0312185D01*
G75*
G02*
X0877283Y0313091I0000906J0000000D01*
G01*
X0882559Y0313091D01*
G75*
G02*
X0883465Y0312185I0000000J-000906D01*
G01*
X0883465Y0309469D01*
G75*
G02*
X0882559Y0308563I-000906J0000000D01*
G01*
X0877283Y0308563D01*
G75*
G02*
X0876378Y0309469I0000000J0000906D01*
G01*
G37*
G36*
G01*
X0876378Y0298051D02*
X0876378Y0300768D01*
G75*
G02*
X0877283Y0301673I0000906J0000000D01*
G01*
X0882559Y0301673D01*
G75*
G02*
X0883465Y0300768I0000000J-000906D01*
G01*
X0883465Y0298051D01*
G75*
G02*
X0882559Y0297146I-000906J0000000D01*
G01*
X0877283Y0297146D01*
G75*
G02*
X0876378Y0298051I0000000J0000906D01*
G01*
G37*
G36*
G01*
X1163780Y0311437D02*
X1163780Y0314154D01*
G75*
G02*
X1164685Y0315059I0000906J0000000D01*
G01*
X1169961Y0315059D01*
G75*
G02*
X1170866Y0314154I0000000J-000906D01*
G01*
X1170866Y0311437D01*
G75*
G02*
X1169961Y0310532I-000906J0000000D01*
G01*
X1164685Y0310532D01*
G75*
G02*
X1163780Y0311437I0000000J0000906D01*
G01*
G37*
G36*
G01*
X1163780Y0300020D02*
X1163780Y0302736D01*
G75*
G02*
X1164685Y0303642I0000906J0000000D01*
G01*
X1169961Y0303642D01*
G75*
G02*
X1170866Y0302736I0000000J-000906D01*
G01*
X1170866Y0300020D01*
G75*
G02*
X1169961Y0299114I-000906J0000000D01*
G01*
X1164685Y0299114D01*
G75*
G02*
X1163780Y0300020I0000000J0000906D01*
G01*
G37*
G36*
G01*
X0196400Y0120472D02*
X0196400Y0117402D01*
G75*
G02*
X0196124Y0117126I-000276J0000000D01*
G01*
X0193919Y0117126D01*
G75*
G02*
X0193644Y0117402I0000000J0000276D01*
G01*
X0193644Y0120472D01*
G75*
G02*
X0193919Y0120748I0000276J0000000D01*
G01*
X0196124Y0120748D01*
G75*
G02*
X0196400Y0120472I0000000J-000276D01*
G01*
G37*
G36*
G01*
X0190100Y0120472D02*
X0190100Y0117402D01*
G75*
G02*
X0189825Y0117126I-000276J0000000D01*
G01*
X0187620Y0117126D01*
G75*
G02*
X0187344Y0117402I0000000J0000276D01*
G01*
X0187344Y0120472D01*
G75*
G02*
X0187620Y0120748I0000276J0000000D01*
G01*
X0189825Y0120748D01*
G75*
G02*
X0190100Y0120472I0000000J-000276D01*
G01*
G37*
G36*
G01*
X0251260Y0054956D02*
X0248583Y0054956D01*
G75*
G02*
X0248248Y0055290I0000000J0000335D01*
G01*
X0248248Y0057968D01*
G75*
G02*
X0248583Y0058302I0000335J0000000D01*
G01*
X0251260Y0058302D01*
G75*
G02*
X0251594Y0057968I0000000J-000335D01*
G01*
X0251594Y0055290D01*
G75*
G02*
X0251260Y0054956I-000335J0000000D01*
G01*
G37*
G36*
G01*
X0251260Y0061176D02*
X0248583Y0061176D01*
G75*
G02*
X0248248Y0061511I0000000J0000335D01*
G01*
X0248248Y0064188D01*
G75*
G02*
X0248583Y0064523I0000335J0000000D01*
G01*
X0251260Y0064523D01*
G75*
G02*
X0251594Y0064188I0000000J-000335D01*
G01*
X0251594Y0061511D01*
G75*
G02*
X0251260Y0061176I-000335J0000000D01*
G01*
G37*
D57*
X0151969Y0063978D03*
X0151969Y0068978D03*
X0151969Y0058978D03*
X0190719Y0058978D03*
X0151969Y0073978D03*
X0190719Y0073978D03*
X0190719Y0068978D03*
X0190719Y0063978D03*
X1137598Y0078051D02*
%LPD*%
G01*
G36*
G01*
X1206191Y0114350D02*
X1204832Y0114350D01*
G75*
G02*
X1204252Y0114931I0000000J0000581D01*
G01*
X1204252Y0116092D01*
G75*
G02*
X1204832Y0116673I0000581J0000000D01*
G01*
X1206191Y0116673D01*
G75*
G02*
X1206771Y0116092I0000000J-000581D01*
G01*
X1206771Y0114931D01*
G75*
G02*
X1206191Y0114350I-000581J0000000D01*
G01*
G37*
G36*
G01*
X1206191Y0118169D02*
X1204832Y0118169D01*
G75*
G02*
X1204252Y0118750I0000000J0000581D01*
G01*
X1204252Y0119911D01*
G75*
G02*
X1204832Y0120492I0000581J0000000D01*
G01*
X1206191Y0120492D01*
G75*
G02*
X1206771Y0119911I0000000J-000581D01*
G01*
X1206771Y0118750D01*
G75*
G02*
X1206191Y0118169I-000581J0000000D01*
G01*
G37*
G36*
G01*
X1241013Y0089693D02*
X1241013Y0088334D01*
G75*
G02*
X1240433Y0087754I-000581J0000000D01*
G01*
X1239271Y0087754D01*
G75*
G02*
X1238691Y0088334I0000000J0000581D01*
G01*
X1238691Y0089693D01*
G75*
G02*
X1239271Y0090273I0000581J0000000D01*
G01*
X1240433Y0090273D01*
G75*
G02*
X1241013Y0089693I0000000J-000581D01*
G01*
G37*
G36*
G01*
X1237194Y0089693D02*
X1237194Y0088334D01*
G75*
G02*
X1236614Y0087754I-000581J0000000D01*
G01*
X1235452Y0087754D01*
G75*
G02*
X1234872Y0088334I0000000J0000581D01*
G01*
X1234872Y0089693D01*
G75*
G02*
X1235452Y0090273I0000581J0000000D01*
G01*
X1236614Y0090273D01*
G75*
G02*
X1237194Y0089693I0000000J-000581D01*
G01*
G37*
G36*
G01*
X1243622Y0114584D02*
X1243622Y0115943D01*
G75*
G02*
X1244202Y0116523I0000581J0000000D01*
G01*
X1245364Y0116523D01*
G75*
G02*
X1245944Y0115943I0000000J-000581D01*
G01*
X1245944Y0114584D01*
G75*
G02*
X1245364Y0114004I-000581J0000000D01*
G01*
X1244202Y0114004D01*
G75*
G02*
X1243622Y0114584I0000000J0000581D01*
G01*
G37*
G36*
G01*
X1247441Y0114584D02*
X1247441Y0115943D01*
G75*
G02*
X1248021Y0116523I0000581J0000000D01*
G01*
X1249183Y0116523D01*
G75*
G02*
X1249763Y0115943I0000000J-000581D01*
G01*
X1249763Y0114584D01*
G75*
G02*
X1249183Y0114004I-000581J0000000D01*
G01*
X1248021Y0114004D01*
G75*
G02*
X1247441Y0114584I0000000J0000581D01*
G01*
G37*
G36*
G01*
X1143598Y0098203D02*
X1143598Y0099561D01*
G75*
G02*
X1144179Y0100142I0000581J0000000D01*
G01*
X1145340Y0100142D01*
G75*
G02*
X1145921Y0099561I0000000J-000581D01*
G01*
X1145921Y0098203D01*
G75*
G02*
X1145340Y0097622I-000581J0000000D01*
G01*
X1144179Y0097622D01*
G75*
G02*
X1143598Y0098203I0000000J0000581D01*
G01*
G37*
G36*
G01*
X1147417Y0098203D02*
X1147417Y0099561D01*
G75*
G02*
X1147998Y0100142I0000581J0000000D01*
G01*
X1149159Y0100142D01*
G75*
G02*
X1149740Y0099561I0000000J-000581D01*
G01*
X1149740Y0098203D01*
G75*
G02*
X1149159Y0097622I-000581J0000000D01*
G01*
X1147998Y0097622D01*
G75*
G02*
X1147417Y0098203I0000000J0000581D01*
G01*
G37*
G36*
G01*
X1157160Y0112205D02*
X1159178Y0112205D01*
G75*
G02*
X1160039Y0111343I0000000J-000861D01*
G01*
X1160039Y0109621D01*
G75*
G02*
X1159178Y0108760I-000861J0000000D01*
G01*
X1157160Y0108760D01*
G75*
G02*
X1156299Y0109621I0000000J0000861D01*
G01*
X1156299Y0111343D01*
G75*
G02*
X1157160Y0112205I0000861J0000000D01*
G01*
G37*
G36*
G01*
X1157160Y0106004D02*
X1159178Y0106004D01*
G75*
G02*
X1160039Y0105143I0000000J-000861D01*
G01*
X1160039Y0103420D01*
G75*
G02*
X1159178Y0102559I-000861J0000000D01*
G01*
X1157160Y0102559D01*
G75*
G02*
X1156299Y0103420I0000000J0000861D01*
G01*
X1156299Y0105143D01*
G75*
G02*
X1157160Y0106004I0000861J0000000D01*
G01*
G37*
G36*
G01*
X1227870Y0115255D02*
X1227870Y0117272D01*
G75*
G02*
X1228731Y0118134I0000861J0000000D01*
G01*
X1230453Y0118134D01*
G75*
G02*
X1231315Y0117272I0000000J-000861D01*
G01*
X1231315Y0115255D01*
G75*
G02*
X1230453Y0114394I-000861J0000000D01*
G01*
X1228731Y0114394D01*
G75*
G02*
X1227870Y0115255I0000000J0000861D01*
G01*
G37*
G36*
G01*
X1234070Y0115255D02*
X1234070Y0117272D01*
G75*
G02*
X1234932Y0118134I0000861J0000000D01*
G01*
X1236654Y0118134D01*
G75*
G02*
X1237515Y0117272I0000000J-000861D01*
G01*
X1237515Y0115255D01*
G75*
G02*
X1236654Y0114394I-000861J0000000D01*
G01*
X1234932Y0114394D01*
G75*
G02*
X1234070Y0115255I0000000J0000861D01*
G01*
G37*
G36*
G01*
X1233263Y0089693D02*
X1233263Y0088334D01*
G75*
G02*
X1232683Y0087754I-000581J0000000D01*
G01*
X1231521Y0087754D01*
G75*
G02*
X1230941Y0088334I0000000J0000581D01*
G01*
X1230941Y0089693D01*
G75*
G02*
X1231521Y0090273I0000581J0000000D01*
G01*
X1232683Y0090273D01*
G75*
G02*
X1233263Y0089693I0000000J-000581D01*
G01*
G37*
G36*
G01*
X1229444Y0089693D02*
X1229444Y0088334D01*
G75*
G02*
X1228864Y0087754I-000581J0000000D01*
G01*
X1227702Y0087754D01*
G75*
G02*
X1227122Y0088334I0000000J0000581D01*
G01*
X1227122Y0089693D01*
G75*
G02*
X1227702Y0090273I0000581J0000000D01*
G01*
X1228864Y0090273D01*
G75*
G02*
X1229444Y0089693I0000000J-000581D01*
G01*
G37*
G36*
G01*
X1245372Y0106193D02*
X1244013Y0106193D01*
G75*
G02*
X1243433Y0106773I0000000J0000581D01*
G01*
X1243433Y0107935D01*
G75*
G02*
X1244013Y0108516I0000581J0000000D01*
G01*
X1245372Y0108516D01*
G75*
G02*
X1245952Y0107935I0000000J-000581D01*
G01*
X1245952Y0106773D01*
G75*
G02*
X1245372Y0106193I-000581J0000000D01*
G01*
G37*
G36*
G01*
X1245372Y0110012D02*
X1244013Y0110012D01*
G75*
G02*
X1243433Y0110592I0000000J0000581D01*
G01*
X1243433Y0111754D01*
G75*
G02*
X1244013Y0112334I0000581J0000000D01*
G01*
X1245372Y0112334D01*
G75*
G02*
X1245952Y0111754I0000000J-000581D01*
G01*
X1245952Y0110592D01*
G75*
G02*
X1245372Y0110012I-000581J0000000D01*
G01*
G37*
G36*
G01*
X1239084Y0128169D02*
X1240442Y0128169D01*
G75*
G02*
X1241023Y0127588I0000000J-000581D01*
G01*
X1241023Y0126427D01*
G75*
G02*
X1240442Y0125846I-000581J0000000D01*
G01*
X1239084Y0125846D01*
G75*
G02*
X1238504Y0126427I0000000J0000581D01*
G01*
X1238504Y0127588D01*
G75*
G02*
X1239084Y0128169I0000581J0000000D01*
G01*
G37*
G36*
G01*
X1239084Y0124350D02*
X1240442Y0124350D01*
G75*
G02*
X1241023Y0123770I0000000J-000581D01*
G01*
X1241023Y0122608D01*
G75*
G02*
X1240442Y0122027I-000581J0000000D01*
G01*
X1239084Y0122027D01*
G75*
G02*
X1238504Y0122608I0000000J0000581D01*
G01*
X1238504Y0123770D01*
G75*
G02*
X1239084Y0124350I0000581J0000000D01*
G01*
G37*
G36*
G01*
X1234527Y0131506D02*
X1234527Y0132864D01*
G75*
G02*
X1235108Y0133445I0000581J0000000D01*
G01*
X1236269Y0133445D01*
G75*
G02*
X1236850Y0132864I0000000J-000581D01*
G01*
X1236850Y0131506D01*
G75*
G02*
X1236269Y0130925I-000581J0000000D01*
G01*
X1235108Y0130925D01*
G75*
G02*
X1234527Y0131506I0000000J0000581D01*
G01*
G37*
G36*
G01*
X1238346Y0131506D02*
X1238346Y0132864D01*
G75*
G02*
X1238927Y0133445I0000581J0000000D01*
G01*
X1240088Y0133445D01*
G75*
G02*
X1240669Y0132864I0000000J-000581D01*
G01*
X1240669Y0131506D01*
G75*
G02*
X1240088Y0130925I-000581J0000000D01*
G01*
X1238927Y0130925D01*
G75*
G02*
X1238346Y0131506I0000000J0000581D01*
G01*
G37*
G36*
G01*
X1209724Y0132687D02*
X1209724Y0134045D01*
G75*
G02*
X1210305Y0134626I0000581J0000000D01*
G01*
X1211466Y0134626D01*
G75*
G02*
X1212047Y0134045I0000000J-000581D01*
G01*
X1212047Y0132687D01*
G75*
G02*
X1211466Y0132106I-000581J0000000D01*
G01*
X1210305Y0132106D01*
G75*
G02*
X1209724Y0132687I0000000J0000581D01*
G01*
G37*
G36*
G01*
X1213543Y0132687D02*
X1213543Y0134045D01*
G75*
G02*
X1214124Y0134626I0000581J0000000D01*
G01*
X1215285Y0134626D01*
G75*
G02*
X1215866Y0134045I0000000J-000581D01*
G01*
X1215866Y0132687D01*
G75*
G02*
X1215285Y0132106I-000581J0000000D01*
G01*
X1214124Y0132106D01*
G75*
G02*
X1213543Y0132687I0000000J0000581D01*
G01*
G37*
G36*
G01*
X1225513Y0089693D02*
X1225513Y0088334D01*
G75*
G02*
X1224933Y0087754I-000581J0000000D01*
G01*
X1223771Y0087754D01*
G75*
G02*
X1223191Y0088334I0000000J0000581D01*
G01*
X1223191Y0089693D01*
G75*
G02*
X1223771Y0090273I0000581J0000000D01*
G01*
X1224933Y0090273D01*
G75*
G02*
X1225513Y0089693I0000000J-000581D01*
G01*
G37*
G36*
G01*
X1221694Y0089693D02*
X1221694Y0088334D01*
G75*
G02*
X1221114Y0087754I-000581J0000000D01*
G01*
X1219952Y0087754D01*
G75*
G02*
X1219372Y0088334I0000000J0000581D01*
G01*
X1219372Y0089693D01*
G75*
G02*
X1219952Y0090273I0000581J0000000D01*
G01*
X1221114Y0090273D01*
G75*
G02*
X1221694Y0089693I0000000J-000581D01*
G01*
G37*
G36*
G01*
X1217763Y0089693D02*
X1217763Y0088334D01*
G75*
G02*
X1217183Y0087754I-000581J0000000D01*
G01*
X1216021Y0087754D01*
G75*
G02*
X1215441Y0088334I0000000J0000581D01*
G01*
X1215441Y0089693D01*
G75*
G02*
X1216021Y0090273I0000581J0000000D01*
G01*
X1217183Y0090273D01*
G75*
G02*
X1217763Y0089693I0000000J-000581D01*
G01*
G37*
G36*
G01*
X1213944Y0089693D02*
X1213944Y0088334D01*
G75*
G02*
X1213364Y0087754I-000581J0000000D01*
G01*
X1212202Y0087754D01*
G75*
G02*
X1211622Y0088334I0000000J0000581D01*
G01*
X1211622Y0089693D01*
G75*
G02*
X1212202Y0090273I0000581J0000000D01*
G01*
X1213364Y0090273D01*
G75*
G02*
X1213944Y0089693I0000000J-000581D01*
G01*
G37*
G36*
G01*
X1241372Y0114193D02*
X1240013Y0114193D01*
G75*
G02*
X1239433Y0114773I0000000J0000581D01*
G01*
X1239433Y0115935D01*
G75*
G02*
X1240013Y0116516I0000581J0000000D01*
G01*
X1241372Y0116516D01*
G75*
G02*
X1241952Y0115935I0000000J-000581D01*
G01*
X1241952Y0114773D01*
G75*
G02*
X1241372Y0114193I-000581J0000000D01*
G01*
G37*
G36*
G01*
X1241372Y0118012D02*
X1240013Y0118012D01*
G75*
G02*
X1239433Y0118592I0000000J0000581D01*
G01*
X1239433Y0119754D01*
G75*
G02*
X1240013Y0120334I0000581J0000000D01*
G01*
X1241372Y0120334D01*
G75*
G02*
X1241952Y0119754I0000000J-000581D01*
G01*
X1241952Y0118592D01*
G75*
G02*
X1241372Y0118012I-000581J0000000D01*
G01*
G37*
D32*
X1151606Y0104242D03*
X1151606Y0111722D03*
X1143732Y0107982D03*
D37*
X1215078Y0109941D03*
X1215078Y0107382D03*
X1215078Y0104823D03*
X1215078Y0102264D03*
X1215078Y0099705D03*
X1215078Y0097145D03*
X1215078Y0094586D03*
X1238307Y0094586D03*
X1238307Y0097145D03*
X1238307Y0099705D03*
X1238307Y0102264D03*
X1238307Y0104823D03*
X1238307Y0107382D03*
X1238307Y0109941D03*
G36*
G01*
X1249372Y0106193D02*
X1248013Y0106193D01*
G75*
G02*
X1247433Y0106773I0000000J0000581D01*
G01*
X1247433Y0107935D01*
G75*
G02*
X1248013Y0108516I0000581J0000000D01*
G01*
X1249372Y0108516D01*
G75*
G02*
X1249952Y0107935I0000000J-000581D01*
G01*
X1249952Y0106773D01*
G75*
G02*
X1249372Y0106193I-000581J0000000D01*
G01*
G37*
G36*
G01*
X1249372Y0110012D02*
X1248013Y0110012D01*
G75*
G02*
X1247433Y0110592I0000000J0000581D01*
G01*
X1247433Y0111754D01*
G75*
G02*
X1248013Y0112334I0000581J0000000D01*
G01*
X1249372Y0112334D01*
G75*
G02*
X1249952Y0111754I0000000J-000581D01*
G01*
X1249952Y0110592D01*
G75*
G02*
X1249372Y0110012I-000581J0000000D01*
G01*
G37*
G36*
G01*
X1202244Y0128947D02*
X1202244Y0130305D01*
G75*
G02*
X1202824Y0130886I0000581J0000000D01*
G01*
X1203986Y0130886D01*
G75*
G02*
X1204567Y0130305I0000000J-000581D01*
G01*
X1204567Y0128947D01*
G75*
G02*
X1203986Y0128366I-000581J0000000D01*
G01*
X1202824Y0128366D01*
G75*
G02*
X1202244Y0128947I0000000J0000581D01*
G01*
G37*
G36*
G01*
X1206063Y0128947D02*
X1206063Y0130305D01*
G75*
G02*
X1206643Y0130886I0000581J0000000D01*
G01*
X1207805Y0130886D01*
G75*
G02*
X1208385Y0130305I0000000J-000581D01*
G01*
X1208385Y0128947D01*
G75*
G02*
X1207805Y0128366I-000581J0000000D01*
G01*
X1206643Y0128366D01*
G75*
G02*
X1206063Y0128947I0000000J0000581D01*
G01*
G37*
G36*
G01*
X1208385Y0134045D02*
X1208385Y0132687D01*
G75*
G02*
X1207805Y0132106I-000581J0000000D01*
G01*
X1206643Y0132106D01*
G75*
G02*
X1206063Y0132687I0000000J0000581D01*
G01*
X1206063Y0134045D01*
G75*
G02*
X1206643Y0134626I0000581J0000000D01*
G01*
X1207805Y0134626D01*
G75*
G02*
X1208385Y0134045I0000000J-000581D01*
G01*
G37*
G36*
G01*
X1204567Y0134045D02*
X1204567Y0132687D01*
G75*
G02*
X1203986Y0132106I-000581J0000000D01*
G01*
X1202824Y0132106D01*
G75*
G02*
X1202244Y0132687I0000000J0000581D01*
G01*
X1202244Y0134045D01*
G75*
G02*
X1202824Y0134626I0000581J0000000D01*
G01*
X1203986Y0134626D01*
G75*
G02*
X1204567Y0134045I0000000J-000581D01*
G01*
G37*
G36*
G01*
X1204832Y0113012D02*
X1206191Y0113012D01*
G75*
G02*
X1206771Y0112431I0000000J-000581D01*
G01*
X1206771Y0111270D01*
G75*
G02*
X1206191Y0110689I-000581J0000000D01*
G01*
X1204832Y0110689D01*
G75*
G02*
X1204252Y0111270I0000000J0000581D01*
G01*
X1204252Y0112431D01*
G75*
G02*
X1204832Y0113012I0000581J0000000D01*
G01*
G37*
G36*
G01*
X1204832Y0109193D02*
X1206191Y0109193D01*
G75*
G02*
X1206771Y0108612I0000000J-000581D01*
G01*
X1206771Y0107451D01*
G75*
G02*
X1206191Y0106870I-000581J0000000D01*
G01*
X1204832Y0106870D01*
G75*
G02*
X1204252Y0107451I0000000J0000581D01*
G01*
X1204252Y0108612D01*
G75*
G02*
X1204832Y0109193I0000581J0000000D01*
G01*
G37*
G36*
G01*
X1251269Y0123208D02*
X1249911Y0123208D01*
G75*
G02*
X1249330Y0123789I0000000J0000581D01*
G01*
X1249330Y0124951D01*
G75*
G02*
X1249911Y0125531I0000581J0000000D01*
G01*
X1251269Y0125531D01*
G75*
G02*
X1251850Y0124951I0000000J-000581D01*
G01*
X1251850Y0123789D01*
G75*
G02*
X1251269Y0123208I-000581J0000000D01*
G01*
G37*
G36*
G01*
X1251269Y0127027D02*
X1249911Y0127027D01*
G75*
G02*
X1249330Y0127608I0000000J0000581D01*
G01*
X1249330Y0128770D01*
G75*
G02*
X1249911Y0129350I0000581J0000000D01*
G01*
X1251269Y0129350D01*
G75*
G02*
X1251850Y0128770I0000000J-000581D01*
G01*
X1251850Y0127608D01*
G75*
G02*
X1251269Y0127027I-000581J0000000D01*
G01*
G37*
G36*
G01*
X1176712Y0132687D02*
X1176712Y0134045D01*
G75*
G02*
X1177293Y0134626I0000581J0000000D01*
G01*
X1178454Y0134626D01*
G75*
G02*
X1179035Y0134045I0000000J-000581D01*
G01*
X1179035Y0132687D01*
G75*
G02*
X1178454Y0132106I-000581J0000000D01*
G01*
X1177293Y0132106D01*
G75*
G02*
X1176712Y0132687I0000000J0000581D01*
G01*
G37*
G36*
G01*
X1180531Y0132687D02*
X1180531Y0134045D01*
G75*
G02*
X1181112Y0134626I0000581J0000000D01*
G01*
X1182273Y0134626D01*
G75*
G02*
X1182854Y0134045I0000000J-000581D01*
G01*
X1182854Y0132687D01*
G75*
G02*
X1182273Y0132106I-000581J0000000D01*
G01*
X1181112Y0132106D01*
G75*
G02*
X1180531Y0132687I0000000J0000581D01*
G01*
G37*
G36*
G01*
X1200108Y0096870D02*
X1201466Y0096870D01*
G75*
G02*
X1202047Y0096289I0000000J-000581D01*
G01*
X1202047Y0095128D01*
G75*
G02*
X1201466Y0094547I-000581J0000000D01*
G01*
X1200108Y0094547D01*
G75*
G02*
X1199527Y0095128I0000000J0000581D01*
G01*
X1199527Y0096289D01*
G75*
G02*
X1200108Y0096870I0000581J0000000D01*
G01*
G37*
G36*
G01*
X1200108Y0093051D02*
X1201466Y0093051D01*
G75*
G02*
X1202047Y0092470I0000000J-000581D01*
G01*
X1202047Y0091309D01*
G75*
G02*
X1201466Y0090728I-000581J0000000D01*
G01*
X1200108Y0090728D01*
G75*
G02*
X1199527Y0091309I0000000J0000581D01*
G01*
X1199527Y0092470D01*
G75*
G02*
X1200108Y0093051I0000581J0000000D01*
G01*
G37*
G36*
G01*
X1165639Y0125964D02*
X1164281Y0125964D01*
G75*
G02*
X1163700Y0126545I0000000J0000581D01*
G01*
X1163700Y0127707D01*
G75*
G02*
X1164281Y0128287I0000581J0000000D01*
G01*
X1165639Y0128287D01*
G75*
G02*
X1166220Y0127707I0000000J-000581D01*
G01*
X1166220Y0126545D01*
G75*
G02*
X1165639Y0125964I-000581J0000000D01*
G01*
G37*
G36*
G01*
X1165639Y0129783D02*
X1164281Y0129783D01*
G75*
G02*
X1163700Y0130364I0000000J0000581D01*
G01*
X1163700Y0131525D01*
G75*
G02*
X1164281Y0132106I0000581J0000000D01*
G01*
X1165639Y0132106D01*
G75*
G02*
X1166220Y0131525I0000000J-000581D01*
G01*
X1166220Y0130364D01*
G75*
G02*
X1165639Y0129783I-000581J0000000D01*
G01*
G37*
D36*
X1257362Y0118996D03*
X1275315Y0118996D03*
D39*
X1260334Y0087598D03*
X1272342Y0087598D03*
X1260334Y0100787D03*
X1272342Y0100787D03*
G36*
G01*
X1244114Y0085049D02*
X1244114Y0086407D01*
G75*
G02*
X1244694Y0086988I0000581J0000000D01*
G01*
X1245856Y0086988D01*
G75*
G02*
X1246437Y0086407I0000000J-000581D01*
G01*
X1246437Y0085049D01*
G75*
G02*
X1245856Y0084468I-000581J0000000D01*
G01*
X1244694Y0084468D01*
G75*
G02*
X1244114Y0085049I0000000J0000581D01*
G01*
G37*
G36*
G01*
X1247933Y0085049D02*
X1247933Y0086407D01*
G75*
G02*
X1248513Y0086988I0000581J0000000D01*
G01*
X1249675Y0086988D01*
G75*
G02*
X1250255Y0086407I0000000J-000581D01*
G01*
X1250255Y0085049D01*
G75*
G02*
X1249675Y0084468I-000581J0000000D01*
G01*
X1248513Y0084468D01*
G75*
G02*
X1247933Y0085049I0000000J0000581D01*
G01*
G37*
G36*
G01*
X1205994Y0090728D02*
X1204635Y0090728D01*
G75*
G02*
X1204055Y0091309I0000000J0000581D01*
G01*
X1204055Y0092470D01*
G75*
G02*
X1204635Y0093051I0000581J0000000D01*
G01*
X1205994Y0093051D01*
G75*
G02*
X1206574Y0092470I0000000J-000581D01*
G01*
X1206574Y0091309D01*
G75*
G02*
X1205994Y0090728I-000581J0000000D01*
G01*
G37*
G36*
G01*
X1205994Y0094547D02*
X1204635Y0094547D01*
G75*
G02*
X1204055Y0095128I0000000J0000581D01*
G01*
X1204055Y0096289D01*
G75*
G02*
X1204635Y0096870I0000581J0000000D01*
G01*
X1205994Y0096870D01*
G75*
G02*
X1206574Y0096289I0000000J-000581D01*
G01*
X1206574Y0095128D01*
G75*
G02*
X1205994Y0094547I-000581J0000000D01*
G01*
G37*
G36*
G01*
X1242342Y0131309D02*
X1242342Y0132667D01*
G75*
G02*
X1242923Y0133248I0000581J0000000D01*
G01*
X1244084Y0133248D01*
G75*
G02*
X1244665Y0132667I0000000J-000581D01*
G01*
X1244665Y0131309D01*
G75*
G02*
X1244084Y0130728I-000581J0000000D01*
G01*
X1242923Y0130728D01*
G75*
G02*
X1242342Y0131309I0000000J0000581D01*
G01*
G37*
G36*
G01*
X1246161Y0131309D02*
X1246161Y0132667D01*
G75*
G02*
X1246742Y0133248I0000581J0000000D01*
G01*
X1247903Y0133248D01*
G75*
G02*
X1248484Y0132667I0000000J-000581D01*
G01*
X1248484Y0131309D01*
G75*
G02*
X1247903Y0130728I-000581J0000000D01*
G01*
X1246742Y0130728D01*
G75*
G02*
X1246161Y0131309I0000000J0000581D01*
G01*
G37*
G36*
G01*
X1208513Y0097834D02*
X1209872Y0097834D01*
G75*
G02*
X1210452Y0097254I0000000J-000581D01*
G01*
X1210452Y0096092D01*
G75*
G02*
X1209872Y0095512I-000581J0000000D01*
G01*
X1208513Y0095512D01*
G75*
G02*
X1207933Y0096092I0000000J0000581D01*
G01*
X1207933Y0097254D01*
G75*
G02*
X1208513Y0097834I0000581J0000000D01*
G01*
G37*
G36*
G01*
X1208513Y0094016D02*
X1209872Y0094016D01*
G75*
G02*
X1210452Y0093435I0000000J-000581D01*
G01*
X1210452Y0092273D01*
G75*
G02*
X1209872Y0091693I-000581J0000000D01*
G01*
X1208513Y0091693D01*
G75*
G02*
X1207933Y0092273I0000000J0000581D01*
G01*
X1207933Y0093435D01*
G75*
G02*
X1208513Y0094016I0000581J0000000D01*
G01*
G37*
G36*
G01*
X1154409Y0098238D02*
X1154409Y0099596D01*
G75*
G02*
X1154990Y0100177I0000581J0000000D01*
G01*
X1156151Y0100177D01*
G75*
G02*
X1156732Y0099596I0000000J-000581D01*
G01*
X1156732Y0098238D01*
G75*
G02*
X1156151Y0097657I-000581J0000000D01*
G01*
X1154990Y0097657D01*
G75*
G02*
X1154409Y0098238I0000000J0000581D01*
G01*
G37*
G36*
G01*
X1158228Y0098238D02*
X1158228Y0099596D01*
G75*
G02*
X1158809Y0100177I0000581J0000000D01*
G01*
X1159970Y0100177D01*
G75*
G02*
X1160551Y0099596I0000000J-000581D01*
G01*
X1160551Y0098238D01*
G75*
G02*
X1159970Y0097657I-000581J0000000D01*
G01*
X1158809Y0097657D01*
G75*
G02*
X1158228Y0098238I0000000J0000581D01*
G01*
G37*
G36*
G01*
X1193515Y0088272D02*
X1193515Y0086255D01*
G75*
G02*
X1192654Y0085394I-000861J0000000D01*
G01*
X1190932Y0085394D01*
G75*
G02*
X1190070Y0086255I0000000J0000861D01*
G01*
X1190070Y0088272D01*
G75*
G02*
X1190932Y0089134I0000861J0000000D01*
G01*
X1192654Y0089134D01*
G75*
G02*
X1193515Y0088272I0000000J-000861D01*
G01*
G37*
G36*
G01*
X1187315Y0088272D02*
X1187315Y0086255D01*
G75*
G02*
X1186453Y0085394I-000861J0000000D01*
G01*
X1184731Y0085394D01*
G75*
G02*
X1183870Y0086255I0000000J0000861D01*
G01*
X1183870Y0088272D01*
G75*
G02*
X1184731Y0089134I0000861J0000000D01*
G01*
X1186453Y0089134D01*
G75*
G02*
X1187315Y0088272I0000000J-000861D01*
G01*
G37*
G36*
G01*
X1201763Y0087943D02*
X1201763Y0086584D01*
G75*
G02*
X1201183Y0086004I-000581J0000000D01*
G01*
X1200021Y0086004D01*
G75*
G02*
X1199441Y0086584I0000000J0000581D01*
G01*
X1199441Y0087943D01*
G75*
G02*
X1200021Y0088523I0000581J0000000D01*
G01*
X1201183Y0088523D01*
G75*
G02*
X1201763Y0087943I0000000J-000581D01*
G01*
G37*
G36*
G01*
X1197944Y0087943D02*
X1197944Y0086584D01*
G75*
G02*
X1197364Y0086004I-000581J0000000D01*
G01*
X1196202Y0086004D01*
G75*
G02*
X1195622Y0086584I0000000J0000581D01*
G01*
X1195622Y0087943D01*
G75*
G02*
X1196202Y0088523I0000581J0000000D01*
G01*
X1197364Y0088523D01*
G75*
G02*
X1197944Y0087943I0000000J-000581D01*
G01*
G37*
G36*
G01*
X1214263Y0115943D02*
X1214263Y0114584D01*
G75*
G02*
X1213683Y0114004I-000581J0000000D01*
G01*
X1212521Y0114004D01*
G75*
G02*
X1211941Y0114584I0000000J0000581D01*
G01*
X1211941Y0115943D01*
G75*
G02*
X1212521Y0116523I0000581J0000000D01*
G01*
X1213683Y0116523D01*
G75*
G02*
X1214263Y0115943I0000000J-000581D01*
G01*
G37*
G36*
G01*
X1210444Y0115943D02*
X1210444Y0114584D01*
G75*
G02*
X1209864Y0114004I-000581J0000000D01*
G01*
X1208702Y0114004D01*
G75*
G02*
X1208122Y0114584I0000000J0000581D01*
G01*
X1208122Y0115943D01*
G75*
G02*
X1208702Y0116523I0000581J0000000D01*
G01*
X1209864Y0116523D01*
G75*
G02*
X1210444Y0115943I0000000J-000581D01*
G01*
G37*
G36*
G01*
X1220013Y0120334D02*
X1221372Y0120334D01*
G75*
G02*
X1221952Y0119754I0000000J-000581D01*
G01*
X1221952Y0118592D01*
G75*
G02*
X1221372Y0118012I-000581J0000000D01*
G01*
X1220013Y0118012D01*
G75*
G02*
X1219433Y0118592I0000000J0000581D01*
G01*
X1219433Y0119754D01*
G75*
G02*
X1220013Y0120334I0000581J0000000D01*
G01*
G37*
G36*
G01*
X1220013Y0116516D02*
X1221372Y0116516D01*
G75*
G02*
X1221952Y0115935I0000000J-000581D01*
G01*
X1221952Y0114773D01*
G75*
G02*
X1221372Y0114193I-000581J0000000D01*
G01*
X1220013Y0114193D01*
G75*
G02*
X1219433Y0114773I0000000J0000581D01*
G01*
X1219433Y0115935D01*
G75*
G02*
X1220013Y0116516I0000581J0000000D01*
G01*
G37*
G36*
G01*
X1216250Y0120334D02*
X1217608Y0120334D01*
G75*
G02*
X1218189Y0119754I0000000J-000581D01*
G01*
X1218189Y0118592D01*
G75*
G02*
X1217608Y0118012I-000581J0000000D01*
G01*
X1216250Y0118012D01*
G75*
G02*
X1215669Y0118592I0000000J0000581D01*
G01*
X1215669Y0119754D01*
G75*
G02*
X1216250Y0120334I0000581J0000000D01*
G01*
G37*
G36*
G01*
X1216250Y0116516D02*
X1217608Y0116516D01*
G75*
G02*
X1218189Y0115935I0000000J-000581D01*
G01*
X1218189Y0114773D01*
G75*
G02*
X1217608Y0114193I-000581J0000000D01*
G01*
X1216250Y0114193D01*
G75*
G02*
X1215669Y0114773I0000000J0000581D01*
G01*
X1215669Y0115935D01*
G75*
G02*
X1216250Y0116516I0000581J0000000D01*
G01*
G37*
G36*
G01*
X1214263Y0119943D02*
X1214263Y0118584D01*
G75*
G02*
X1213683Y0118004I-000581J0000000D01*
G01*
X1212521Y0118004D01*
G75*
G02*
X1211941Y0118584I0000000J0000581D01*
G01*
X1211941Y0119943D01*
G75*
G02*
X1212521Y0120523I0000581J0000000D01*
G01*
X1213683Y0120523D01*
G75*
G02*
X1214263Y0119943I0000000J-000581D01*
G01*
G37*
G36*
G01*
X1210444Y0119943D02*
X1210444Y0118584D01*
G75*
G02*
X1209864Y0118004I-000581J0000000D01*
G01*
X1208702Y0118004D01*
G75*
G02*
X1208122Y0118584I0000000J0000581D01*
G01*
X1208122Y0119943D01*
G75*
G02*
X1208702Y0120523I0000581J0000000D01*
G01*
X1209864Y0120523D01*
G75*
G02*
X1210444Y0119943I0000000J-000581D01*
G01*
G37*
D53*
X1230354Y0124508D03*
X1230354Y0128248D03*
X1230354Y0131988D03*
X1220039Y0131988D03*
X1220039Y0124508D03*
G36*
G01*
X1224013Y0120334D02*
X1225372Y0120334D01*
G75*
G02*
X1225952Y0119754I0000000J-000581D01*
G01*
X1225952Y0118592D01*
G75*
G02*
X1225372Y0118012I-000581J0000000D01*
G01*
X1224013Y0118012D01*
G75*
G02*
X1223433Y0118592I0000000J0000581D01*
G01*
X1223433Y0119754D01*
G75*
G02*
X1224013Y0120334I0000581J0000000D01*
G01*
G37*
G36*
G01*
X1224013Y0116516D02*
X1225372Y0116516D01*
G75*
G02*
X1225952Y0115935I0000000J-000581D01*
G01*
X1225952Y0114773D01*
G75*
G02*
X1225372Y0114193I-000581J0000000D01*
G01*
X1224013Y0114193D01*
G75*
G02*
X1223433Y0114773I0000000J0000581D01*
G01*
X1223433Y0115935D01*
G75*
G02*
X1224013Y0116516I0000581J0000000D01*
G01*
G37*
G36*
G01*
X1235147Y0127382D02*
X1236505Y0127382D01*
G75*
G02*
X1237086Y0126801I0000000J-000581D01*
G01*
X1237086Y0125640D01*
G75*
G02*
X1236505Y0125059I-000581J0000000D01*
G01*
X1235147Y0125059D01*
G75*
G02*
X1234567Y0125640I0000000J0000581D01*
G01*
X1234567Y0126801D01*
G75*
G02*
X1235147Y0127382I0000581J0000000D01*
G01*
G37*
G36*
G01*
X1235147Y0123563D02*
X1236505Y0123563D01*
G75*
G02*
X1237086Y0122982I0000000J-000581D01*
G01*
X1237086Y0121821D01*
G75*
G02*
X1236505Y0121240I-000581J0000000D01*
G01*
X1235147Y0121240D01*
G75*
G02*
X1234567Y0121821I0000000J0000581D01*
G01*
X1234567Y0122982D01*
G75*
G02*
X1235147Y0123563I0000581J0000000D01*
G01*
G37*
G36*
G01*
X1248513Y0104834D02*
X1249872Y0104834D01*
G75*
G02*
X1250452Y0104254I0000000J-000581D01*
G01*
X1250452Y0103092D01*
G75*
G02*
X1249872Y0102512I-000581J0000000D01*
G01*
X1248513Y0102512D01*
G75*
G02*
X1247933Y0103092I0000000J0000581D01*
G01*
X1247933Y0104254D01*
G75*
G02*
X1248513Y0104834I0000581J0000000D01*
G01*
G37*
G36*
G01*
X1248513Y0101016D02*
X1249872Y0101016D01*
G75*
G02*
X1250452Y0100435I0000000J-000581D01*
G01*
X1250452Y0099273D01*
G75*
G02*
X1249872Y0098693I-000581J0000000D01*
G01*
X1248513Y0098693D01*
G75*
G02*
X1247933Y0099273I0000000J0000581D01*
G01*
X1247933Y0100435D01*
G75*
G02*
X1248513Y0101016I0000581J0000000D01*
G01*
G37*
G36*
G01*
X1246701Y0118441D02*
X1244684Y0118441D01*
G75*
G02*
X1243822Y0119302I0000000J0000861D01*
G01*
X1243822Y0121024D01*
G75*
G02*
X1244684Y0121886I0000861J0000000D01*
G01*
X1246701Y0121886D01*
G75*
G02*
X1247563Y0121024I0000000J-000861D01*
G01*
X1247563Y0119302D01*
G75*
G02*
X1246701Y0118441I-000861J0000000D01*
G01*
G37*
G36*
G01*
X1246701Y0124642D02*
X1244684Y0124642D01*
G75*
G02*
X1243822Y0125503I0000000J0000861D01*
G01*
X1243822Y0127225D01*
G75*
G02*
X1244684Y0128086I0000861J0000000D01*
G01*
X1246701Y0128086D01*
G75*
G02*
X1247563Y0127225I0000000J-000861D01*
G01*
X1247563Y0125503D01*
G75*
G02*
X1246701Y0124642I-000861J0000000D01*
G01*
G37*
G36*
G01*
X1244114Y0093317D02*
X1244114Y0094675D01*
G75*
G02*
X1244694Y0095256I0000581J0000000D01*
G01*
X1245856Y0095256D01*
G75*
G02*
X1246437Y0094675I0000000J-000581D01*
G01*
X1246437Y0093317D01*
G75*
G02*
X1245856Y0092736I-000581J0000000D01*
G01*
X1244694Y0092736D01*
G75*
G02*
X1244114Y0093317I0000000J0000581D01*
G01*
G37*
G36*
G01*
X1247933Y0093317D02*
X1247933Y0094675D01*
G75*
G02*
X1248513Y0095256I0000581J0000000D01*
G01*
X1249675Y0095256D01*
G75*
G02*
X1250255Y0094675I0000000J-000581D01*
G01*
X1250255Y0093317D01*
G75*
G02*
X1249675Y0092736I-000581J0000000D01*
G01*
X1248513Y0092736D01*
G75*
G02*
X1247933Y0093317I0000000J0000581D01*
G01*
G37*
G36*
G01*
X1250255Y0090541D02*
X1250255Y0089183D01*
G75*
G02*
X1249675Y0088602I-000581J0000000D01*
G01*
X1248513Y0088602D01*
G75*
G02*
X1247933Y0089183I0000000J0000581D01*
G01*
X1247933Y0090541D01*
G75*
G02*
X1248513Y0091122I0000581J0000000D01*
G01*
X1249675Y0091122D01*
G75*
G02*
X1250255Y0090541I0000000J-000581D01*
G01*
G37*
G36*
G01*
X1246437Y0090541D02*
X1246437Y0089183D01*
G75*
G02*
X1245856Y0088602I-000581J0000000D01*
G01*
X1244694Y0088602D01*
G75*
G02*
X1244114Y0089183I0000000J0000581D01*
G01*
X1244114Y0090541D01*
G75*
G02*
X1244694Y0091122I0000581J0000000D01*
G01*
X1245856Y0091122D01*
G75*
G02*
X1246437Y0090541I0000000J-000581D01*
G01*
G37*
G36*
G01*
X1171870Y0086255D02*
X1171870Y0088272D01*
G75*
G02*
X1172731Y0089134I0000861J0000000D01*
G01*
X1174453Y0089134D01*
G75*
G02*
X1175315Y0088272I0000000J-000861D01*
G01*
X1175315Y0086255D01*
G75*
G02*
X1174453Y0085394I-000861J0000000D01*
G01*
X1172731Y0085394D01*
G75*
G02*
X1171870Y0086255I0000000J0000861D01*
G01*
G37*
G36*
G01*
X1178070Y0086255D02*
X1178070Y0088272D01*
G75*
G02*
X1178932Y0089134I0000861J0000000D01*
G01*
X1180654Y0089134D01*
G75*
G02*
X1181515Y0088272I0000000J-000861D01*
G01*
X1181515Y0086255D01*
G75*
G02*
X1180654Y0085394I-000861J0000000D01*
G01*
X1178932Y0085394D01*
G75*
G02*
X1178070Y0086255I0000000J0000861D01*
G01*
G37*
G36*
G01*
X1168641Y0081703D02*
X1168641Y0083061D01*
G75*
G02*
X1169222Y0083642I0000581J0000000D01*
G01*
X1170383Y0083642D01*
G75*
G02*
X1170964Y0083061I0000000J-000581D01*
G01*
X1170964Y0081703D01*
G75*
G02*
X1170383Y0081122I-000581J0000000D01*
G01*
X1169222Y0081122D01*
G75*
G02*
X1168641Y0081703I0000000J0000581D01*
G01*
G37*
G36*
G01*
X1172460Y0081703D02*
X1172460Y0083061D01*
G75*
G02*
X1173041Y0083642I0000581J0000000D01*
G01*
X1174202Y0083642D01*
G75*
G02*
X1174783Y0083061I0000000J-000581D01*
G01*
X1174783Y0081703D01*
G75*
G02*
X1174202Y0081122I-000581J0000000D01*
G01*
X1173041Y0081122D01*
G75*
G02*
X1172460Y0081703I0000000J0000581D01*
G01*
G37*
G36*
G01*
X1215866Y0123809D02*
X1215866Y0122451D01*
G75*
G02*
X1215285Y0121870I-000581J0000000D01*
G01*
X1214124Y0121870D01*
G75*
G02*
X1213543Y0122451I0000000J0000581D01*
G01*
X1213543Y0123809D01*
G75*
G02*
X1214124Y0124390I0000581J0000000D01*
G01*
X1215285Y0124390D01*
G75*
G02*
X1215866Y0123809I0000000J-000581D01*
G01*
G37*
G36*
G01*
X1212047Y0123809D02*
X1212047Y0122451D01*
G75*
G02*
X1211466Y0121870I-000581J0000000D01*
G01*
X1210305Y0121870D01*
G75*
G02*
X1209724Y0122451I0000000J0000581D01*
G01*
X1209724Y0123809D01*
G75*
G02*
X1210305Y0124390I0000581J0000000D01*
G01*
X1211466Y0124390D01*
G75*
G02*
X1212047Y0123809I0000000J-000581D01*
G01*
G37*
G36*
G01*
X1202460Y0100197D02*
X1202460Y0099212D01*
G75*
G02*
X1201968Y0098720I-000492J0000000D01*
G01*
X1197047Y0098720D01*
G75*
G02*
X1196555Y0099212I0000000J0000492D01*
G01*
X1196555Y0100197D01*
G75*
G02*
X1197047Y0100689I0000492J0000000D01*
G01*
X1201968Y0100689D01*
G75*
G02*
X1202460Y0100197I0000000J-000492D01*
G01*
G37*
G36*
G01*
X1202460Y0103346D02*
X1202460Y0102362D01*
G75*
G02*
X1201968Y0101870I-000492J0000000D01*
G01*
X1197047Y0101870D01*
G75*
G02*
X1196555Y0102362I0000000J0000492D01*
G01*
X1196555Y0103346D01*
G75*
G02*
X1197047Y0103838I0000492J0000000D01*
G01*
X1201968Y0103838D01*
G75*
G02*
X1202460Y0103346I0000000J-000492D01*
G01*
G37*
G36*
G01*
X1202460Y0106496D02*
X1202460Y0105512D01*
G75*
G02*
X1201968Y0105020I-000492J0000000D01*
G01*
X1197047Y0105020D01*
G75*
G02*
X1196555Y0105512I0000000J0000492D01*
G01*
X1196555Y0106496D01*
G75*
G02*
X1197047Y0106988I0000492J0000000D01*
G01*
X1201968Y0106988D01*
G75*
G02*
X1202460Y0106496I0000000J-000492D01*
G01*
G37*
G36*
G01*
X1202460Y0109645D02*
X1202460Y0108661D01*
G75*
G02*
X1201968Y0108169I-000492J0000000D01*
G01*
X1197047Y0108169D01*
G75*
G02*
X1196555Y0108661I0000000J0000492D01*
G01*
X1196555Y0109645D01*
G75*
G02*
X1197047Y0110138I0000492J0000000D01*
G01*
X1201968Y0110138D01*
G75*
G02*
X1202460Y0109645I0000000J-000492D01*
G01*
G37*
G36*
G01*
X1202460Y0112795D02*
X1202460Y0111811D01*
G75*
G02*
X1201968Y0111319I-000492J0000000D01*
G01*
X1197047Y0111319D01*
G75*
G02*
X1196555Y0111811I0000000J0000492D01*
G01*
X1196555Y0112795D01*
G75*
G02*
X1197047Y0113287I0000492J0000000D01*
G01*
X1201968Y0113287D01*
G75*
G02*
X1202460Y0112795I0000000J-000492D01*
G01*
G37*
G36*
G01*
X1202460Y0115945D02*
X1202460Y0114960D01*
G75*
G02*
X1201968Y0114468I-000492J0000000D01*
G01*
X1197047Y0114468D01*
G75*
G02*
X1196555Y0114960I0000000J0000492D01*
G01*
X1196555Y0115945D01*
G75*
G02*
X1197047Y0116437I0000492J0000000D01*
G01*
X1201968Y0116437D01*
G75*
G02*
X1202460Y0115945I0000000J-000492D01*
G01*
G37*
G36*
G01*
X1202460Y0119094D02*
X1202460Y0118110D01*
G75*
G02*
X1201968Y0117618I-000492J0000000D01*
G01*
X1197047Y0117618D01*
G75*
G02*
X1196555Y0118110I0000000J0000492D01*
G01*
X1196555Y0119094D01*
G75*
G02*
X1197047Y0119586I0000492J0000000D01*
G01*
X1201968Y0119586D01*
G75*
G02*
X1202460Y0119094I0000000J-000492D01*
G01*
G37*
G36*
G01*
X1202460Y0122244D02*
X1202460Y0121260D01*
G75*
G02*
X1201968Y0120768I-000492J0000000D01*
G01*
X1197047Y0120768D01*
G75*
G02*
X1196555Y0121260I0000000J0000492D01*
G01*
X1196555Y0122244D01*
G75*
G02*
X1197047Y0122736I0000492J0000000D01*
G01*
X1201968Y0122736D01*
G75*
G02*
X1202460Y0122244I0000000J-000492D01*
G01*
G37*
G36*
G01*
X1195078Y0129626D02*
X1195078Y0124705D01*
G75*
G02*
X1194586Y0124212I-000492J0000000D01*
G01*
X1193602Y0124212D01*
G75*
G02*
X1193110Y0124705I0000000J0000492D01*
G01*
X1193110Y0129626D01*
G75*
G02*
X1193602Y0130118I0000492J0000000D01*
G01*
X1194586Y0130118D01*
G75*
G02*
X1195078Y0129626I0000000J-000492D01*
G01*
G37*
G36*
G01*
X1191929Y0129626D02*
X1191929Y0124705D01*
G75*
G02*
X1191437Y0124212I-000492J0000000D01*
G01*
X1190452Y0124212D01*
G75*
G02*
X1189960Y0124705I0000000J0000492D01*
G01*
X1189960Y0129626D01*
G75*
G02*
X1190452Y0130118I0000492J0000000D01*
G01*
X1191437Y0130118D01*
G75*
G02*
X1191929Y0129626I0000000J-000492D01*
G01*
G37*
G36*
G01*
X1188779Y0129626D02*
X1188779Y0124705D01*
G75*
G02*
X1188287Y0124212I-000492J0000000D01*
G01*
X1187303Y0124212D01*
G75*
G02*
X1186811Y0124705I0000000J0000492D01*
G01*
X1186811Y0129626D01*
G75*
G02*
X1187303Y0130118I0000492J0000000D01*
G01*
X1188287Y0130118D01*
G75*
G02*
X1188779Y0129626I0000000J-000492D01*
G01*
G37*
G36*
G01*
X1185629Y0129626D02*
X1185629Y0124705D01*
G75*
G02*
X1185137Y0124212I-000492J0000000D01*
G01*
X1184153Y0124212D01*
G75*
G02*
X1183661Y0124705I0000000J0000492D01*
G01*
X1183661Y0129626D01*
G75*
G02*
X1184153Y0130118I0000492J0000000D01*
G01*
X1185137Y0130118D01*
G75*
G02*
X1185629Y0129626I0000000J-000492D01*
G01*
G37*
G36*
G01*
X1182480Y0129626D02*
X1182480Y0124705D01*
G75*
G02*
X1181988Y0124212I-000492J0000000D01*
G01*
X1181004Y0124212D01*
G75*
G02*
X1180511Y0124705I0000000J0000492D01*
G01*
X1180511Y0129626D01*
G75*
G02*
X1181004Y0130118I0000492J0000000D01*
G01*
X1181988Y0130118D01*
G75*
G02*
X1182480Y0129626I0000000J-000492D01*
G01*
G37*
G36*
G01*
X1179330Y0129626D02*
X1179330Y0124705D01*
G75*
G02*
X1178838Y0124212I-000492J0000000D01*
G01*
X1177854Y0124212D01*
G75*
G02*
X1177362Y0124705I0000000J0000492D01*
G01*
X1177362Y0129626D01*
G75*
G02*
X1177854Y0130118I0000492J0000000D01*
G01*
X1178838Y0130118D01*
G75*
G02*
X1179330Y0129626I0000000J-000492D01*
G01*
G37*
G36*
G01*
X1176181Y0129626D02*
X1176181Y0124705D01*
G75*
G02*
X1175689Y0124212I-000492J0000000D01*
G01*
X1174704Y0124212D01*
G75*
G02*
X1174212Y0124705I0000000J0000492D01*
G01*
X1174212Y0129626D01*
G75*
G02*
X1174704Y0130118I0000492J0000000D01*
G01*
X1175689Y0130118D01*
G75*
G02*
X1176181Y0129626I0000000J-000492D01*
G01*
G37*
G36*
G01*
X1173031Y0129626D02*
X1173031Y0124705D01*
G75*
G02*
X1172539Y0124212I-000492J0000000D01*
G01*
X1171555Y0124212D01*
G75*
G02*
X1171063Y0124705I0000000J0000492D01*
G01*
X1171063Y0129626D01*
G75*
G02*
X1171555Y0130118I0000492J0000000D01*
G01*
X1172539Y0130118D01*
G75*
G02*
X1173031Y0129626I0000000J-000492D01*
G01*
G37*
G36*
G01*
X1169586Y0122244D02*
X1169586Y0121260D01*
G75*
G02*
X1169094Y0120768I-000492J0000000D01*
G01*
X1164173Y0120768D01*
G75*
G02*
X1163681Y0121260I0000000J0000492D01*
G01*
X1163681Y0122244D01*
G75*
G02*
X1164173Y0122736I0000492J0000000D01*
G01*
X1169094Y0122736D01*
G75*
G02*
X1169586Y0122244I0000000J-000492D01*
G01*
G37*
G36*
G01*
X1169586Y0119094D02*
X1169586Y0118110D01*
G75*
G02*
X1169094Y0117618I-000492J0000000D01*
G01*
X1164173Y0117618D01*
G75*
G02*
X1163681Y0118110I0000000J0000492D01*
G01*
X1163681Y0119094D01*
G75*
G02*
X1164173Y0119586I0000492J0000000D01*
G01*
X1169094Y0119586D01*
G75*
G02*
X1169586Y0119094I0000000J-000492D01*
G01*
G37*
G36*
G01*
X1169586Y0115945D02*
X1169586Y0114960D01*
G75*
G02*
X1169094Y0114468I-000492J0000000D01*
G01*
X1164173Y0114468D01*
G75*
G02*
X1163681Y0114960I0000000J0000492D01*
G01*
X1163681Y0115945D01*
G75*
G02*
X1164173Y0116437I0000492J0000000D01*
G01*
X1169094Y0116437D01*
G75*
G02*
X1169586Y0115945I0000000J-000492D01*
G01*
G37*
G36*
G01*
X1169586Y0112795D02*
X1169586Y0111811D01*
G75*
G02*
X1169094Y0111319I-000492J0000000D01*
G01*
X1164173Y0111319D01*
G75*
G02*
X1163681Y0111811I0000000J0000492D01*
G01*
X1163681Y0112795D01*
G75*
G02*
X1164173Y0113287I0000492J0000000D01*
G01*
X1169094Y0113287D01*
G75*
G02*
X1169586Y0112795I0000000J-000492D01*
G01*
G37*
G36*
G01*
X1169586Y0109645D02*
X1169586Y0108661D01*
G75*
G02*
X1169094Y0108169I-000492J0000000D01*
G01*
X1164173Y0108169D01*
G75*
G02*
X1163681Y0108661I0000000J0000492D01*
G01*
X1163681Y0109645D01*
G75*
G02*
X1164173Y0110138I0000492J0000000D01*
G01*
X1169094Y0110138D01*
G75*
G02*
X1169586Y0109645I0000000J-000492D01*
G01*
G37*
G36*
G01*
X1169586Y0106496D02*
X1169586Y0105512D01*
G75*
G02*
X1169094Y0105020I-000492J0000000D01*
G01*
X1164173Y0105020D01*
G75*
G02*
X1163681Y0105512I0000000J0000492D01*
G01*
X1163681Y0106496D01*
G75*
G02*
X1164173Y0106988I0000492J0000000D01*
G01*
X1169094Y0106988D01*
G75*
G02*
X1169586Y0106496I0000000J-000492D01*
G01*
G37*
G36*
G01*
X1169586Y0103346D02*
X1169586Y0102362D01*
G75*
G02*
X1169094Y0101870I-000492J0000000D01*
G01*
X1164173Y0101870D01*
G75*
G02*
X1163681Y0102362I0000000J0000492D01*
G01*
X1163681Y0103346D01*
G75*
G02*
X1164173Y0103838I0000492J0000000D01*
G01*
X1169094Y0103838D01*
G75*
G02*
X1169586Y0103346I0000000J-000492D01*
G01*
G37*
G36*
G01*
X1169586Y0100197D02*
X1169586Y0099212D01*
G75*
G02*
X1169094Y0098720I-000492J0000000D01*
G01*
X1164173Y0098720D01*
G75*
G02*
X1163681Y0099212I0000000J0000492D01*
G01*
X1163681Y0100197D01*
G75*
G02*
X1164173Y0100689I0000492J0000000D01*
G01*
X1169094Y0100689D01*
G75*
G02*
X1169586Y0100197I0000000J-000492D01*
G01*
G37*
G36*
G01*
X1173031Y0096752D02*
X1173031Y0091831D01*
G75*
G02*
X1172539Y0091338I-000492J0000000D01*
G01*
X1171555Y0091338D01*
G75*
G02*
X1171063Y0091831I0000000J0000492D01*
G01*
X1171063Y0096752D01*
G75*
G02*
X1171555Y0097244I0000492J0000000D01*
G01*
X1172539Y0097244D01*
G75*
G02*
X1173031Y0096752I0000000J-000492D01*
G01*
G37*
G36*
G01*
X1176181Y0096752D02*
X1176181Y0091831D01*
G75*
G02*
X1175689Y0091338I-000492J0000000D01*
G01*
X1174704Y0091338D01*
G75*
G02*
X1174212Y0091831I0000000J0000492D01*
G01*
X1174212Y0096752D01*
G75*
G02*
X1174704Y0097244I0000492J0000000D01*
G01*
X1175689Y0097244D01*
G75*
G02*
X1176181Y0096752I0000000J-000492D01*
G01*
G37*
G36*
G01*
X1179330Y0096752D02*
X1179330Y0091831D01*
G75*
G02*
X1178838Y0091338I-000492J0000000D01*
G01*
X1177854Y0091338D01*
G75*
G02*
X1177362Y0091831I0000000J0000492D01*
G01*
X1177362Y0096752D01*
G75*
G02*
X1177854Y0097244I0000492J0000000D01*
G01*
X1178838Y0097244D01*
G75*
G02*
X1179330Y0096752I0000000J-000492D01*
G01*
G37*
G36*
G01*
X1182480Y0096752D02*
X1182480Y0091831D01*
G75*
G02*
X1181988Y0091338I-000492J0000000D01*
G01*
X1181004Y0091338D01*
G75*
G02*
X1180511Y0091831I0000000J0000492D01*
G01*
X1180511Y0096752D01*
G75*
G02*
X1181004Y0097244I0000492J0000000D01*
G01*
X1181988Y0097244D01*
G75*
G02*
X1182480Y0096752I0000000J-000492D01*
G01*
G37*
G36*
G01*
X1185629Y0096752D02*
X1185629Y0091831D01*
G75*
G02*
X1185137Y0091338I-000492J0000000D01*
G01*
X1184153Y0091338D01*
G75*
G02*
X1183661Y0091831I0000000J0000492D01*
G01*
X1183661Y0096752D01*
G75*
G02*
X1184153Y0097244I0000492J0000000D01*
G01*
X1185137Y0097244D01*
G75*
G02*
X1185629Y0096752I0000000J-000492D01*
G01*
G37*
G36*
G01*
X1188779Y0096752D02*
X1188779Y0091831D01*
G75*
G02*
X1188287Y0091338I-000492J0000000D01*
G01*
X1187303Y0091338D01*
G75*
G02*
X1186811Y0091831I0000000J0000492D01*
G01*
X1186811Y0096752D01*
G75*
G02*
X1187303Y0097244I0000492J0000000D01*
G01*
X1188287Y0097244D01*
G75*
G02*
X1188779Y0096752I0000000J-000492D01*
G01*
G37*
G36*
G01*
X1191929Y0096752D02*
X1191929Y0091831D01*
G75*
G02*
X1191437Y0091338I-000492J0000000D01*
G01*
X1190452Y0091338D01*
G75*
G02*
X1189960Y0091831I0000000J0000492D01*
G01*
X1189960Y0096752D01*
G75*
G02*
X1190452Y0097244I0000492J0000000D01*
G01*
X1191437Y0097244D01*
G75*
G02*
X1191929Y0096752I0000000J-000492D01*
G01*
G37*
G36*
G01*
X1195078Y0096752D02*
X1195078Y0091831D01*
G75*
G02*
X1194586Y0091338I-000492J0000000D01*
G01*
X1193602Y0091338D01*
G75*
G02*
X1193110Y0091831I0000000J0000492D01*
G01*
X1193110Y0096752D01*
G75*
G02*
X1193602Y0097244I0000492J0000000D01*
G01*
X1194586Y0097244D01*
G75*
G02*
X1195078Y0096752I0000000J-000492D01*
G01*
G37*
G36*
G01*
X1202244Y0125207D02*
X1202244Y0126565D01*
G75*
G02*
X1202824Y0127145I0000581J0000000D01*
G01*
X1203986Y0127145D01*
G75*
G02*
X1204567Y0126565I0000000J-000581D01*
G01*
X1204567Y0125207D01*
G75*
G02*
X1203986Y0124626I-000581J0000000D01*
G01*
X1202824Y0124626D01*
G75*
G02*
X1202244Y0125207I0000000J0000581D01*
G01*
G37*
G36*
G01*
X1206063Y0125207D02*
X1206063Y0126565D01*
G75*
G02*
X1206643Y0127145I0000581J0000000D01*
G01*
X1207805Y0127145D01*
G75*
G02*
X1208385Y0126565I0000000J-000581D01*
G01*
X1208385Y0125207D01*
G75*
G02*
X1207805Y0124626I-000581J0000000D01*
G01*
X1206643Y0124626D01*
G75*
G02*
X1206063Y0125207I0000000J0000581D01*
G01*
G37*
G36*
G01*
X1215866Y0127746D02*
X1215866Y0126388D01*
G75*
G02*
X1215285Y0125807I-000581J0000000D01*
G01*
X1214124Y0125807D01*
G75*
G02*
X1213543Y0126388I0000000J0000581D01*
G01*
X1213543Y0127746D01*
G75*
G02*
X1214124Y0128327I0000581J0000000D01*
G01*
X1215285Y0128327D01*
G75*
G02*
X1215866Y0127746I0000000J-000581D01*
G01*
G37*
G36*
G01*
X1212047Y0127746D02*
X1212047Y0126388D01*
G75*
G02*
X1211466Y0125807I-000581J0000000D01*
G01*
X1210305Y0125807D01*
G75*
G02*
X1209724Y0126388I0000000J0000581D01*
G01*
X1209724Y0127746D01*
G75*
G02*
X1210305Y0128327I0000581J0000000D01*
G01*
X1211466Y0128327D01*
G75*
G02*
X1212047Y0127746I0000000J-000581D01*
G01*
G37*
G36*
G01*
X1210354Y0102549D02*
X1210354Y0101191D01*
G75*
G02*
X1209773Y0100610I-000581J0000000D01*
G01*
X1208612Y0100610D01*
G75*
G02*
X1208031Y0101191I0000000J0000581D01*
G01*
X1208031Y0102549D01*
G75*
G02*
X1208612Y0103130I0000581J0000000D01*
G01*
X1209773Y0103130D01*
G75*
G02*
X1210354Y0102549I0000000J-000581D01*
G01*
G37*
G36*
G01*
X1206535Y0102549D02*
X1206535Y0101191D01*
G75*
G02*
X1205954Y0100610I-000581J0000000D01*
G01*
X1204793Y0100610D01*
G75*
G02*
X1204212Y0101191I0000000J0000581D01*
G01*
X1204212Y0102549D01*
G75*
G02*
X1204793Y0103130I0000581J0000000D01*
G01*
X1205954Y0103130D01*
G75*
G02*
X1206535Y0102549I0000000J-000581D01*
G01*
G37*
G36*
G01*
X1157559Y0120728D02*
X1158917Y0120728D01*
G75*
G02*
X1159498Y0120147I0000000J-000581D01*
G01*
X1159498Y0118986D01*
G75*
G02*
X1158917Y0118405I-000581J0000000D01*
G01*
X1157559Y0118405D01*
G75*
G02*
X1156978Y0118986I0000000J0000581D01*
G01*
X1156978Y0120147D01*
G75*
G02*
X1157559Y0120728I0000581J0000000D01*
G01*
G37*
G36*
G01*
X1157559Y0116909D02*
X1158917Y0116909D01*
G75*
G02*
X1159498Y0116328I0000000J-000581D01*
G01*
X1159498Y0115167D01*
G75*
G02*
X1158917Y0114586I-000581J0000000D01*
G01*
X1157559Y0114586D01*
G75*
G02*
X1156978Y0115167I0000000J0000581D01*
G01*
X1156978Y0116328D01*
G75*
G02*
X1157559Y0116909I0000581J0000000D01*
G01*
G37*
G36*
G01*
X1166840Y0094370D02*
X1168198Y0094370D01*
G75*
G02*
X1168779Y0093789I0000000J-000581D01*
G01*
X1168779Y0092628D01*
G75*
G02*
X1168198Y0092047I-000581J0000000D01*
G01*
X1166840Y0092047D01*
G75*
G02*
X1166259Y0092628I0000000J0000581D01*
G01*
X1166259Y0093789D01*
G75*
G02*
X1166840Y0094370I0000581J0000000D01*
G01*
G37*
G36*
G01*
X1166840Y0090551D02*
X1168198Y0090551D01*
G75*
G02*
X1168779Y0089970I0000000J-000581D01*
G01*
X1168779Y0088809D01*
G75*
G02*
X1168198Y0088228I-000581J0000000D01*
G01*
X1166840Y0088228D01*
G75*
G02*
X1166259Y0088809I0000000J0000581D01*
G01*
X1166259Y0089970D01*
G75*
G02*
X1166840Y0090551I0000581J0000000D01*
G01*
G37*
G36*
G01*
X1143098Y0116703D02*
X1143098Y0118061D01*
G75*
G02*
X1143679Y0118642I0000581J0000000D01*
G01*
X1144840Y0118642D01*
G75*
G02*
X1145421Y0118061I0000000J-000581D01*
G01*
X1145421Y0116703D01*
G75*
G02*
X1144840Y0116122I-000581J0000000D01*
G01*
X1143679Y0116122D01*
G75*
G02*
X1143098Y0116703I0000000J0000581D01*
G01*
G37*
G36*
G01*
X1146917Y0116703D02*
X1146917Y0118061D01*
G75*
G02*
X1147498Y0118642I0000581J0000000D01*
G01*
X1148659Y0118642D01*
G75*
G02*
X1149240Y0118061I0000000J-000581D01*
G01*
X1149240Y0116703D01*
G75*
G02*
X1148659Y0116122I-000581J0000000D01*
G01*
X1147498Y0116122D01*
G75*
G02*
X1146917Y0116703I0000000J0000581D01*
G01*
G37*
D20*
X1144429Y0122445D03*
X1151909Y0122445D03*
X1148169Y0130319D03*
G36*
G01*
X1245872Y0098693D02*
X1244513Y0098693D01*
G75*
G02*
X1243933Y0099273I0000000J0000581D01*
G01*
X1243933Y0100435D01*
G75*
G02*
X1244513Y0101016I0000581J0000000D01*
G01*
X1245872Y0101016D01*
G75*
G02*
X1246452Y0100435I0000000J-000581D01*
G01*
X1246452Y0099273D01*
G75*
G02*
X1245872Y0098693I-000581J0000000D01*
G01*
G37*
G36*
G01*
X1245872Y0102512D02*
X1244513Y0102512D01*
G75*
G02*
X1243933Y0103092I0000000J0000581D01*
G01*
X1243933Y0104254D01*
G75*
G02*
X1244513Y0104834I0000581J0000000D01*
G01*
X1245872Y0104834D01*
G75*
G02*
X1246452Y0104254I0000000J-000581D01*
G01*
X1246452Y0103092D01*
G75*
G02*
X1245872Y0102512I-000581J0000000D01*
G01*
G37*
G36*
G01*
X1157524Y0132362D02*
X1159542Y0132362D01*
G75*
G02*
X1160403Y0131501I0000000J-000861D01*
G01*
X1160403Y0129778D01*
G75*
G02*
X1159542Y0128917I-000861J0000000D01*
G01*
X1157524Y0128917D01*
G75*
G02*
X1156663Y0129778I0000000J0000861D01*
G01*
X1156663Y0131501D01*
G75*
G02*
X1157524Y0132362I0000861J0000000D01*
G01*
G37*
G36*
G01*
X1157524Y0126161D02*
X1159542Y0126161D01*
G75*
G02*
X1160403Y0125300I0000000J-000861D01*
G01*
X1160403Y0123577D01*
G75*
G02*
X1159542Y0122716I-000861J0000000D01*
G01*
X1157524Y0122716D01*
G75*
G02*
X1156663Y0123577I0000000J0000861D01*
G01*
X1156663Y0125300D01*
G75*
G02*
X1157524Y0126161I0000861J0000000D01*
G01*
G37*
X1102684Y0249262D02*
G01*
G75*
D112*
X1115696Y0237845D02*
D03*
X1106444Y0241585D02*
D03*
D112*
X1115696Y0245325D02*
D03*
D99*
X1127310Y0230286D02*
D03*
X1122310Y0230286D02*
D03*
X1117310Y0230286D02*
D03*
X1112310Y0230286D02*
D03*
X1127310Y0211388D02*
D03*
X1122310Y0211388D02*
D03*
X1117310Y0211388D02*
D03*
X1112310Y0211388D02*
D03*
D113*
X1107015Y0214577D02*
D03*
X1107015Y0208357D02*
D03*
X1107015Y0222923D02*
D03*
X1107015Y0229144D02*
D03*
D114*
X1120597Y0244735D02*
D03*
X1120597Y0238435D02*
D03*
D40*
X1104554Y0234105D02*
D03*
X1137598Y0190748D02*
%LPD*%
G01*
G36*
G01*
X1206191Y0227047D02*
X1204832Y0227047D01*
G75*
G02*
X1204252Y0227628I0000000J0000581D01*
G01*
X1204252Y0228789D01*
G75*
G02*
X1204832Y0229370I0000581J0000000D01*
G01*
X1206191Y0229370D01*
G75*
G02*
X1206771Y0228789I0000000J-000581D01*
G01*
X1206771Y0227628D01*
G75*
G02*
X1206191Y0227047I-000581J0000000D01*
G01*
G37*
G36*
G01*
X1206191Y0230866D02*
X1204832Y0230866D01*
G75*
G02*
X1204252Y0231447I0000000J0000581D01*
G01*
X1204252Y0232608D01*
G75*
G02*
X1204832Y0233189I0000581J0000000D01*
G01*
X1206191Y0233189D01*
G75*
G02*
X1206771Y0232608I0000000J-000581D01*
G01*
X1206771Y0231447D01*
G75*
G02*
X1206191Y0230866I-000581J0000000D01*
G01*
G37*
G36*
G01*
X1241013Y0202390D02*
X1241013Y0201031D01*
G75*
G02*
X1240433Y0200451I-000581J0000000D01*
G01*
X1239271Y0200451D01*
G75*
G02*
X1238691Y0201031I0000000J0000581D01*
G01*
X1238691Y0202390D01*
G75*
G02*
X1239271Y0202970I0000581J0000000D01*
G01*
X1240433Y0202970D01*
G75*
G02*
X1241013Y0202390I0000000J-000581D01*
G01*
G37*
G36*
G01*
X1237194Y0202390D02*
X1237194Y0201031D01*
G75*
G02*
X1236614Y0200451I-000581J0000000D01*
G01*
X1235452Y0200451D01*
G75*
G02*
X1234872Y0201031I0000000J0000581D01*
G01*
X1234872Y0202390D01*
G75*
G02*
X1235452Y0202970I0000581J0000000D01*
G01*
X1236614Y0202970D01*
G75*
G02*
X1237194Y0202390I0000000J-000581D01*
G01*
G37*
G36*
G01*
X1243622Y0227281D02*
X1243622Y0228640D01*
G75*
G02*
X1244202Y0229220I0000581J0000000D01*
G01*
X1245364Y0229220D01*
G75*
G02*
X1245944Y0228640I0000000J-000581D01*
G01*
X1245944Y0227281D01*
G75*
G02*
X1245364Y0226701I-000581J0000000D01*
G01*
X1244202Y0226701D01*
G75*
G02*
X1243622Y0227281I0000000J0000581D01*
G01*
G37*
G36*
G01*
X1247441Y0227281D02*
X1247441Y0228640D01*
G75*
G02*
X1248021Y0229220I0000581J0000000D01*
G01*
X1249183Y0229220D01*
G75*
G02*
X1249763Y0228640I0000000J-000581D01*
G01*
X1249763Y0227281D01*
G75*
G02*
X1249183Y0226701I-000581J0000000D01*
G01*
X1248021Y0226701D01*
G75*
G02*
X1247441Y0227281I0000000J0000581D01*
G01*
G37*
G36*
G01*
X1143598Y0210900D02*
X1143598Y0212258D01*
G75*
G02*
X1144179Y0212839I0000581J0000000D01*
G01*
X1145340Y0212839D01*
G75*
G02*
X1145921Y0212258I0000000J-000581D01*
G01*
X1145921Y0210900D01*
G75*
G02*
X1145340Y0210319I-000581J0000000D01*
G01*
X1144179Y0210319D01*
G75*
G02*
X1143598Y0210900I0000000J0000581D01*
G01*
G37*
G36*
G01*
X1147417Y0210900D02*
X1147417Y0212258D01*
G75*
G02*
X1147998Y0212839I0000581J0000000D01*
G01*
X1149159Y0212839D01*
G75*
G02*
X1149740Y0212258I0000000J-000581D01*
G01*
X1149740Y0210900D01*
G75*
G02*
X1149159Y0210319I-000581J0000000D01*
G01*
X1147998Y0210319D01*
G75*
G02*
X1147417Y0210900I0000000J0000581D01*
G01*
G37*
G36*
G01*
X1157160Y0224902D02*
X1159178Y0224902D01*
G75*
G02*
X1160039Y0224040I0000000J-000861D01*
G01*
X1160039Y0222318D01*
G75*
G02*
X1159178Y0221457I-000861J0000000D01*
G01*
X1157160Y0221457D01*
G75*
G02*
X1156299Y0222318I0000000J0000861D01*
G01*
X1156299Y0224040D01*
G75*
G02*
X1157160Y0224902I0000861J0000000D01*
G01*
G37*
G36*
G01*
X1157160Y0218701D02*
X1159178Y0218701D01*
G75*
G02*
X1160039Y0217840I0000000J-000861D01*
G01*
X1160039Y0216117D01*
G75*
G02*
X1159178Y0215256I-000861J0000000D01*
G01*
X1157160Y0215256D01*
G75*
G02*
X1156299Y0216117I0000000J0000861D01*
G01*
X1156299Y0217840D01*
G75*
G02*
X1157160Y0218701I0000861J0000000D01*
G01*
G37*
G36*
G01*
X1227870Y0227952D02*
X1227870Y0229969D01*
G75*
G02*
X1228731Y0230831I0000861J0000000D01*
G01*
X1230453Y0230831D01*
G75*
G02*
X1231315Y0229969I0000000J-000861D01*
G01*
X1231315Y0227952D01*
G75*
G02*
X1230453Y0227091I-000861J0000000D01*
G01*
X1228731Y0227091D01*
G75*
G02*
X1227870Y0227952I0000000J0000861D01*
G01*
G37*
G36*
G01*
X1234070Y0227952D02*
X1234070Y0229969D01*
G75*
G02*
X1234932Y0230831I0000861J0000000D01*
G01*
X1236654Y0230831D01*
G75*
G02*
X1237515Y0229969I0000000J-000861D01*
G01*
X1237515Y0227952D01*
G75*
G02*
X1236654Y0227091I-000861J0000000D01*
G01*
X1234932Y0227091D01*
G75*
G02*
X1234070Y0227952I0000000J0000861D01*
G01*
G37*
G36*
G01*
X1233263Y0202390D02*
X1233263Y0201031D01*
G75*
G02*
X1232683Y0200451I-000581J0000000D01*
G01*
X1231521Y0200451D01*
G75*
G02*
X1230941Y0201031I0000000J0000581D01*
G01*
X1230941Y0202390D01*
G75*
G02*
X1231521Y0202970I0000581J0000000D01*
G01*
X1232683Y0202970D01*
G75*
G02*
X1233263Y0202390I0000000J-000581D01*
G01*
G37*
G36*
G01*
X1229444Y0202390D02*
X1229444Y0201031D01*
G75*
G02*
X1228864Y0200451I-000581J0000000D01*
G01*
X1227702Y0200451D01*
G75*
G02*
X1227122Y0201031I0000000J0000581D01*
G01*
X1227122Y0202390D01*
G75*
G02*
X1227702Y0202970I0000581J0000000D01*
G01*
X1228864Y0202970D01*
G75*
G02*
X1229444Y0202390I0000000J-000581D01*
G01*
G37*
G36*
G01*
X1245372Y0218890D02*
X1244013Y0218890D01*
G75*
G02*
X1243433Y0219470I0000000J0000581D01*
G01*
X1243433Y0220632D01*
G75*
G02*
X1244013Y0221213I0000581J0000000D01*
G01*
X1245372Y0221213D01*
G75*
G02*
X1245952Y0220632I0000000J-000581D01*
G01*
X1245952Y0219470D01*
G75*
G02*
X1245372Y0218890I-000581J0000000D01*
G01*
G37*
G36*
G01*
X1245372Y0222709D02*
X1244013Y0222709D01*
G75*
G02*
X1243433Y0223289I0000000J0000581D01*
G01*
X1243433Y0224451D01*
G75*
G02*
X1244013Y0225031I0000581J0000000D01*
G01*
X1245372Y0225031D01*
G75*
G02*
X1245952Y0224451I0000000J-000581D01*
G01*
X1245952Y0223289D01*
G75*
G02*
X1245372Y0222709I-000581J0000000D01*
G01*
G37*
G36*
G01*
X1239084Y0240866D02*
X1240442Y0240866D01*
G75*
G02*
X1241023Y0240285I0000000J-000581D01*
G01*
X1241023Y0239124D01*
G75*
G02*
X1240442Y0238543I-000581J0000000D01*
G01*
X1239084Y0238543D01*
G75*
G02*
X1238504Y0239124I0000000J0000581D01*
G01*
X1238504Y0240285D01*
G75*
G02*
X1239084Y0240866I0000581J0000000D01*
G01*
G37*
G36*
G01*
X1239084Y0237047D02*
X1240442Y0237047D01*
G75*
G02*
X1241023Y0236467I0000000J-000581D01*
G01*
X1241023Y0235305D01*
G75*
G02*
X1240442Y0234724I-000581J0000000D01*
G01*
X1239084Y0234724D01*
G75*
G02*
X1238504Y0235305I0000000J0000581D01*
G01*
X1238504Y0236467D01*
G75*
G02*
X1239084Y0237047I0000581J0000000D01*
G01*
G37*
G36*
G01*
X1234527Y0244203D02*
X1234527Y0245561D01*
G75*
G02*
X1235108Y0246142I0000581J0000000D01*
G01*
X1236269Y0246142D01*
G75*
G02*
X1236850Y0245561I0000000J-000581D01*
G01*
X1236850Y0244203D01*
G75*
G02*
X1236269Y0243622I-000581J0000000D01*
G01*
X1235108Y0243622D01*
G75*
G02*
X1234527Y0244203I0000000J0000581D01*
G01*
G37*
G36*
G01*
X1238346Y0244203D02*
X1238346Y0245561D01*
G75*
G02*
X1238927Y0246142I0000581J0000000D01*
G01*
X1240088Y0246142D01*
G75*
G02*
X1240669Y0245561I0000000J-000581D01*
G01*
X1240669Y0244203D01*
G75*
G02*
X1240088Y0243622I-000581J0000000D01*
G01*
X1238927Y0243622D01*
G75*
G02*
X1238346Y0244203I0000000J0000581D01*
G01*
G37*
G36*
G01*
X1209724Y0245384D02*
X1209724Y0246742D01*
G75*
G02*
X1210305Y0247323I0000581J0000000D01*
G01*
X1211466Y0247323D01*
G75*
G02*
X1212047Y0246742I0000000J-000581D01*
G01*
X1212047Y0245384D01*
G75*
G02*
X1211466Y0244803I-000581J0000000D01*
G01*
X1210305Y0244803D01*
G75*
G02*
X1209724Y0245384I0000000J0000581D01*
G01*
G37*
G36*
G01*
X1213543Y0245384D02*
X1213543Y0246742D01*
G75*
G02*
X1214124Y0247323I0000581J0000000D01*
G01*
X1215285Y0247323D01*
G75*
G02*
X1215866Y0246742I0000000J-000581D01*
G01*
X1215866Y0245384D01*
G75*
G02*
X1215285Y0244803I-000581J0000000D01*
G01*
X1214124Y0244803D01*
G75*
G02*
X1213543Y0245384I0000000J0000581D01*
G01*
G37*
G36*
G01*
X1225513Y0202390D02*
X1225513Y0201031D01*
G75*
G02*
X1224933Y0200451I-000581J0000000D01*
G01*
X1223771Y0200451D01*
G75*
G02*
X1223191Y0201031I0000000J0000581D01*
G01*
X1223191Y0202390D01*
G75*
G02*
X1223771Y0202970I0000581J0000000D01*
G01*
X1224933Y0202970D01*
G75*
G02*
X1225513Y0202390I0000000J-000581D01*
G01*
G37*
G36*
G01*
X1221694Y0202390D02*
X1221694Y0201031D01*
G75*
G02*
X1221114Y0200451I-000581J0000000D01*
G01*
X1219952Y0200451D01*
G75*
G02*
X1219372Y0201031I0000000J0000581D01*
G01*
X1219372Y0202390D01*
G75*
G02*
X1219952Y0202970I0000581J0000000D01*
G01*
X1221114Y0202970D01*
G75*
G02*
X1221694Y0202390I0000000J-000581D01*
G01*
G37*
G36*
G01*
X1217763Y0202390D02*
X1217763Y0201031D01*
G75*
G02*
X1217183Y0200451I-000581J0000000D01*
G01*
X1216021Y0200451D01*
G75*
G02*
X1215441Y0201031I0000000J0000581D01*
G01*
X1215441Y0202390D01*
G75*
G02*
X1216021Y0202970I0000581J0000000D01*
G01*
X1217183Y0202970D01*
G75*
G02*
X1217763Y0202390I0000000J-000581D01*
G01*
G37*
G36*
G01*
X1213944Y0202390D02*
X1213944Y0201031D01*
G75*
G02*
X1213364Y0200451I-000581J0000000D01*
G01*
X1212202Y0200451D01*
G75*
G02*
X1211622Y0201031I0000000J0000581D01*
G01*
X1211622Y0202390D01*
G75*
G02*
X1212202Y0202970I0000581J0000000D01*
G01*
X1213364Y0202970D01*
G75*
G02*
X1213944Y0202390I0000000J-000581D01*
G01*
G37*
G36*
G01*
X1241372Y0226890D02*
X1240013Y0226890D01*
G75*
G02*
X1239433Y0227470I0000000J0000581D01*
G01*
X1239433Y0228632D01*
G75*
G02*
X1240013Y0229213I0000581J0000000D01*
G01*
X1241372Y0229213D01*
G75*
G02*
X1241952Y0228632I0000000J-000581D01*
G01*
X1241952Y0227470D01*
G75*
G02*
X1241372Y0226890I-000581J0000000D01*
G01*
G37*
G36*
G01*
X1241372Y0230709D02*
X1240013Y0230709D01*
G75*
G02*
X1239433Y0231289I0000000J0000581D01*
G01*
X1239433Y0232451D01*
G75*
G02*
X1240013Y0233031I0000581J0000000D01*
G01*
X1241372Y0233031D01*
G75*
G02*
X1241952Y0232451I0000000J-000581D01*
G01*
X1241952Y0231289D01*
G75*
G02*
X1241372Y0230709I-000581J0000000D01*
G01*
G37*
D32*
X1151606Y0216939D03*
X1151606Y0224419D03*
X1143732Y0220679D03*
D37*
X1215078Y0222638D03*
X1215078Y0220079D03*
X1215078Y0217520D03*
X1215078Y0214961D03*
X1215078Y0212402D03*
X1215078Y0209842D03*
X1215078Y0207283D03*
X1238307Y0207283D03*
X1238307Y0209842D03*
X1238307Y0212402D03*
X1238307Y0214961D03*
X1238307Y0217520D03*
X1238307Y0220079D03*
X1238307Y0222638D03*
G36*
G01*
X1249372Y0218890D02*
X1248013Y0218890D01*
G75*
G02*
X1247433Y0219470I0000000J0000581D01*
G01*
X1247433Y0220632D01*
G75*
G02*
X1248013Y0221213I0000581J0000000D01*
G01*
X1249372Y0221213D01*
G75*
G02*
X1249952Y0220632I0000000J-000581D01*
G01*
X1249952Y0219470D01*
G75*
G02*
X1249372Y0218890I-000581J0000000D01*
G01*
G37*
G36*
G01*
X1249372Y0222709D02*
X1248013Y0222709D01*
G75*
G02*
X1247433Y0223289I0000000J0000581D01*
G01*
X1247433Y0224451D01*
G75*
G02*
X1248013Y0225031I0000581J0000000D01*
G01*
X1249372Y0225031D01*
G75*
G02*
X1249952Y0224451I0000000J-000581D01*
G01*
X1249952Y0223289D01*
G75*
G02*
X1249372Y0222709I-000581J0000000D01*
G01*
G37*
G36*
G01*
X1202244Y0241644D02*
X1202244Y0243002D01*
G75*
G02*
X1202824Y0243583I0000581J0000000D01*
G01*
X1203986Y0243583D01*
G75*
G02*
X1204567Y0243002I0000000J-000581D01*
G01*
X1204567Y0241644D01*
G75*
G02*
X1203986Y0241063I-000581J0000000D01*
G01*
X1202824Y0241063D01*
G75*
G02*
X1202244Y0241644I0000000J0000581D01*
G01*
G37*
G36*
G01*
X1206063Y0241644D02*
X1206063Y0243002D01*
G75*
G02*
X1206643Y0243583I0000581J0000000D01*
G01*
X1207805Y0243583D01*
G75*
G02*
X1208385Y0243002I0000000J-000581D01*
G01*
X1208385Y0241644D01*
G75*
G02*
X1207805Y0241063I-000581J0000000D01*
G01*
X1206643Y0241063D01*
G75*
G02*
X1206063Y0241644I0000000J0000581D01*
G01*
G37*
G36*
G01*
X1208385Y0246742D02*
X1208385Y0245384D01*
G75*
G02*
X1207805Y0244803I-000581J0000000D01*
G01*
X1206643Y0244803D01*
G75*
G02*
X1206063Y0245384I0000000J0000581D01*
G01*
X1206063Y0246742D01*
G75*
G02*
X1206643Y0247323I0000581J0000000D01*
G01*
X1207805Y0247323D01*
G75*
G02*
X1208385Y0246742I0000000J-000581D01*
G01*
G37*
G36*
G01*
X1204567Y0246742D02*
X1204567Y0245384D01*
G75*
G02*
X1203986Y0244803I-000581J0000000D01*
G01*
X1202824Y0244803D01*
G75*
G02*
X1202244Y0245384I0000000J0000581D01*
G01*
X1202244Y0246742D01*
G75*
G02*
X1202824Y0247323I0000581J0000000D01*
G01*
X1203986Y0247323D01*
G75*
G02*
X1204567Y0246742I0000000J-000581D01*
G01*
G37*
G36*
G01*
X1204832Y0225709D02*
X1206191Y0225709D01*
G75*
G02*
X1206771Y0225128I0000000J-000581D01*
G01*
X1206771Y0223967D01*
G75*
G02*
X1206191Y0223386I-000581J0000000D01*
G01*
X1204832Y0223386D01*
G75*
G02*
X1204252Y0223967I0000000J0000581D01*
G01*
X1204252Y0225128D01*
G75*
G02*
X1204832Y0225709I0000581J0000000D01*
G01*
G37*
G36*
G01*
X1204832Y0221890D02*
X1206191Y0221890D01*
G75*
G02*
X1206771Y0221309I0000000J-000581D01*
G01*
X1206771Y0220148D01*
G75*
G02*
X1206191Y0219567I-000581J0000000D01*
G01*
X1204832Y0219567D01*
G75*
G02*
X1204252Y0220148I0000000J0000581D01*
G01*
X1204252Y0221309D01*
G75*
G02*
X1204832Y0221890I0000581J0000000D01*
G01*
G37*
G36*
G01*
X1251269Y0235905D02*
X1249911Y0235905D01*
G75*
G02*
X1249330Y0236486I0000000J0000581D01*
G01*
X1249330Y0237648D01*
G75*
G02*
X1249911Y0238228I0000581J0000000D01*
G01*
X1251269Y0238228D01*
G75*
G02*
X1251850Y0237648I0000000J-000581D01*
G01*
X1251850Y0236486D01*
G75*
G02*
X1251269Y0235905I-000581J0000000D01*
G01*
G37*
G36*
G01*
X1251269Y0239724D02*
X1249911Y0239724D01*
G75*
G02*
X1249330Y0240305I0000000J0000581D01*
G01*
X1249330Y0241467D01*
G75*
G02*
X1249911Y0242047I0000581J0000000D01*
G01*
X1251269Y0242047D01*
G75*
G02*
X1251850Y0241467I0000000J-000581D01*
G01*
X1251850Y0240305D01*
G75*
G02*
X1251269Y0239724I-000581J0000000D01*
G01*
G37*
G36*
G01*
X1176712Y0245384D02*
X1176712Y0246742D01*
G75*
G02*
X1177293Y0247323I0000581J0000000D01*
G01*
X1178454Y0247323D01*
G75*
G02*
X1179035Y0246742I0000000J-000581D01*
G01*
X1179035Y0245384D01*
G75*
G02*
X1178454Y0244803I-000581J0000000D01*
G01*
X1177293Y0244803D01*
G75*
G02*
X1176712Y0245384I0000000J0000581D01*
G01*
G37*
G36*
G01*
X1180531Y0245384D02*
X1180531Y0246742D01*
G75*
G02*
X1181112Y0247323I0000581J0000000D01*
G01*
X1182273Y0247323D01*
G75*
G02*
X1182854Y0246742I0000000J-000581D01*
G01*
X1182854Y0245384D01*
G75*
G02*
X1182273Y0244803I-000581J0000000D01*
G01*
X1181112Y0244803D01*
G75*
G02*
X1180531Y0245384I0000000J0000581D01*
G01*
G37*
G36*
G01*
X1200108Y0209567D02*
X1201466Y0209567D01*
G75*
G02*
X1202047Y0208986I0000000J-000581D01*
G01*
X1202047Y0207825D01*
G75*
G02*
X1201466Y0207244I-000581J0000000D01*
G01*
X1200108Y0207244D01*
G75*
G02*
X1199527Y0207825I0000000J0000581D01*
G01*
X1199527Y0208986D01*
G75*
G02*
X1200108Y0209567I0000581J0000000D01*
G01*
G37*
G36*
G01*
X1200108Y0205748D02*
X1201466Y0205748D01*
G75*
G02*
X1202047Y0205167I0000000J-000581D01*
G01*
X1202047Y0204006D01*
G75*
G02*
X1201466Y0203425I-000581J0000000D01*
G01*
X1200108Y0203425D01*
G75*
G02*
X1199527Y0204006I0000000J0000581D01*
G01*
X1199527Y0205167D01*
G75*
G02*
X1200108Y0205748I0000581J0000000D01*
G01*
G37*
G36*
G01*
X1165639Y0238661D02*
X1164281Y0238661D01*
G75*
G02*
X1163700Y0239242I0000000J0000581D01*
G01*
X1163700Y0240404D01*
G75*
G02*
X1164281Y0240984I0000581J0000000D01*
G01*
X1165639Y0240984D01*
G75*
G02*
X1166220Y0240404I0000000J-000581D01*
G01*
X1166220Y0239242D01*
G75*
G02*
X1165639Y0238661I-000581J0000000D01*
G01*
G37*
G36*
G01*
X1165639Y0242480D02*
X1164281Y0242480D01*
G75*
G02*
X1163700Y0243061I0000000J0000581D01*
G01*
X1163700Y0244222D01*
G75*
G02*
X1164281Y0244803I0000581J0000000D01*
G01*
X1165639Y0244803D01*
G75*
G02*
X1166220Y0244222I0000000J-000581D01*
G01*
X1166220Y0243061D01*
G75*
G02*
X1165639Y0242480I-000581J0000000D01*
G01*
G37*
D36*
X1257362Y0231693D03*
X1275315Y0231693D03*
D39*
X1260334Y0200295D03*
X1272342Y0200295D03*
X1260334Y0213484D03*
X1272342Y0213484D03*
G36*
G01*
X1244114Y0197746D02*
X1244114Y0199104D01*
G75*
G02*
X1244694Y0199685I0000581J0000000D01*
G01*
X1245856Y0199685D01*
G75*
G02*
X1246437Y0199104I0000000J-000581D01*
G01*
X1246437Y0197746D01*
G75*
G02*
X1245856Y0197165I-000581J0000000D01*
G01*
X1244694Y0197165D01*
G75*
G02*
X1244114Y0197746I0000000J0000581D01*
G01*
G37*
G36*
G01*
X1247933Y0197746D02*
X1247933Y0199104D01*
G75*
G02*
X1248513Y0199685I0000581J0000000D01*
G01*
X1249675Y0199685D01*
G75*
G02*
X1250255Y0199104I0000000J-000581D01*
G01*
X1250255Y0197746D01*
G75*
G02*
X1249675Y0197165I-000581J0000000D01*
G01*
X1248513Y0197165D01*
G75*
G02*
X1247933Y0197746I0000000J0000581D01*
G01*
G37*
G36*
G01*
X1205994Y0203425D02*
X1204635Y0203425D01*
G75*
G02*
X1204055Y0204006I0000000J0000581D01*
G01*
X1204055Y0205167D01*
G75*
G02*
X1204635Y0205748I0000581J0000000D01*
G01*
X1205994Y0205748D01*
G75*
G02*
X1206574Y0205167I0000000J-000581D01*
G01*
X1206574Y0204006D01*
G75*
G02*
X1205994Y0203425I-000581J0000000D01*
G01*
G37*
G36*
G01*
X1205994Y0207244D02*
X1204635Y0207244D01*
G75*
G02*
X1204055Y0207825I0000000J0000581D01*
G01*
X1204055Y0208986D01*
G75*
G02*
X1204635Y0209567I0000581J0000000D01*
G01*
X1205994Y0209567D01*
G75*
G02*
X1206574Y0208986I0000000J-000581D01*
G01*
X1206574Y0207825D01*
G75*
G02*
X1205994Y0207244I-000581J0000000D01*
G01*
G37*
G36*
G01*
X1242342Y0244006D02*
X1242342Y0245364D01*
G75*
G02*
X1242923Y0245945I0000581J0000000D01*
G01*
X1244084Y0245945D01*
G75*
G02*
X1244665Y0245364I0000000J-000581D01*
G01*
X1244665Y0244006D01*
G75*
G02*
X1244084Y0243425I-000581J0000000D01*
G01*
X1242923Y0243425D01*
G75*
G02*
X1242342Y0244006I0000000J0000581D01*
G01*
G37*
G36*
G01*
X1246161Y0244006D02*
X1246161Y0245364D01*
G75*
G02*
X1246742Y0245945I0000581J0000000D01*
G01*
X1247903Y0245945D01*
G75*
G02*
X1248484Y0245364I0000000J-000581D01*
G01*
X1248484Y0244006D01*
G75*
G02*
X1247903Y0243425I-000581J0000000D01*
G01*
X1246742Y0243425D01*
G75*
G02*
X1246161Y0244006I0000000J0000581D01*
G01*
G37*
G36*
G01*
X1208513Y0210531D02*
X1209872Y0210531D01*
G75*
G02*
X1210452Y0209951I0000000J-000581D01*
G01*
X1210452Y0208789D01*
G75*
G02*
X1209872Y0208209I-000581J0000000D01*
G01*
X1208513Y0208209D01*
G75*
G02*
X1207933Y0208789I0000000J0000581D01*
G01*
X1207933Y0209951D01*
G75*
G02*
X1208513Y0210531I0000581J0000000D01*
G01*
G37*
G36*
G01*
X1208513Y0206713D02*
X1209872Y0206713D01*
G75*
G02*
X1210452Y0206132I0000000J-000581D01*
G01*
X1210452Y0204970D01*
G75*
G02*
X1209872Y0204390I-000581J0000000D01*
G01*
X1208513Y0204390D01*
G75*
G02*
X1207933Y0204970I0000000J0000581D01*
G01*
X1207933Y0206132D01*
G75*
G02*
X1208513Y0206713I0000581J0000000D01*
G01*
G37*
G36*
G01*
X1154409Y0210935D02*
X1154409Y0212293D01*
G75*
G02*
X1154990Y0212874I0000581J0000000D01*
G01*
X1156151Y0212874D01*
G75*
G02*
X1156732Y0212293I0000000J-000581D01*
G01*
X1156732Y0210935D01*
G75*
G02*
X1156151Y0210354I-000581J0000000D01*
G01*
X1154990Y0210354D01*
G75*
G02*
X1154409Y0210935I0000000J0000581D01*
G01*
G37*
G36*
G01*
X1158228Y0210935D02*
X1158228Y0212293D01*
G75*
G02*
X1158809Y0212874I0000581J0000000D01*
G01*
X1159970Y0212874D01*
G75*
G02*
X1160551Y0212293I0000000J-000581D01*
G01*
X1160551Y0210935D01*
G75*
G02*
X1159970Y0210354I-000581J0000000D01*
G01*
X1158809Y0210354D01*
G75*
G02*
X1158228Y0210935I0000000J0000581D01*
G01*
G37*
G36*
G01*
X1193515Y0200969D02*
X1193515Y0198952D01*
G75*
G02*
X1192654Y0198091I-000861J0000000D01*
G01*
X1190932Y0198091D01*
G75*
G02*
X1190070Y0198952I0000000J0000861D01*
G01*
X1190070Y0200969D01*
G75*
G02*
X1190932Y0201831I0000861J0000000D01*
G01*
X1192654Y0201831D01*
G75*
G02*
X1193515Y0200969I0000000J-000861D01*
G01*
G37*
G36*
G01*
X1187315Y0200969D02*
X1187315Y0198952D01*
G75*
G02*
X1186453Y0198091I-000861J0000000D01*
G01*
X1184731Y0198091D01*
G75*
G02*
X1183870Y0198952I0000000J0000861D01*
G01*
X1183870Y0200969D01*
G75*
G02*
X1184731Y0201831I0000861J0000000D01*
G01*
X1186453Y0201831D01*
G75*
G02*
X1187315Y0200969I0000000J-000861D01*
G01*
G37*
G36*
G01*
X1201763Y0200640D02*
X1201763Y0199281D01*
G75*
G02*
X1201183Y0198701I-000581J0000000D01*
G01*
X1200021Y0198701D01*
G75*
G02*
X1199441Y0199281I0000000J0000581D01*
G01*
X1199441Y0200640D01*
G75*
G02*
X1200021Y0201220I0000581J0000000D01*
G01*
X1201183Y0201220D01*
G75*
G02*
X1201763Y0200640I0000000J-000581D01*
G01*
G37*
G36*
G01*
X1197944Y0200640D02*
X1197944Y0199281D01*
G75*
G02*
X1197364Y0198701I-000581J0000000D01*
G01*
X1196202Y0198701D01*
G75*
G02*
X1195622Y0199281I0000000J0000581D01*
G01*
X1195622Y0200640D01*
G75*
G02*
X1196202Y0201220I0000581J0000000D01*
G01*
X1197364Y0201220D01*
G75*
G02*
X1197944Y0200640I0000000J-000581D01*
G01*
G37*
G36*
G01*
X1214263Y0228640D02*
X1214263Y0227281D01*
G75*
G02*
X1213683Y0226701I-000581J0000000D01*
G01*
X1212521Y0226701D01*
G75*
G02*
X1211941Y0227281I0000000J0000581D01*
G01*
X1211941Y0228640D01*
G75*
G02*
X1212521Y0229220I0000581J0000000D01*
G01*
X1213683Y0229220D01*
G75*
G02*
X1214263Y0228640I0000000J-000581D01*
G01*
G37*
G36*
G01*
X1210444Y0228640D02*
X1210444Y0227281D01*
G75*
G02*
X1209864Y0226701I-000581J0000000D01*
G01*
X1208702Y0226701D01*
G75*
G02*
X1208122Y0227281I0000000J0000581D01*
G01*
X1208122Y0228640D01*
G75*
G02*
X1208702Y0229220I0000581J0000000D01*
G01*
X1209864Y0229220D01*
G75*
G02*
X1210444Y0228640I0000000J-000581D01*
G01*
G37*
G36*
G01*
X1220013Y0233031D02*
X1221372Y0233031D01*
G75*
G02*
X1221952Y0232451I0000000J-000581D01*
G01*
X1221952Y0231289D01*
G75*
G02*
X1221372Y0230709I-000581J0000000D01*
G01*
X1220013Y0230709D01*
G75*
G02*
X1219433Y0231289I0000000J0000581D01*
G01*
X1219433Y0232451D01*
G75*
G02*
X1220013Y0233031I0000581J0000000D01*
G01*
G37*
G36*
G01*
X1220013Y0229213D02*
X1221372Y0229213D01*
G75*
G02*
X1221952Y0228632I0000000J-000581D01*
G01*
X1221952Y0227470D01*
G75*
G02*
X1221372Y0226890I-000581J0000000D01*
G01*
X1220013Y0226890D01*
G75*
G02*
X1219433Y0227470I0000000J0000581D01*
G01*
X1219433Y0228632D01*
G75*
G02*
X1220013Y0229213I0000581J0000000D01*
G01*
G37*
G36*
G01*
X1216250Y0233031D02*
X1217608Y0233031D01*
G75*
G02*
X1218189Y0232451I0000000J-000581D01*
G01*
X1218189Y0231289D01*
G75*
G02*
X1217608Y0230709I-000581J0000000D01*
G01*
X1216250Y0230709D01*
G75*
G02*
X1215669Y0231289I0000000J0000581D01*
G01*
X1215669Y0232451D01*
G75*
G02*
X1216250Y0233031I0000581J0000000D01*
G01*
G37*
G36*
G01*
X1216250Y0229213D02*
X1217608Y0229213D01*
G75*
G02*
X1218189Y0228632I0000000J-000581D01*
G01*
X1218189Y0227470D01*
G75*
G02*
X1217608Y0226890I-000581J0000000D01*
G01*
X1216250Y0226890D01*
G75*
G02*
X1215669Y0227470I0000000J0000581D01*
G01*
X1215669Y0228632D01*
G75*
G02*
X1216250Y0229213I0000581J0000000D01*
G01*
G37*
G36*
G01*
X1214263Y0232640D02*
X1214263Y0231281D01*
G75*
G02*
X1213683Y0230701I-000581J0000000D01*
G01*
X1212521Y0230701D01*
G75*
G02*
X1211941Y0231281I0000000J0000581D01*
G01*
X1211941Y0232640D01*
G75*
G02*
X1212521Y0233220I0000581J0000000D01*
G01*
X1213683Y0233220D01*
G75*
G02*
X1214263Y0232640I0000000J-000581D01*
G01*
G37*
G36*
G01*
X1210444Y0232640D02*
X1210444Y0231281D01*
G75*
G02*
X1209864Y0230701I-000581J0000000D01*
G01*
X1208702Y0230701D01*
G75*
G02*
X1208122Y0231281I0000000J0000581D01*
G01*
X1208122Y0232640D01*
G75*
G02*
X1208702Y0233220I0000581J0000000D01*
G01*
X1209864Y0233220D01*
G75*
G02*
X1210444Y0232640I0000000J-000581D01*
G01*
G37*
D53*
X1230354Y0237205D03*
X1230354Y0240945D03*
X1230354Y0244685D03*
X1220039Y0244685D03*
X1220039Y0237205D03*
G36*
G01*
X1224013Y0233031D02*
X1225372Y0233031D01*
G75*
G02*
X1225952Y0232451I0000000J-000581D01*
G01*
X1225952Y0231289D01*
G75*
G02*
X1225372Y0230709I-000581J0000000D01*
G01*
X1224013Y0230709D01*
G75*
G02*
X1223433Y0231289I0000000J0000581D01*
G01*
X1223433Y0232451D01*
G75*
G02*
X1224013Y0233031I0000581J0000000D01*
G01*
G37*
G36*
G01*
X1224013Y0229213D02*
X1225372Y0229213D01*
G75*
G02*
X1225952Y0228632I0000000J-000581D01*
G01*
X1225952Y0227470D01*
G75*
G02*
X1225372Y0226890I-000581J0000000D01*
G01*
X1224013Y0226890D01*
G75*
G02*
X1223433Y0227470I0000000J0000581D01*
G01*
X1223433Y0228632D01*
G75*
G02*
X1224013Y0229213I0000581J0000000D01*
G01*
G37*
G36*
G01*
X1235147Y0240079D02*
X1236505Y0240079D01*
G75*
G02*
X1237086Y0239498I0000000J-000581D01*
G01*
X1237086Y0238337D01*
G75*
G02*
X1236505Y0237756I-000581J0000000D01*
G01*
X1235147Y0237756D01*
G75*
G02*
X1234567Y0238337I0000000J0000581D01*
G01*
X1234567Y0239498D01*
G75*
G02*
X1235147Y0240079I0000581J0000000D01*
G01*
G37*
G36*
G01*
X1235147Y0236260D02*
X1236505Y0236260D01*
G75*
G02*
X1237086Y0235679I0000000J-000581D01*
G01*
X1237086Y0234518D01*
G75*
G02*
X1236505Y0233937I-000581J0000000D01*
G01*
X1235147Y0233937D01*
G75*
G02*
X1234567Y0234518I0000000J0000581D01*
G01*
X1234567Y0235679D01*
G75*
G02*
X1235147Y0236260I0000581J0000000D01*
G01*
G37*
G36*
G01*
X1248513Y0217531D02*
X1249872Y0217531D01*
G75*
G02*
X1250452Y0216951I0000000J-000581D01*
G01*
X1250452Y0215789D01*
G75*
G02*
X1249872Y0215209I-000581J0000000D01*
G01*
X1248513Y0215209D01*
G75*
G02*
X1247933Y0215789I0000000J0000581D01*
G01*
X1247933Y0216951D01*
G75*
G02*
X1248513Y0217531I0000581J0000000D01*
G01*
G37*
G36*
G01*
X1248513Y0213713D02*
X1249872Y0213713D01*
G75*
G02*
X1250452Y0213132I0000000J-000581D01*
G01*
X1250452Y0211970D01*
G75*
G02*
X1249872Y0211390I-000581J0000000D01*
G01*
X1248513Y0211390D01*
G75*
G02*
X1247933Y0211970I0000000J0000581D01*
G01*
X1247933Y0213132D01*
G75*
G02*
X1248513Y0213713I0000581J0000000D01*
G01*
G37*
G36*
G01*
X1246701Y0231138D02*
X1244684Y0231138D01*
G75*
G02*
X1243822Y0231999I0000000J0000861D01*
G01*
X1243822Y0233721D01*
G75*
G02*
X1244684Y0234583I0000861J0000000D01*
G01*
X1246701Y0234583D01*
G75*
G02*
X1247563Y0233721I0000000J-000861D01*
G01*
X1247563Y0231999D01*
G75*
G02*
X1246701Y0231138I-000861J0000000D01*
G01*
G37*
G36*
G01*
X1246701Y0237339D02*
X1244684Y0237339D01*
G75*
G02*
X1243822Y0238200I0000000J0000861D01*
G01*
X1243822Y0239922D01*
G75*
G02*
X1244684Y0240783I0000861J0000000D01*
G01*
X1246701Y0240783D01*
G75*
G02*
X1247563Y0239922I0000000J-000861D01*
G01*
X1247563Y0238200D01*
G75*
G02*
X1246701Y0237339I-000861J0000000D01*
G01*
G37*
G36*
G01*
X1244114Y0206014D02*
X1244114Y0207372D01*
G75*
G02*
X1244694Y0207953I0000581J0000000D01*
G01*
X1245856Y0207953D01*
G75*
G02*
X1246437Y0207372I0000000J-000581D01*
G01*
X1246437Y0206014D01*
G75*
G02*
X1245856Y0205433I-000581J0000000D01*
G01*
X1244694Y0205433D01*
G75*
G02*
X1244114Y0206014I0000000J0000581D01*
G01*
G37*
G36*
G01*
X1247933Y0206014D02*
X1247933Y0207372D01*
G75*
G02*
X1248513Y0207953I0000581J0000000D01*
G01*
X1249675Y0207953D01*
G75*
G02*
X1250255Y0207372I0000000J-000581D01*
G01*
X1250255Y0206014D01*
G75*
G02*
X1249675Y0205433I-000581J0000000D01*
G01*
X1248513Y0205433D01*
G75*
G02*
X1247933Y0206014I0000000J0000581D01*
G01*
G37*
G36*
G01*
X1250255Y0203238D02*
X1250255Y0201880D01*
G75*
G02*
X1249675Y0201299I-000581J0000000D01*
G01*
X1248513Y0201299D01*
G75*
G02*
X1247933Y0201880I0000000J0000581D01*
G01*
X1247933Y0203238D01*
G75*
G02*
X1248513Y0203819I0000581J0000000D01*
G01*
X1249675Y0203819D01*
G75*
G02*
X1250255Y0203238I0000000J-000581D01*
G01*
G37*
G36*
G01*
X1246437Y0203238D02*
X1246437Y0201880D01*
G75*
G02*
X1245856Y0201299I-000581J0000000D01*
G01*
X1244694Y0201299D01*
G75*
G02*
X1244114Y0201880I0000000J0000581D01*
G01*
X1244114Y0203238D01*
G75*
G02*
X1244694Y0203819I0000581J0000000D01*
G01*
X1245856Y0203819D01*
G75*
G02*
X1246437Y0203238I0000000J-000581D01*
G01*
G37*
G36*
G01*
X1171870Y0198952D02*
X1171870Y0200969D01*
G75*
G02*
X1172731Y0201831I0000861J0000000D01*
G01*
X1174453Y0201831D01*
G75*
G02*
X1175315Y0200969I0000000J-000861D01*
G01*
X1175315Y0198952D01*
G75*
G02*
X1174453Y0198091I-000861J0000000D01*
G01*
X1172731Y0198091D01*
G75*
G02*
X1171870Y0198952I0000000J0000861D01*
G01*
G37*
G36*
G01*
X1178070Y0198952D02*
X1178070Y0200969D01*
G75*
G02*
X1178932Y0201831I0000861J0000000D01*
G01*
X1180654Y0201831D01*
G75*
G02*
X1181515Y0200969I0000000J-000861D01*
G01*
X1181515Y0198952D01*
G75*
G02*
X1180654Y0198091I-000861J0000000D01*
G01*
X1178932Y0198091D01*
G75*
G02*
X1178070Y0198952I0000000J0000861D01*
G01*
G37*
G36*
G01*
X1168641Y0194400D02*
X1168641Y0195758D01*
G75*
G02*
X1169222Y0196339I0000581J0000000D01*
G01*
X1170383Y0196339D01*
G75*
G02*
X1170964Y0195758I0000000J-000581D01*
G01*
X1170964Y0194400D01*
G75*
G02*
X1170383Y0193819I-000581J0000000D01*
G01*
X1169222Y0193819D01*
G75*
G02*
X1168641Y0194400I0000000J0000581D01*
G01*
G37*
G36*
G01*
X1172460Y0194400D02*
X1172460Y0195758D01*
G75*
G02*
X1173041Y0196339I0000581J0000000D01*
G01*
X1174202Y0196339D01*
G75*
G02*
X1174783Y0195758I0000000J-000581D01*
G01*
X1174783Y0194400D01*
G75*
G02*
X1174202Y0193819I-000581J0000000D01*
G01*
X1173041Y0193819D01*
G75*
G02*
X1172460Y0194400I0000000J0000581D01*
G01*
G37*
G36*
G01*
X1215866Y0236506D02*
X1215866Y0235148D01*
G75*
G02*
X1215285Y0234567I-000581J0000000D01*
G01*
X1214124Y0234567D01*
G75*
G02*
X1213543Y0235148I0000000J0000581D01*
G01*
X1213543Y0236506D01*
G75*
G02*
X1214124Y0237087I0000581J0000000D01*
G01*
X1215285Y0237087D01*
G75*
G02*
X1215866Y0236506I0000000J-000581D01*
G01*
G37*
G36*
G01*
X1212047Y0236506D02*
X1212047Y0235148D01*
G75*
G02*
X1211466Y0234567I-000581J0000000D01*
G01*
X1210305Y0234567D01*
G75*
G02*
X1209724Y0235148I0000000J0000581D01*
G01*
X1209724Y0236506D01*
G75*
G02*
X1210305Y0237087I0000581J0000000D01*
G01*
X1211466Y0237087D01*
G75*
G02*
X1212047Y0236506I0000000J-000581D01*
G01*
G37*
G36*
G01*
X1202460Y0212894D02*
X1202460Y0211909D01*
G75*
G02*
X1201968Y0211417I-000492J0000000D01*
G01*
X1197047Y0211417D01*
G75*
G02*
X1196555Y0211909I0000000J0000492D01*
G01*
X1196555Y0212894D01*
G75*
G02*
X1197047Y0213386I0000492J0000000D01*
G01*
X1201968Y0213386D01*
G75*
G02*
X1202460Y0212894I0000000J-000492D01*
G01*
G37*
G36*
G01*
X1202460Y0216043D02*
X1202460Y0215059D01*
G75*
G02*
X1201968Y0214567I-000492J0000000D01*
G01*
X1197047Y0214567D01*
G75*
G02*
X1196555Y0215059I0000000J0000492D01*
G01*
X1196555Y0216043D01*
G75*
G02*
X1197047Y0216535I0000492J0000000D01*
G01*
X1201968Y0216535D01*
G75*
G02*
X1202460Y0216043I0000000J-000492D01*
G01*
G37*
G36*
G01*
X1202460Y0219193D02*
X1202460Y0218209D01*
G75*
G02*
X1201968Y0217717I-000492J0000000D01*
G01*
X1197047Y0217717D01*
G75*
G02*
X1196555Y0218209I0000000J0000492D01*
G01*
X1196555Y0219193D01*
G75*
G02*
X1197047Y0219685I0000492J0000000D01*
G01*
X1201968Y0219685D01*
G75*
G02*
X1202460Y0219193I0000000J-000492D01*
G01*
G37*
G36*
G01*
X1202460Y0222342D02*
X1202460Y0221358D01*
G75*
G02*
X1201968Y0220866I-000492J0000000D01*
G01*
X1197047Y0220866D01*
G75*
G02*
X1196555Y0221358I0000000J0000492D01*
G01*
X1196555Y0222342D01*
G75*
G02*
X1197047Y0222835I0000492J0000000D01*
G01*
X1201968Y0222835D01*
G75*
G02*
X1202460Y0222342I0000000J-000492D01*
G01*
G37*
G36*
G01*
X1202460Y0225492D02*
X1202460Y0224508D01*
G75*
G02*
X1201968Y0224016I-000492J0000000D01*
G01*
X1197047Y0224016D01*
G75*
G02*
X1196555Y0224508I0000000J0000492D01*
G01*
X1196555Y0225492D01*
G75*
G02*
X1197047Y0225984I0000492J0000000D01*
G01*
X1201968Y0225984D01*
G75*
G02*
X1202460Y0225492I0000000J-000492D01*
G01*
G37*
G36*
G01*
X1202460Y0228642D02*
X1202460Y0227657D01*
G75*
G02*
X1201968Y0227165I-000492J0000000D01*
G01*
X1197047Y0227165D01*
G75*
G02*
X1196555Y0227657I0000000J0000492D01*
G01*
X1196555Y0228642D01*
G75*
G02*
X1197047Y0229134I0000492J0000000D01*
G01*
X1201968Y0229134D01*
G75*
G02*
X1202460Y0228642I0000000J-000492D01*
G01*
G37*
G36*
G01*
X1202460Y0231791D02*
X1202460Y0230807D01*
G75*
G02*
X1201968Y0230315I-000492J0000000D01*
G01*
X1197047Y0230315D01*
G75*
G02*
X1196555Y0230807I0000000J0000492D01*
G01*
X1196555Y0231791D01*
G75*
G02*
X1197047Y0232283I0000492J0000000D01*
G01*
X1201968Y0232283D01*
G75*
G02*
X1202460Y0231791I0000000J-000492D01*
G01*
G37*
G36*
G01*
X1202460Y0234941D02*
X1202460Y0233957D01*
G75*
G02*
X1201968Y0233465I-000492J0000000D01*
G01*
X1197047Y0233465D01*
G75*
G02*
X1196555Y0233957I0000000J0000492D01*
G01*
X1196555Y0234941D01*
G75*
G02*
X1197047Y0235433I0000492J0000000D01*
G01*
X1201968Y0235433D01*
G75*
G02*
X1202460Y0234941I0000000J-000492D01*
G01*
G37*
G36*
G01*
X1195078Y0242323D02*
X1195078Y0237402D01*
G75*
G02*
X1194586Y0236909I-000492J0000000D01*
G01*
X1193602Y0236909D01*
G75*
G02*
X1193110Y0237402I0000000J0000492D01*
G01*
X1193110Y0242323D01*
G75*
G02*
X1193602Y0242815I0000492J0000000D01*
G01*
X1194586Y0242815D01*
G75*
G02*
X1195078Y0242323I0000000J-000492D01*
G01*
G37*
G36*
G01*
X1191929Y0242323D02*
X1191929Y0237402D01*
G75*
G02*
X1191437Y0236909I-000492J0000000D01*
G01*
X1190452Y0236909D01*
G75*
G02*
X1189960Y0237402I0000000J0000492D01*
G01*
X1189960Y0242323D01*
G75*
G02*
X1190452Y0242815I0000492J0000000D01*
G01*
X1191437Y0242815D01*
G75*
G02*
X1191929Y0242323I0000000J-000492D01*
G01*
G37*
G36*
G01*
X1188779Y0242323D02*
X1188779Y0237402D01*
G75*
G02*
X1188287Y0236909I-000492J0000000D01*
G01*
X1187303Y0236909D01*
G75*
G02*
X1186811Y0237402I0000000J0000492D01*
G01*
X1186811Y0242323D01*
G75*
G02*
X1187303Y0242815I0000492J0000000D01*
G01*
X1188287Y0242815D01*
G75*
G02*
X1188779Y0242323I0000000J-000492D01*
G01*
G37*
G36*
G01*
X1185629Y0242323D02*
X1185629Y0237402D01*
G75*
G02*
X1185137Y0236909I-000492J0000000D01*
G01*
X1184153Y0236909D01*
G75*
G02*
X1183661Y0237402I0000000J0000492D01*
G01*
X1183661Y0242323D01*
G75*
G02*
X1184153Y0242815I0000492J0000000D01*
G01*
X1185137Y0242815D01*
G75*
G02*
X1185629Y0242323I0000000J-000492D01*
G01*
G37*
G36*
G01*
X1182480Y0242323D02*
X1182480Y0237402D01*
G75*
G02*
X1181988Y0236909I-000492J0000000D01*
G01*
X1181004Y0236909D01*
G75*
G02*
X1180511Y0237402I0000000J0000492D01*
G01*
X1180511Y0242323D01*
G75*
G02*
X1181004Y0242815I0000492J0000000D01*
G01*
X1181988Y0242815D01*
G75*
G02*
X1182480Y0242323I0000000J-000492D01*
G01*
G37*
G36*
G01*
X1179330Y0242323D02*
X1179330Y0237402D01*
G75*
G02*
X1178838Y0236909I-000492J0000000D01*
G01*
X1177854Y0236909D01*
G75*
G02*
X1177362Y0237402I0000000J0000492D01*
G01*
X1177362Y0242323D01*
G75*
G02*
X1177854Y0242815I0000492J0000000D01*
G01*
X1178838Y0242815D01*
G75*
G02*
X1179330Y0242323I0000000J-000492D01*
G01*
G37*
G36*
G01*
X1176181Y0242323D02*
X1176181Y0237402D01*
G75*
G02*
X1175689Y0236909I-000492J0000000D01*
G01*
X1174704Y0236909D01*
G75*
G02*
X1174212Y0237402I0000000J0000492D01*
G01*
X1174212Y0242323D01*
G75*
G02*
X1174704Y0242815I0000492J0000000D01*
G01*
X1175689Y0242815D01*
G75*
G02*
X1176181Y0242323I0000000J-000492D01*
G01*
G37*
G36*
G01*
X1173031Y0242323D02*
X1173031Y0237402D01*
G75*
G02*
X1172539Y0236909I-000492J0000000D01*
G01*
X1171555Y0236909D01*
G75*
G02*
X1171063Y0237402I0000000J0000492D01*
G01*
X1171063Y0242323D01*
G75*
G02*
X1171555Y0242815I0000492J0000000D01*
G01*
X1172539Y0242815D01*
G75*
G02*
X1173031Y0242323I0000000J-000492D01*
G01*
G37*
G36*
G01*
X1169586Y0234941D02*
X1169586Y0233957D01*
G75*
G02*
X1169094Y0233465I-000492J0000000D01*
G01*
X1164173Y0233465D01*
G75*
G02*
X1163681Y0233957I0000000J0000492D01*
G01*
X1163681Y0234941D01*
G75*
G02*
X1164173Y0235433I0000492J0000000D01*
G01*
X1169094Y0235433D01*
G75*
G02*
X1169586Y0234941I0000000J-000492D01*
G01*
G37*
G36*
G01*
X1169586Y0231791D02*
X1169586Y0230807D01*
G75*
G02*
X1169094Y0230315I-000492J0000000D01*
G01*
X1164173Y0230315D01*
G75*
G02*
X1163681Y0230807I0000000J0000492D01*
G01*
X1163681Y0231791D01*
G75*
G02*
X1164173Y0232283I0000492J0000000D01*
G01*
X1169094Y0232283D01*
G75*
G02*
X1169586Y0231791I0000000J-000492D01*
G01*
G37*
G36*
G01*
X1169586Y0228642D02*
X1169586Y0227657D01*
G75*
G02*
X1169094Y0227165I-000492J0000000D01*
G01*
X1164173Y0227165D01*
G75*
G02*
X1163681Y0227657I0000000J0000492D01*
G01*
X1163681Y0228642D01*
G75*
G02*
X1164173Y0229134I0000492J0000000D01*
G01*
X1169094Y0229134D01*
G75*
G02*
X1169586Y0228642I0000000J-000492D01*
G01*
G37*
G36*
G01*
X1169586Y0225492D02*
X1169586Y0224508D01*
G75*
G02*
X1169094Y0224016I-000492J0000000D01*
G01*
X1164173Y0224016D01*
G75*
G02*
X1163681Y0224508I0000000J0000492D01*
G01*
X1163681Y0225492D01*
G75*
G02*
X1164173Y0225984I0000492J0000000D01*
G01*
X1169094Y0225984D01*
G75*
G02*
X1169586Y0225492I0000000J-000492D01*
G01*
G37*
G36*
G01*
X1169586Y0222342D02*
X1169586Y0221358D01*
G75*
G02*
X1169094Y0220866I-000492J0000000D01*
G01*
X1164173Y0220866D01*
G75*
G02*
X1163681Y0221358I0000000J0000492D01*
G01*
X1163681Y0222342D01*
G75*
G02*
X1164173Y0222835I0000492J0000000D01*
G01*
X1169094Y0222835D01*
G75*
G02*
X1169586Y0222342I0000000J-000492D01*
G01*
G37*
G36*
G01*
X1169586Y0219193D02*
X1169586Y0218209D01*
G75*
G02*
X1169094Y0217717I-000492J0000000D01*
G01*
X1164173Y0217717D01*
G75*
G02*
X1163681Y0218209I0000000J0000492D01*
G01*
X1163681Y0219193D01*
G75*
G02*
X1164173Y0219685I0000492J0000000D01*
G01*
X1169094Y0219685D01*
G75*
G02*
X1169586Y0219193I0000000J-000492D01*
G01*
G37*
G36*
G01*
X1169586Y0216043D02*
X1169586Y0215059D01*
G75*
G02*
X1169094Y0214567I-000492J0000000D01*
G01*
X1164173Y0214567D01*
G75*
G02*
X1163681Y0215059I0000000J0000492D01*
G01*
X1163681Y0216043D01*
G75*
G02*
X1164173Y0216535I0000492J0000000D01*
G01*
X1169094Y0216535D01*
G75*
G02*
X1169586Y0216043I0000000J-000492D01*
G01*
G37*
G36*
G01*
X1169586Y0212894D02*
X1169586Y0211909D01*
G75*
G02*
X1169094Y0211417I-000492J0000000D01*
G01*
X1164173Y0211417D01*
G75*
G02*
X1163681Y0211909I0000000J0000492D01*
G01*
X1163681Y0212894D01*
G75*
G02*
X1164173Y0213386I0000492J0000000D01*
G01*
X1169094Y0213386D01*
G75*
G02*
X1169586Y0212894I0000000J-000492D01*
G01*
G37*
G36*
G01*
X1173031Y0209449D02*
X1173031Y0204528D01*
G75*
G02*
X1172539Y0204035I-000492J0000000D01*
G01*
X1171555Y0204035D01*
G75*
G02*
X1171063Y0204528I0000000J0000492D01*
G01*
X1171063Y0209449D01*
G75*
G02*
X1171555Y0209941I0000492J0000000D01*
G01*
X1172539Y0209941D01*
G75*
G02*
X1173031Y0209449I0000000J-000492D01*
G01*
G37*
G36*
G01*
X1176181Y0209449D02*
X1176181Y0204528D01*
G75*
G02*
X1175689Y0204035I-000492J0000000D01*
G01*
X1174704Y0204035D01*
G75*
G02*
X1174212Y0204528I0000000J0000492D01*
G01*
X1174212Y0209449D01*
G75*
G02*
X1174704Y0209941I0000492J0000000D01*
G01*
X1175689Y0209941D01*
G75*
G02*
X1176181Y0209449I0000000J-000492D01*
G01*
G37*
G36*
G01*
X1179330Y0209449D02*
X1179330Y0204528D01*
G75*
G02*
X1178838Y0204035I-000492J0000000D01*
G01*
X1177854Y0204035D01*
G75*
G02*
X1177362Y0204528I0000000J0000492D01*
G01*
X1177362Y0209449D01*
G75*
G02*
X1177854Y0209941I0000492J0000000D01*
G01*
X1178838Y0209941D01*
G75*
G02*
X1179330Y0209449I0000000J-000492D01*
G01*
G37*
G36*
G01*
X1182480Y0209449D02*
X1182480Y0204528D01*
G75*
G02*
X1181988Y0204035I-000492J0000000D01*
G01*
X1181004Y0204035D01*
G75*
G02*
X1180511Y0204528I0000000J0000492D01*
G01*
X1180511Y0209449D01*
G75*
G02*
X1181004Y0209941I0000492J0000000D01*
G01*
X1181988Y0209941D01*
G75*
G02*
X1182480Y0209449I0000000J-000492D01*
G01*
G37*
G36*
G01*
X1185629Y0209449D02*
X1185629Y0204528D01*
G75*
G02*
X1185137Y0204035I-000492J0000000D01*
G01*
X1184153Y0204035D01*
G75*
G02*
X1183661Y0204528I0000000J0000492D01*
G01*
X1183661Y0209449D01*
G75*
G02*
X1184153Y0209941I0000492J0000000D01*
G01*
X1185137Y0209941D01*
G75*
G02*
X1185629Y0209449I0000000J-000492D01*
G01*
G37*
G36*
G01*
X1188779Y0209449D02*
X1188779Y0204528D01*
G75*
G02*
X1188287Y0204035I-000492J0000000D01*
G01*
X1187303Y0204035D01*
G75*
G02*
X1186811Y0204528I0000000J0000492D01*
G01*
X1186811Y0209449D01*
G75*
G02*
X1187303Y0209941I0000492J0000000D01*
G01*
X1188287Y0209941D01*
G75*
G02*
X1188779Y0209449I0000000J-000492D01*
G01*
G37*
G36*
G01*
X1191929Y0209449D02*
X1191929Y0204528D01*
G75*
G02*
X1191437Y0204035I-000492J0000000D01*
G01*
X1190452Y0204035D01*
G75*
G02*
X1189960Y0204528I0000000J0000492D01*
G01*
X1189960Y0209449D01*
G75*
G02*
X1190452Y0209941I0000492J0000000D01*
G01*
X1191437Y0209941D01*
G75*
G02*
X1191929Y0209449I0000000J-000492D01*
G01*
G37*
G36*
G01*
X1195078Y0209449D02*
X1195078Y0204528D01*
G75*
G02*
X1194586Y0204035I-000492J0000000D01*
G01*
X1193602Y0204035D01*
G75*
G02*
X1193110Y0204528I0000000J0000492D01*
G01*
X1193110Y0209449D01*
G75*
G02*
X1193602Y0209941I0000492J0000000D01*
G01*
X1194586Y0209941D01*
G75*
G02*
X1195078Y0209449I0000000J-000492D01*
G01*
G37*
G36*
G01*
X1202244Y0237904D02*
X1202244Y0239262D01*
G75*
G02*
X1202824Y0239842I0000581J0000000D01*
G01*
X1203986Y0239842D01*
G75*
G02*
X1204567Y0239262I0000000J-000581D01*
G01*
X1204567Y0237904D01*
G75*
G02*
X1203986Y0237323I-000581J0000000D01*
G01*
X1202824Y0237323D01*
G75*
G02*
X1202244Y0237904I0000000J0000581D01*
G01*
G37*
G36*
G01*
X1206063Y0237904D02*
X1206063Y0239262D01*
G75*
G02*
X1206643Y0239842I0000581J0000000D01*
G01*
X1207805Y0239842D01*
G75*
G02*
X1208385Y0239262I0000000J-000581D01*
G01*
X1208385Y0237904D01*
G75*
G02*
X1207805Y0237323I-000581J0000000D01*
G01*
X1206643Y0237323D01*
G75*
G02*
X1206063Y0237904I0000000J0000581D01*
G01*
G37*
G36*
G01*
X1215866Y0240443D02*
X1215866Y0239085D01*
G75*
G02*
X1215285Y0238504I-000581J0000000D01*
G01*
X1214124Y0238504D01*
G75*
G02*
X1213543Y0239085I0000000J0000581D01*
G01*
X1213543Y0240443D01*
G75*
G02*
X1214124Y0241024I0000581J0000000D01*
G01*
X1215285Y0241024D01*
G75*
G02*
X1215866Y0240443I0000000J-000581D01*
G01*
G37*
G36*
G01*
X1212047Y0240443D02*
X1212047Y0239085D01*
G75*
G02*
X1211466Y0238504I-000581J0000000D01*
G01*
X1210305Y0238504D01*
G75*
G02*
X1209724Y0239085I0000000J0000581D01*
G01*
X1209724Y0240443D01*
G75*
G02*
X1210305Y0241024I0000581J0000000D01*
G01*
X1211466Y0241024D01*
G75*
G02*
X1212047Y0240443I0000000J-000581D01*
G01*
G37*
G36*
G01*
X1210354Y0215246D02*
X1210354Y0213888D01*
G75*
G02*
X1209773Y0213307I-000581J0000000D01*
G01*
X1208612Y0213307D01*
G75*
G02*
X1208031Y0213888I0000000J0000581D01*
G01*
X1208031Y0215246D01*
G75*
G02*
X1208612Y0215827I0000581J0000000D01*
G01*
X1209773Y0215827D01*
G75*
G02*
X1210354Y0215246I0000000J-000581D01*
G01*
G37*
G36*
G01*
X1206535Y0215246D02*
X1206535Y0213888D01*
G75*
G02*
X1205954Y0213307I-000581J0000000D01*
G01*
X1204793Y0213307D01*
G75*
G02*
X1204212Y0213888I0000000J0000581D01*
G01*
X1204212Y0215246D01*
G75*
G02*
X1204793Y0215827I0000581J0000000D01*
G01*
X1205954Y0215827D01*
G75*
G02*
X1206535Y0215246I0000000J-000581D01*
G01*
G37*
G36*
G01*
X1157559Y0233425D02*
X1158917Y0233425D01*
G75*
G02*
X1159498Y0232844I0000000J-000581D01*
G01*
X1159498Y0231683D01*
G75*
G02*
X1158917Y0231102I-000581J0000000D01*
G01*
X1157559Y0231102D01*
G75*
G02*
X1156978Y0231683I0000000J0000581D01*
G01*
X1156978Y0232844D01*
G75*
G02*
X1157559Y0233425I0000581J0000000D01*
G01*
G37*
G36*
G01*
X1157559Y0229606D02*
X1158917Y0229606D01*
G75*
G02*
X1159498Y0229025I0000000J-000581D01*
G01*
X1159498Y0227864D01*
G75*
G02*
X1158917Y0227283I-000581J0000000D01*
G01*
X1157559Y0227283D01*
G75*
G02*
X1156978Y0227864I0000000J0000581D01*
G01*
X1156978Y0229025D01*
G75*
G02*
X1157559Y0229606I0000581J0000000D01*
G01*
G37*
G36*
G01*
X1166840Y0207067D02*
X1168198Y0207067D01*
G75*
G02*
X1168779Y0206486I0000000J-000581D01*
G01*
X1168779Y0205325D01*
G75*
G02*
X1168198Y0204744I-000581J0000000D01*
G01*
X1166840Y0204744D01*
G75*
G02*
X1166259Y0205325I0000000J0000581D01*
G01*
X1166259Y0206486D01*
G75*
G02*
X1166840Y0207067I0000581J0000000D01*
G01*
G37*
G36*
G01*
X1166840Y0203248D02*
X1168198Y0203248D01*
G75*
G02*
X1168779Y0202667I0000000J-000581D01*
G01*
X1168779Y0201506D01*
G75*
G02*
X1168198Y0200925I-000581J0000000D01*
G01*
X1166840Y0200925D01*
G75*
G02*
X1166259Y0201506I0000000J0000581D01*
G01*
X1166259Y0202667D01*
G75*
G02*
X1166840Y0203248I0000581J0000000D01*
G01*
G37*
G36*
G01*
X1143098Y0229400D02*
X1143098Y0230758D01*
G75*
G02*
X1143679Y0231339I0000581J0000000D01*
G01*
X1144840Y0231339D01*
G75*
G02*
X1145421Y0230758I0000000J-000581D01*
G01*
X1145421Y0229400D01*
G75*
G02*
X1144840Y0228819I-000581J0000000D01*
G01*
X1143679Y0228819D01*
G75*
G02*
X1143098Y0229400I0000000J0000581D01*
G01*
G37*
G36*
G01*
X1146917Y0229400D02*
X1146917Y0230758D01*
G75*
G02*
X1147498Y0231339I0000581J0000000D01*
G01*
X1148659Y0231339D01*
G75*
G02*
X1149240Y0230758I0000000J-000581D01*
G01*
X1149240Y0229400D01*
G75*
G02*
X1148659Y0228819I-000581J0000000D01*
G01*
X1147498Y0228819D01*
G75*
G02*
X1146917Y0229400I0000000J0000581D01*
G01*
G37*
D20*
X1144429Y0235142D03*
X1151909Y0235142D03*
X1148169Y0243016D03*
G36*
G01*
X1245872Y0211390D02*
X1244513Y0211390D01*
G75*
G02*
X1243933Y0211970I0000000J0000581D01*
G01*
X1243933Y0213132D01*
G75*
G02*
X1244513Y0213713I0000581J0000000D01*
G01*
X1245872Y0213713D01*
G75*
G02*
X1246452Y0213132I0000000J-000581D01*
G01*
X1246452Y0211970D01*
G75*
G02*
X1245872Y0211390I-000581J0000000D01*
G01*
G37*
G36*
G01*
X1245872Y0215209D02*
X1244513Y0215209D01*
G75*
G02*
X1243933Y0215789I0000000J0000581D01*
G01*
X1243933Y0216951D01*
G75*
G02*
X1244513Y0217531I0000581J0000000D01*
G01*
X1245872Y0217531D01*
G75*
G02*
X1246452Y0216951I0000000J-000581D01*
G01*
X1246452Y0215789D01*
G75*
G02*
X1245872Y0215209I-000581J0000000D01*
G01*
G37*
G36*
G01*
X1157524Y0245059D02*
X1159542Y0245059D01*
G75*
G02*
X1160403Y0244198I0000000J-000861D01*
G01*
X1160403Y0242475D01*
G75*
G02*
X1159542Y0241614I-000861J0000000D01*
G01*
X1157524Y0241614D01*
G75*
G02*
X1156663Y0242475I0000000J0000861D01*
G01*
X1156663Y0244198D01*
G75*
G02*
X1157524Y0245059I0000861J0000000D01*
G01*
G37*
G36*
G01*
X1157524Y0238858D02*
X1159542Y0238858D01*
G75*
G02*
X1160403Y0237997I0000000J-000861D01*
G01*
X1160403Y0236274D01*
G75*
G02*
X1159542Y0235413I-000861J0000000D01*
G01*
X1157524Y0235413D01*
G75*
G02*
X1156663Y0236274I0000000J0000861D01*
G01*
X1156663Y0237997D01*
G75*
G02*
X1157524Y0238858I0000861J0000000D01*
G01*
G37*
X1102684Y0137057D02*
G01*
G75*
D112*
X1115696Y0125640D02*
D03*
X1106444Y0129380D02*
D03*
D112*
X1115696Y0133120D02*
D03*
D99*
X1127310Y0118081D02*
D03*
X1122310Y0118081D02*
D03*
X1117310Y0118081D02*
D03*
X1112310Y0118081D02*
D03*
X1127310Y0099183D02*
D03*
X1122310Y0099183D02*
D03*
X1117310Y0099183D02*
D03*
X1112310Y0099183D02*
D03*
D113*
X1107015Y0102372D02*
D03*
X1107015Y0096152D02*
D03*
X1107015Y0110718D02*
D03*
X1107015Y0116939D02*
D03*
D114*
X1120597Y0132530D02*
D03*
X1120597Y0126230D02*
D03*
D40*
X1104554Y0121900D02*
D03*
M02*
