M48
INCH,TZ
T01C0.013750
T02C0.032000
T03C0.038400
T04C0.043300
T05C0.049200
T06C0.066950
T07C0.070900
T08C0.078700
T09C0.092500
T10C0.112200
T11C0.119050
T12C0.151600
%
T01
X512Y19921
X669Y36929
X709Y43110
X709Y630
X827Y27913
X827Y11181
X5236Y18583
X5433Y37677
X5433Y27520
X5472Y36772
X5551Y26693
X6102Y472
X6339Y43189
X7165Y17520
X7244Y14803
X7283Y19764
X8071Y4134
X9843Y18465
X9961Y17598
X10236Y39803
X10433Y24685
X10551Y14646
X10906Y9094
X11063Y27638
X11063Y20984
X11142Y26575
X11220Y32953
X11260Y37677
X11260Y36772
X12008Y38189
X12008Y13583
X12047Y28150
X12047Y19094
X12638Y14291
X12677Y20354
X12795Y24567
X12835Y37205
X13031Y21575
X13051Y36220
X13307Y17126
X13327Y19449
X13583Y23977
X13583Y18189
X13661Y32441
X13661Y25748
X13780Y41732
X13858Y25118
X13858Y11654
X14134Y10591
X14142Y24813
X14417Y18465
X14417Y12598
X14961Y37756
X15276Y18937
X15354Y23071
X15354Y14724
X15394Y20906
X16063Y32717
X16496Y3465
X17441Y11732
X17717Y14134
X18031Y32638
X18031Y25669
X18189Y11929
X19252Y17520
X19567Y20512
X20039Y22795
X20906Y31969
X21575Y9252
X21614Y16299
X22047Y18858
X22126Y43189
X22874Y25984
X22874Y25394
X23071Y24636
X23071Y472
X23819Y9213
X23819Y5512
X24055Y25984
X24055Y25394
X24173Y11614
X24252Y33425
X24252Y13189
X24488Y5591
X25000Y10984
X25354Y5079
X25866Y25669
X25866Y15354
X27165Y29055
X28189Y22362
X28307Y5551
X28819Y14528
X28887Y18117
X28937Y20197
X28937Y18858
X28976Y21024
X29055Y23346
X32244Y29646
X33583Y8661
X33858Y43150
X34055Y25748
X34213Y394
X34252Y31850
X35433Y4724
X36969Y8071
X36969Y7421
X37756Y29134
X38661Y394
X38898Y43150
X38898Y23307
X39173Y20984
X39409Y5394
X39488Y8661
X39528Y17953
X39528Y14567
X39646Y19134
X39882Y27874
X39961Y12244
X40197Y4449
X40463Y17135
X40750Y16762
X41457Y27913
X41535Y21102
X41535Y19094
X41575Y22244
X41693Y17913
X42283Y5157
X43071Y7362
X43189Y8858
X43425Y10276
X43465Y16181
X43543Y12559
X43583Y3898
X43898Y14803
X43937Y25630
X44331Y28189
X44519Y5727
X44764Y22559
X44961Y19252
X45236Y17835
X45354Y20984
X48465Y4055
X49134Y7874
X49882Y38307
X49921Y34685
X50118Y6535
X52244Y28976
X52441Y13937
X52520Y15551
X52677Y23819
X52753Y25498
X52756Y20118
X52756Y11811
X53228Y43189
X53661Y22244
X53661Y18622
X54449Y19961
X55354Y13937
X55630Y8425
X56102Y29094
X56535Y4488
X56850Y23189
X57283Y25551
X57835Y38346
X57913Y11811
X58504Y27677
X59291Y15354
X59724Y33307
X59803Y20039
X59921Y6614
X60079Y32992
X60118Y18465
X60276Y35236
X60394Y8858
X60433Y21969
X60945Y20984
X60945Y19291
X61063Y28150
X61063Y23504
X61063Y17677
X61220Y11929
X61614Y35551
X61614Y21654
X61772Y37874
X61929Y37205
X61929Y18779
X62205Y39213
X62244Y20324
X63982Y13989
X64291Y19331
X64409Y20984
X64409Y9961
X65039Y23504
X65079Y15984
X65551Y26457
X65551Y25591
X66339Y354
X66535Y43071
X66890Y26457
X66890Y25591
X67598Y15866
X67717Y19252
X67992Y13858
X68346Y20945
X69528Y11614
X70591Y15630
X70945Y23701
X71417Y551
X71496Y43110
X71693Y19291
X72047Y20945
X72165Y25984
X72873Y4796
X73071Y10000
X73228Y17638
X76575Y11929
X77913Y15669
X78543Y19331
X78701Y22756
X78701Y20827
X78819Y24094
X81339Y30315
X81457Y26535
X81614Y19370
X81693Y22638
X81732Y20906
X82283Y23268
X82992Y12047
X83071Y32598
X83071Y5748
X83307Y9843
X83622Y28307
X83930Y8301
X84449Y15669
X84449Y13819
X84803Y24134
X84921Y26457
X84921Y2953
X84961Y17874
X84961Y13071
X85000Y43071
X85315Y22835
X85512Y31024
X85669Y32638
X85669Y591
X85827Y19331
X85866Y11969
X85906Y20827
X85945Y25984
X86890Y5709
X86969Y26772
X88268Y32480
X88898Y4173
X89206Y40290
X89843Y5827
X91496Y13071
X91929Y28346
X91949Y32561
X91988Y36303
X92165Y5512
X93622Y18071
X93661Y27008
X93661Y22362
X93694Y19228
X93740Y25551
X93740Y24173
X93780Y21220
X93819Y28858
X93937Y13858
X94173Y5630
X94679Y23110
X94935Y11033
X95191Y10400
X95709Y27008
X96220Y32835
X96260Y16220
X97441Y29055
X97795Y8976
X97937Y26508
X97992Y30906
X98150Y11850
X98150Y5394
X98189Y17441
X98352Y23567
X98465Y20827
X98898Y43268
X99036Y5324
X99055Y394
X99291Y3425
X99724Y24173
X99724Y21024
X99764Y17402
X99764Y11929
X99803Y9370
X99843Y26929
X100157Y5197
X100866Y9134
X100906Y24134
X101024Y11654
X101181Y26339
X101260Y4961
X102008Y17677
X102244Y21024
X102874Y29882
X103740Y13386
X103937Y551
X103976Y43189
X104098Y14724
X104685Y26457
X104685Y13543
X104724Y23661
X104724Y20906
X104843Y17874
X104843Y9488
X105375Y17008
X105472Y11772
X105507Y35354
X105630Y15964
X105768Y35906
X105827Y5512
X105866Y14488
X106024Y37205
X106260Y15709
X106339Y39252
X106575Y40669
X106654Y24252
X106890Y30551
X107165Y22835
X107244Y7165
X107402Y12717
X107677Y26535
X107717Y20472
X107756Y8465
X107835Y24409
X107992Y7165
X108701Y7165
X109389Y7945
X109449Y25197
X109685Y13706
X109685Y13189
X109685Y7717
X109803Y27638
X109991Y11698
X110000Y22795
X110000Y20709
X110000Y12835
X110000Y9843
X110000Y6654
X110276Y8819
X111155Y20115
X111260Y13976
X111693Y8858
X111890Y591
X112205Y25276
X112441Y13937
X112598Y20079
X112756Y8858
X113307Y12756
X113346Y13622
X113386Y24685
X113386Y22402
X113386Y11142
X113780Y32480
X114291Y14134
X114409Y25630
X115118Y30630
X116260Y3661
X116299Y25551
X116575Y42913
X117205Y14094
X117480Y18780
X117598Y7520
X117913Y26890
X119016Y25433
X119331Y14016
X120197Y7283
X120276Y18661
X120866Y29961
X121850Y25315
X122125Y35978
X122323Y14016
X122323Y512
X123228Y18661
X123675Y7343
X125591Y25354
X126063Y5276
X126102Y18661
X126220Y14055
X126417Y36575
X126535Y31181
X127874Y7205
X128622Y14094
X128937Y18661
X129606Y19252
X129724Y23543
X129724Y23031
X129724Y22559
X129724Y13465
X129764Y24488
X129764Y12362
X129764Y11260
X129803Y11850
X129843Y7992
X130354Y29567
X131220Y43071
X131299Y512
X135039Y29331
X135669Y36339
X136417Y15118
X136417Y5984
X136614Y23465
X136929Y591
X137244Y43346
X113976Y23524
X113976Y23130
X113976Y21732
X113976Y21339
X113976Y12254
X113976Y11860
X113976Y10463
X113976Y10069
X129035Y20906
X129035Y20512
X129035Y20118
X129035Y19724
X129035Y9636
X129035Y9242
X129035Y8848
X129035Y8455
X110810Y21895
X110810Y10674
X111016Y22239
X111016Y11019
X111312Y21777
X111312Y10556
X112709Y21806
X112709Y10586
X113977Y12254
X113977Y11860
X113977Y10462
X113977Y10069
X129036Y9636
X129036Y9242
X129036Y8848
X129036Y8455
X113937Y13553
X113957Y12608
X113996Y10817
X114016Y11506
X114036Y8081
X114177Y9819
X114325Y9551
X114410Y13061
X114626Y8336
X114862Y9321
X114941Y8356
X115167Y10788
X115177Y10049
X115193Y12651
X115197Y11742
X115374Y13100
X115748Y8159
X116142Y10088
X116201Y12116
X116240Y10939
X116437Y8041
X116496Y13494
X116752Y8573
X116772Y9616
X116811Y13120
X117126Y10782
X117205Y10462
X117382Y11132
X117461Y13317
X117618Y10187
X117697Y11821
X117756Y8041
X118169Y10718
X118406Y11742
X118504Y9931
X118524Y13297
X118937Y8120
X119069Y12216
X119134Y10856
X119366Y10486
X119389Y11236
X119390Y12175
X119390Y11860
X119744Y9459
X119744Y9124
X120000Y8317
X120040Y12726
X120473Y10482
X120492Y8022
X120551Y12274
X120866Y8607
X120869Y10976
X121004Y8907
X121063Y13022
X121988Y9459
X122146Y10029
X122225Y11053
X122382Y10738
X122402Y12431
X122520Y13199
X122599Y12903
X122933Y8022
X123032Y11959
X123051Y8612
X123169Y9714
X123327Y10581
X123327Y10226
X123425Y11073
X123465Y12864
X123760Y11959
X124069Y11276
X124095Y8514
X124291Y12313
X124479Y9716
X124587Y8317
X125020Y13218
X125020Y12018
X125209Y10066
X125217Y13514
X125217Y11014
X125219Y10376
X125219Y9306
X125256Y8789
X125256Y8081
X126201Y11388
X127894Y13539
X128012Y8750
X128012Y8120
X128169Y12214
X128169Y11821
X128484Y8750
X128563Y12214
X128563Y11821
X128996Y13514
X129055Y8022
X111016Y22239
X110809Y21895
X111311Y21776
X112709Y21806
X113977Y23524
X113977Y23130
X113977Y21732
X113977Y21339
X129036Y20906
X129036Y20512
X129036Y20118
X129036Y19725
X113937Y24823
X113957Y23878
X113996Y22087
X114016Y22776
X114036Y19351
X114177Y21089
X114325Y20821
X114410Y24331
X114626Y19606
X114862Y20591
X114941Y19626
X115167Y22058
X115177Y21319
X115193Y23921
X115197Y23012
X115374Y24370
X115748Y19429
X116142Y21358
X116201Y23386
X116240Y22209
X116437Y19311
X116496Y24764
X116752Y19843
X116772Y20886
X116811Y24390
X117126Y22052
X117205Y21732
X117382Y22402
X117461Y24587
X117618Y21457
X117697Y23091
X117756Y19311
X118169Y21988
X118406Y23012
X118504Y21201
X118524Y24567
X118937Y19390
X119069Y23486
X119134Y22126
X119366Y21756
X119389Y22506
X119390Y23445
X119390Y23130
X119744Y20729
X119744Y20394
X120000Y19587
X120040Y23996
X120473Y21752
X120492Y19292
X120551Y23544
X120866Y19877
X120869Y22246
X121004Y20177
X121063Y24292
X121988Y20729
X122146Y21299
X122225Y22323
X122382Y22008
X122402Y23701
X122520Y24469
X122599Y24173
X122933Y19292
X123032Y23229
X123051Y19882
X123169Y20984
X123327Y21851
X123327Y21496
X123425Y22343
X123465Y24134
X123760Y23229
X124069Y22546
X124095Y19784
X124291Y23583
X124479Y20986
X124587Y19587
X125020Y24488
X125020Y23288
X125209Y21336
X125217Y24784
X125217Y22284
X125219Y21646
X125219Y20576
X125256Y20059
X125256Y19351
X126201Y22658
X127894Y24809
X128012Y20020
X128012Y19390
X128169Y23484
X128169Y23091
X128484Y20020
X128563Y23484
X128563Y23091
X128996Y24784
X129055Y19292
X111016Y11019
X110809Y10675
X111311Y10556
X112709Y10586
T02
X14626Y10158
X15626Y10158
X16626Y10158
X17626Y10158
X18626Y10158
X19626Y10158
X87992Y31476
X87992Y29547
X116732Y31673
X116732Y29744
T03
X25787Y31693
X25787Y29921
X28740Y31693
X29921Y31693
X30000Y22000
X30000Y21000
X30000Y20000
X30000Y19000
X30000Y18000
X30000Y17000
X30000Y16000
X30000Y15000
X30000Y14000
X30000Y13000
X31000Y22000
X31000Y21000
X31000Y20000
X31000Y19000
X31000Y18000
X31000Y17000
X31000Y16000
X31000Y15000
X31000Y14000
X31000Y13000
X31102Y31693
X32000Y22000
X32000Y21000
X32000Y20000
X32000Y19000
X32000Y18000
X32000Y17000
X32000Y16000
X32000Y15000
X32000Y14000
X32000Y13000
X32000Y12000
X32000Y11000
X32000Y10000
X32283Y31693
X33000Y22000
X33000Y21000
X33000Y20000
X33000Y19000
X33000Y18000
X33000Y17000
X33000Y16000
X33000Y15000
X33000Y14000
X33000Y13000
X33000Y12000
X33000Y11000
X33000Y10000
X34000Y22000
X34000Y21000
X34000Y20000
X34000Y19000
X34000Y18000
X34000Y17000
X34000Y16000
X34000Y15000
X34000Y14000
X34000Y13000
X34000Y12000
X34000Y11000
X34000Y10000
X35000Y22000
X35000Y21000
X35000Y20000
X35000Y19000
X35000Y18000
X35000Y17000
X35000Y16000
X35000Y15000
X35000Y14000
X35000Y13000
X35000Y12000
X35000Y11000
X35000Y10000
X36000Y22000
X36000Y21000
X36000Y20000
X36000Y19000
X36000Y18000
X36000Y17000
X36000Y16000
X36000Y15000
X36000Y14000
X36000Y13000
X36000Y12000
X36000Y11000
X36000Y10000
X37000Y22000
X37000Y21000
X37000Y20000
X37000Y19000
X37000Y18000
X37000Y17000
X37000Y16000
X37000Y15000
X37000Y14000
X37000Y13000
X38000Y22000
X38000Y21000
X38000Y20000
X38000Y19000
X38000Y18000
X38000Y17000
X38000Y16000
X38000Y15000
X38000Y14000
X38000Y13000
X38780Y31693
X39961Y31693
X41339Y15354
X41339Y13780
X41339Y9449
X41339Y8268
X41339Y7087
X41339Y5906
X41339Y4724
X41339Y3543
X41535Y31693
X41535Y29921
X43701Y30709
X45079Y30709
X47441Y30709
X48622Y30709
X49803Y30709
X49803Y29528
X50984Y30709
X50984Y28937
X53346Y30709
X53346Y27756
X54724Y30709
X54724Y28937
X54724Y27165
X56299Y31496
X57677Y31496
X59055Y31496
X61024Y31496
X62992Y31496
X78740Y31496
X80118Y31496
X81496Y31496
X83071Y30709
X84449Y30709
X86811Y30709
X86811Y28937
X89173Y30709
X90551Y30906
X92717Y30906
X96850Y25787
X96850Y24606
X96850Y23425
X96850Y22244
X96850Y21063
X96850Y19882
X96850Y18701
X96850Y17520
X96850Y16417
X96850Y15157
X96850Y13898
X96850Y12795
X96850Y11614
X96850Y10433
X96850Y9252
X96850Y8110
X96850Y6339
X96850Y5157
X100787Y31693
X102756Y31693
X104724Y31693
X106693Y31693
X107874Y31693
X107874Y29921
X109055Y31693
X109055Y29921
X110236Y31693
X110236Y29921
X111417Y31693
X111417Y29921
X112598Y31693
X112598Y29921
X112598Y18061
X112598Y6791
X113598Y18061
X113598Y6791
X114598Y18061
X114598Y6791
X115598Y18061
X115598Y6791
X116598Y18061
X116598Y6791
X117598Y18061
X117598Y6791
X118701Y31299
X6299Y7185
X8465Y6299
X63268Y30472
X63346Y29567
X79685Y7008
X80591Y6142
X4528Y39173
X4528Y38189
X4528Y37205
X4528Y36220
X4528Y35236
X4528Y34252
X4528Y29134
X4528Y28150
X4528Y27165
X4528Y26181
X4528Y25197
X4528Y24213
X4528Y19094
X4528Y18110
X4528Y17126
X4528Y16142
X4528Y13583
X4528Y12598
X4528Y11614
X4528Y10630
X4528Y9646
X4528Y8661
X4528Y7677
X4528Y6693
X133268Y39173
X133268Y38189
X133268Y37205
X133268Y36220
X133268Y35236
X133268Y34252
X133268Y31890
X133268Y30906
X133268Y29921
X133268Y28937
X133268Y27953
X133268Y26969
X133268Y24606
X133268Y23622
X133268Y22638
X133268Y21654
X133268Y20669
X133268Y19685
X133268Y18701
X133268Y17717
X133268Y16732
X133268Y15748
X133268Y13386
X133268Y12402
X133268Y11417
X133268Y10433
X133268Y9449
X133268Y8465
X133268Y7480
X133268Y6496
X133268Y5512
X133268Y4528
X114177Y8888
X116177Y9288
X116177Y8488
X114177Y20158
X116177Y20558
X116177Y19758
T04
X14764Y31299
X14764Y29299
X16929Y31299
X16929Y29299
X19055Y31299
X19055Y29299
X67898Y37283
X67898Y35551
X67898Y33819
X69898Y37283
X69898Y35551
X69898Y33819
X125831Y12962
X126831Y12962
X127831Y12962
X125831Y24232
X126831Y24232
X127831Y24232
T05
X25744Y38746
X25744Y37746
X25744Y35364
X25744Y34364
X26744Y38746
X26744Y37746
X26744Y35364
X26744Y34364
X27744Y38746
X27744Y37746
X27744Y35364
X27744Y34364
X28744Y38746
X28744Y37746
X28744Y35364
X28744Y34364
X29744Y38746
X29744Y37746
X29744Y35364
X29744Y34364
X30744Y38746
X30744Y37746
X30744Y35364
X30744Y34364
X31744Y38746
X31744Y37746
X31744Y35364
X31744Y34364
X32744Y38746
X32744Y37746
X32744Y35364
X32744Y34364
X33744Y38746
X33744Y37746
X33744Y35364
X33744Y34364
X34744Y38746
X34744Y37746
X34744Y35364
X34744Y34364
X36996Y38746
X36996Y37746
X36996Y35364
X36996Y34364
X37996Y38746
X37996Y37746
X37996Y35364
X37996Y34364
X38996Y38746
X38996Y37746
X38996Y35364
X38996Y34364
X39996Y38746
X39996Y37746
X39996Y35364
X39996Y34364
X40996Y38746
X40996Y37746
X40996Y35364
X40996Y34364
X41996Y38746
X41996Y37746
X41996Y35364
X41996Y34364
X42996Y38746
X42996Y37746
X42996Y35364
X42996Y34364
X43996Y38746
X43996Y37746
X43996Y35364
X43996Y34364
X44996Y38746
X44996Y37746
X44996Y35364
X44996Y34364
X45996Y38746
X45996Y37746
X45996Y35364
X45996Y34364
X46996Y38746
X46996Y37746
X46996Y35364
X46996Y34364
X47996Y38746
X47996Y37746
X47996Y35364
X47996Y34364
X48996Y38746
X48996Y37746
X48996Y35364
X48996Y34364
X51240Y38746
X51240Y37746
X51240Y35364
X51240Y34364
X52240Y38746
X52240Y37746
X52240Y35364
X52240Y34364
X53240Y38746
X53240Y37746
X53240Y35364
X53240Y34364
X54240Y38746
X54240Y37746
X54240Y35364
X54240Y34364
X55240Y38746
X55240Y37746
X55240Y35364
X55240Y34364
X56240Y38746
X56240Y37746
X56240Y35364
X56240Y34364
X81531Y38746
X81531Y37746
X81531Y35364
X81531Y34364
X82531Y38746
X82531Y37746
X82531Y35364
X82531Y34364
X83531Y38746
X83531Y37746
X83531Y35364
X83531Y34364
X84531Y38746
X84531Y37746
X84531Y35364
X84531Y34364
X85531Y38746
X85531Y37746
X85531Y35364
X85531Y34364
X86531Y38746
X86531Y37746
X86531Y35364
X86531Y34364
X87531Y38746
X87531Y37746
X87531Y35364
X87531Y34364
X88531Y38746
X88531Y37746
X88531Y35364
X88531Y34364
X89531Y38746
X89531Y37746
X89531Y35364
X89531Y34364
X90531Y38746
X90531Y37746
X90531Y35364
X90531Y34364
X92783Y38746
X92783Y37746
X92783Y35364
X92783Y34364
X93783Y38746
X93783Y37746
X93783Y35364
X93783Y34364
X94783Y38746
X94783Y37746
X94783Y35364
X94783Y34364
X95783Y38746
X95783Y37746
X95783Y35364
X95783Y34364
X96783Y38746
X96783Y37746
X96783Y35364
X96783Y34364
X97783Y38746
X97783Y37746
X97783Y35364
X97783Y34364
X98783Y38746
X98783Y37746
X98783Y35364
X98783Y34364
X99783Y38746
X99783Y37746
X99783Y35364
X99783Y34364
X100783Y38746
X100783Y37746
X100783Y35364
X100783Y34364
X101783Y38746
X101783Y37746
X101783Y35364
X101783Y34364
X102783Y38746
X102783Y37746
X102783Y35364
X102783Y34364
X103783Y38746
X103783Y37746
X103783Y35364
X103783Y34364
X104783Y38746
X104783Y37746
X104783Y35364
X104783Y34364
X107028Y38746
X107028Y37746
X107028Y35364
X107028Y34364
X108028Y38746
X108028Y37746
X108028Y35364
X108028Y34364
X109028Y38746
X109028Y37746
X109028Y35364
X109028Y34364
X110028Y38746
X110028Y37746
X110028Y35364
X110028Y34364
X111028Y38746
X111028Y37746
X111028Y35364
X111028Y34364
X112028Y38746
X112028Y37746
X112028Y35364
X112028Y34364
T06
X47618Y25679
X47618Y24104
X47618Y22530
X47618Y20955
X47618Y19380
X47618Y17805
X47618Y16230
X47618Y14656
X47618Y13081
X47618Y11506
X47618Y9931
X47618Y8356
X49193Y24892
X49193Y23317
X49193Y21742
X49193Y20167
X49193Y18593
X49193Y17018
X49193Y15443
X49193Y13868
X49193Y12293
X49193Y10719
X49193Y9144
X50768Y25679
X50768Y24104
X50768Y22530
X50768Y20955
X50768Y19380
X50768Y17805
X50768Y16230
X50768Y14656
X50768Y13081
X50768Y11506
X50768Y9931
X50768Y8356
X63366Y8750
X63366Y5600
X64154Y7175
X64941Y8750
X64941Y5600
X65728Y7175
X66516Y8750
X66516Y5600
X67303Y7175
X68091Y8750
X68091Y5600
X68878Y7175
X69665Y8750
X69665Y5600
X70453Y7175
X71240Y8750
X71240Y5600
X72028Y7175
X72815Y8750
X72815Y5600
X73602Y7175
X74390Y8750
X74390Y5600
X86988Y25679
X86988Y24104
X86988Y22530
X86988Y20955
X86988Y19380
X86988Y17805
X86988Y16230
X86988Y14656
X86988Y13081
X86988Y11506
X86988Y9931
X86988Y8356
X88563Y24892
X88563Y23317
X88563Y21742
X88563Y20167
X88563Y18593
X88563Y17018
X88563Y15443
X88563Y13868
X88563Y12293
X88563Y10719
X88563Y9144
X90138Y25679
X90138Y24104
X90138Y22530
X90138Y20955
X90138Y19380
X90138Y17805
X90138Y16230
X90138Y14656
X90138Y13081
X90138Y11506
X90138Y9931
X90138Y8356
X19075Y38510
X19075Y36266
X19075Y34022
X21043Y38510
X21043Y36266
X21043Y34022
X23012Y38510
X23012Y36266
X23012Y34022
X58933Y34022
X58996Y38510
X58996Y36266
X60965Y38510
X60965Y36266
X60965Y34022
X62933Y38510
X62933Y36266
X62933Y34022
X74862Y38510
X74862Y36266
X74862Y34022
X76831Y38510
X76831Y36266
X76831Y34022
X78799Y38510
X78799Y36266
X78799Y34022
X114720Y34022
X114783Y38510
X114783Y36266
X116752Y38510
X116752Y36266
X116752Y34022
X118720Y38510
X118720Y36266
X118720Y34022
T07
X6299Y31693
X6299Y21654
X8465Y31693
X8465Y21654
T08
X44941Y29498
X44941Y4537
X46319Y30089
X46319Y3947
X52067Y30089
X52067Y3947
X53445Y29498
X53445Y4537
X58957Y10049
X58957Y4301
X59547Y11427
X59547Y2923
X78209Y11427
X78209Y2923
X78799Y10049
X78799Y4301
X84311Y29498
X84311Y4537
X85689Y30089
X85689Y3947
X91437Y30089
X91437Y3947
X92815Y29498
X92815Y4537
T09
X15256Y39376
X66752Y39376
X71043Y39376
X122539Y39376
T10
X48996Y28238
X48996Y5797
X60807Y6978
X76949Y6978
X88760Y28238
X88760Y5797
T11
X12626Y5158
X21626Y5158
X3425Y31693
X3425Y21654
T12
X16063Y41305
X65945Y41305
X71850Y41305
X121732Y41305
M30
