G75*
G70*
%OFA0B0*%
%FSLAX25Y25*%
%IPPOS*%
%LPD*%
%AMOC8*
5,1,8,0,0,1.08239X$1,22.5*
%
%ADD15C,0.06693*%
%ADD16C,0.07874*%
%ADD18R,0.06693X0.06693*%
%ADD21R,0.04331X0.18110*%
%ADD27C,0.11811*%
%ADD29C,0.02913*%
%ADD34R,0.07500X0.07874*%
%ADD40C,0.02362*%
%ADD41C,0.06496*%
%ADD45C,0.09744*%
%ADD56O,0.07500X0.07874*%
%ADD58C,0.13000*%
%ADD59O,0.07677X0.06693*%
%ADD61C,0.13878*%
%ADD68O,0.14567X0.10630*%
%ADD71C,0.09449*%
%ADD79C,0.06000*%
%ADD84R,0.42520X0.37008*%
%ADD85C,0.22736*%
%ADD87C,0.00197*%
%ADD89O,0.06693X0.06693*%
%ADD90C,0.07382*%
%ADD93C,0.11220*%
%ADD97C,0.03900*%
X0000000Y0000000D02*
%LPD*%
G01*
D87*
X0671260Y0016142D02*
X0671260Y0000000D01*
X0021654Y0422047D02*
X0021654Y0438189D01*
X1356299Y0000000D02*
X1377953Y0000000D01*
X0346457Y0016142D02*
X0346457Y0000000D01*
X1095472Y0016142D02*
G75*
G03*
X1095472Y0016142I-006890J0000000D01*
G01*
X0021654Y0000000D02*
X0000000Y0000000D01*
X0346457Y0422047D02*
X0346457Y0438189D01*
X0770669Y0016142D02*
G75*
G03*
X0770669Y0016142I-006890J0000000D01*
G01*
X0671260Y0438189D02*
X0381890Y0438189D01*
X1320866Y0438189D02*
X1031496Y0438189D01*
X1031496Y0016142D02*
X1031496Y0000000D01*
X0381890Y0000000D02*
X0671260Y0000000D01*
X1320866Y0016142D02*
G75*
G02*
X1356299Y0016142I0017717J0000000D01*
G01*
X0996063Y0438189D02*
X0706693Y0438189D01*
X0621063Y0422047D02*
G75*
G03*
X0621063Y0422047I-006890J0000000D01*
G01*
X1356299Y0438189D02*
X1377953Y0438189D01*
X0121063Y0016142D02*
G75*
G03*
X0121063Y0016142I-006890J0000000D01*
G01*
X0706693Y0422047D02*
X0706693Y0438189D01*
X0381890Y0422047D02*
X0381890Y0438189D01*
X1377953Y0000000D02*
X1377953Y0438189D01*
X1356299Y0422047D02*
X1356299Y0438189D01*
X0021654Y0438189D02*
X0000000Y0438189D01*
X1320866Y0016142D02*
X1320866Y0000000D01*
X0996063Y0016142D02*
G75*
G02*
X1031496Y0016142I0017717J0000000D01*
G01*
X0296260Y0422047D02*
G75*
G03*
X0296260Y0422047I-006890J0000000D01*
G01*
X0057087Y0000000D02*
X0346457Y0000000D01*
X0021654Y0016142D02*
X0021654Y0000000D01*
X0445866Y0016142D02*
G75*
G03*
X0445866Y0016142I-006890J0000000D01*
G01*
X0996063Y0422047D02*
G75*
G03*
X1031496Y0422047I0017717J0000000D01*
G01*
X0671260Y0422047D02*
G75*
G03*
X0706693Y0422047I0017717J0000000D01*
G01*
X0057087Y0016142D02*
G75*
G03*
X0021654Y0016142I-017717J0000000D01*
G01*
X0945866Y0422047D02*
G75*
G03*
X0945866Y0422047I-006890J0000000D01*
G01*
X1031496Y0000000D02*
X1320866Y0000000D01*
X1320866Y0422047D02*
X1320866Y0438189D01*
X0671260Y0422047D02*
X0671260Y0438189D01*
X0381890Y0016142D02*
X0381890Y0000000D01*
X0346457Y0438189D02*
X0057087Y0438189D01*
X1031496Y0422047D02*
X1031496Y0438189D01*
X0000000Y0438189D02*
X0000000Y0000000D01*
X1270669Y0016142D02*
G75*
G03*
X1270669Y0016142I-006890J0000000D01*
G01*
X1356299Y0016142D02*
X1356299Y0000000D01*
X0706693Y0016142D02*
X0706693Y0000000D01*
X0381890Y0422047D02*
G75*
G02*
X0346457Y0422047I-017717J0000000D01*
G01*
X0121063Y0422047D02*
G75*
G03*
X0121063Y0422047I-006890J0000000D01*
G01*
X0445866Y0422047D02*
G75*
G03*
X0445866Y0422047I-006890J0000000D01*
G01*
X0996063Y0016142D02*
X0996063Y0000000D01*
X1270669Y0422047D02*
G75*
G03*
X1270669Y0422047I-006890J0000000D01*
G01*
X1320866Y0422047D02*
G75*
G03*
X1356299Y0422047I0017717J0000000D01*
G01*
X0057087Y0422047D02*
G75*
G02*
X0021654Y0422047I-017717J0000000D01*
G01*
X0770669Y0422047D02*
G75*
G03*
X0770669Y0422047I-006890J0000000D01*
G01*
X0706693Y0016142D02*
G75*
G03*
X0671260Y0016142I-017717J0000000D01*
G01*
X0996063Y0422047D02*
X0996063Y0438189D01*
X0057087Y0422047D02*
X0057087Y0438189D01*
X0296260Y0016142D02*
G75*
G03*
X0296260Y0016142I-006890J0000000D01*
G01*
X1095472Y0422047D02*
G75*
G03*
X1095472Y0422047I-006890J0000000D01*
G01*
X0706693Y0000000D02*
X0996063Y0000000D01*
X0621063Y0016142D02*
G75*
G03*
X0621063Y0016142I-006890J0000000D01*
G01*
X0381890Y0016142D02*
G75*
G03*
X0346457Y0016142I-017717J0000000D01*
G01*
X0057087Y0016142D02*
X0057087Y0000000D01*
X0945866Y0016142D02*
G75*
G03*
X0945866Y0016142I-006890J0000000D01*
G01*
D16*
X0573622Y0201181D03*
D15*
X0927165Y0309055D03*
D27*
X0034252Y0316929D03*
G36*
G01*
X0069291Y0311614D02*
X0056693Y0311614D01*
G75*
G02*
X0055709Y0312598I0000000J0000984D01*
G01*
X0055709Y0321260D01*
G75*
G02*
X0056693Y0322244I0000984J0000000D01*
G01*
X0069291Y0322244D01*
G75*
G02*
X0070276Y0321260I0000000J-000984D01*
G01*
X0070276Y0312598D01*
G75*
G02*
X0069291Y0311614I-000984J0000000D01*
G01*
G37*
D68*
X0084646Y0316929D03*
D15*
X0968504Y0092520D03*
X0547244Y0307087D03*
X0968504Y0222441D03*
X0968504Y0257874D03*
G36*
G01*
X1335531Y0266339D02*
X1329823Y0266339D01*
G75*
G02*
X1328839Y0267323I0000000J0000984D01*
G01*
X1328839Y0272047D01*
G75*
G02*
X1329823Y0273031I0000984J0000000D01*
G01*
X1335531Y0273031D01*
G75*
G02*
X1336516Y0272047I0000000J-000984D01*
G01*
X1336516Y0267323D01*
G75*
G02*
X1335531Y0266339I-000984J0000000D01*
G01*
G37*
D59*
X1332677Y0279528D03*
X1332677Y0289370D03*
X1332677Y0299213D03*
X1332677Y0309055D03*
X1332677Y0318898D03*
D18*
X1175984Y0180610D03*
D89*
X1165984Y0180610D03*
X1155984Y0180610D03*
X1145984Y0180610D03*
X1135984Y0180610D03*
X1125984Y0180610D03*
G36*
G01*
X0042421Y0194291D02*
X0048130Y0194291D01*
G75*
G02*
X0049114Y0193307I0000000J-000984D01*
G01*
X0049114Y0188583D01*
G75*
G02*
X0048130Y0187598I-000984J0000000D01*
G01*
X0042421Y0187598D01*
G75*
G02*
X0041437Y0188583I0000000J0000984D01*
G01*
X0041437Y0193307D01*
G75*
G02*
X0042421Y0194291I0000984J0000000D01*
G01*
G37*
D59*
X0045276Y0181102D03*
X0045276Y0171260D03*
X0045276Y0161417D03*
D15*
X0509843Y0307087D03*
X1090551Y0316929D03*
X0387795Y0316929D03*
G36*
G01*
X0042421Y0395079D02*
X0048130Y0395079D01*
G75*
G02*
X0049114Y0394094I0000000J-000984D01*
G01*
X0049114Y0389370D01*
G75*
G02*
X0048130Y0388386I-000984J0000000D01*
G01*
X0042421Y0388386D01*
G75*
G02*
X0041437Y0389370I0000000J0000984D01*
G01*
X0041437Y0394094D01*
G75*
G02*
X0042421Y0395079I0000984J0000000D01*
G01*
G37*
D59*
X0045276Y0381890D03*
X0045276Y0372047D03*
X0045276Y0362205D03*
X0045276Y0352362D03*
X0045276Y0342520D03*
D15*
X0905512Y0309055D03*
X0360000Y0180000D03*
X0360000Y0190000D03*
X0360000Y0200000D03*
X0360000Y0210000D03*
X0360000Y0220000D03*
X0370000Y0180000D03*
X0370000Y0190000D03*
X0370000Y0200000D03*
X0370000Y0210000D03*
X0370000Y0220000D03*
X0380000Y0180000D03*
X0380000Y0190000D03*
X0380000Y0200000D03*
X0380000Y0210000D03*
X0380000Y0220000D03*
X0330000Y0180000D03*
X0330000Y0190000D03*
X0330000Y0200000D03*
X0330000Y0210000D03*
X0330000Y0220000D03*
X0340000Y0180000D03*
X0340000Y0190000D03*
X0340000Y0200000D03*
X0340000Y0210000D03*
X0340000Y0220000D03*
X0350000Y0180000D03*
X0350000Y0190000D03*
X0350000Y0200000D03*
X0350000Y0210000D03*
X0350000Y0220000D03*
X0968504Y0175197D03*
X1102362Y0299213D03*
G36*
G01*
X0042421Y0139173D02*
X0048130Y0139173D01*
G75*
G02*
X0049114Y0138189I0000000J-000984D01*
G01*
X0049114Y0133465D01*
G75*
G02*
X0048130Y0132480I-000984J0000000D01*
G01*
X0042421Y0132480D01*
G75*
G02*
X0041437Y0133465I0000000J0000984D01*
G01*
X0041437Y0138189D01*
G75*
G02*
X0042421Y0139173I0000984J0000000D01*
G01*
G37*
D59*
X0045276Y0125984D03*
X0045276Y0116142D03*
X0045276Y0106299D03*
X0045276Y0096457D03*
X0045276Y0086614D03*
X0045276Y0076772D03*
X0045276Y0066929D03*
D40*
X1108097Y0218947D03*
X1110164Y0222392D03*
X1113117Y0217766D03*
X1127093Y0218061D03*
D15*
X0968504Y0116142D03*
X0399606Y0316929D03*
D41*
X0169291Y0312992D03*
X0169291Y0292992D03*
D15*
X0868110Y0289370D03*
X0486220Y0307087D03*
X0576772Y0314961D03*
X0360000Y0130000D03*
X0360000Y0140000D03*
X0360000Y0150000D03*
X0360000Y0160000D03*
X0360000Y0170000D03*
X0370000Y0130000D03*
X0370000Y0140000D03*
X0370000Y0150000D03*
X0370000Y0160000D03*
X0370000Y0170000D03*
X0380000Y0130000D03*
X0380000Y0140000D03*
X0380000Y0150000D03*
X0380000Y0160000D03*
X0380000Y0170000D03*
X0322835Y0316929D03*
X0300000Y0180000D03*
X0300000Y0190000D03*
X0300000Y0200000D03*
X0300000Y0210000D03*
X0300000Y0220000D03*
X0310000Y0180000D03*
X0310000Y0190000D03*
X0310000Y0200000D03*
X0310000Y0210000D03*
X0310000Y0220000D03*
X0320000Y0180000D03*
X0320000Y0190000D03*
X0320000Y0200000D03*
X0320000Y0210000D03*
X0320000Y0220000D03*
X0413386Y0094488D03*
X0801181Y0314961D03*
X0415354Y0316929D03*
X0413386Y0059055D03*
X0968504Y0246063D03*
X0498031Y0307087D03*
X0868110Y0307087D03*
X0968504Y0187008D03*
X0474409Y0307087D03*
X0968504Y0164173D03*
X1125984Y0299213D03*
X0547244Y0271654D03*
X0844488Y0307087D03*
X0610236Y0314961D03*
D41*
X0190551Y0312992D03*
X0190551Y0292992D03*
G36*
G01*
X1335531Y0041929D02*
X1329823Y0041929D01*
G75*
G02*
X1328839Y0042913I0000000J0000984D01*
G01*
X1328839Y0047638D01*
G75*
G02*
X1329823Y0048622I0000984J0000000D01*
G01*
X1335531Y0048622D01*
G75*
G02*
X1336516Y0047638I0000000J-000984D01*
G01*
X1336516Y0042913D01*
G75*
G02*
X1335531Y0041929I-000984J0000000D01*
G01*
G37*
D59*
X1332677Y0055118D03*
X1332677Y0064961D03*
X1332677Y0074803D03*
X1332677Y0084646D03*
X1332677Y0094488D03*
X1332677Y0104331D03*
X1332677Y0114173D03*
X1332677Y0124016D03*
X1332677Y0133858D03*
D15*
X0968504Y0234252D03*
X0968504Y0051575D03*
X1047244Y0316929D03*
D41*
X0698976Y0372835D03*
X0678976Y0372835D03*
D15*
X0968504Y0127953D03*
D45*
X0629331Y0385098D03*
X0609646Y0385098D03*
X0589961Y0385098D03*
X0629331Y0362657D03*
X0609646Y0362657D03*
X0589961Y0362657D03*
X0629331Y0340217D03*
X0609646Y0340217D03*
X0589331Y0340217D03*
D90*
X0562402Y0387461D03*
X0552402Y0387461D03*
X0542402Y0387461D03*
X0532402Y0387461D03*
X0522402Y0387461D03*
X0512402Y0387461D03*
X0562402Y0377461D03*
X0552402Y0377461D03*
X0542402Y0377461D03*
X0532402Y0377461D03*
X0522402Y0377461D03*
X0512402Y0377461D03*
X0562402Y0353642D03*
X0552402Y0353642D03*
X0542402Y0353642D03*
X0532402Y0353642D03*
X0522402Y0353642D03*
X0512402Y0353642D03*
X0562402Y0343642D03*
X0552402Y0343642D03*
X0542402Y0343642D03*
X0532402Y0343642D03*
X0522402Y0343642D03*
X0512402Y0343642D03*
X0489961Y0387461D03*
X0479961Y0387461D03*
X0469961Y0387461D03*
X0459961Y0387461D03*
X0449961Y0387461D03*
X0439961Y0387461D03*
X0429961Y0387461D03*
X0419961Y0387461D03*
X0409961Y0387461D03*
X0399961Y0387461D03*
X0389961Y0387461D03*
X0379961Y0387461D03*
X0369961Y0387461D03*
X0489961Y0377461D03*
X0479961Y0377461D03*
X0469961Y0377461D03*
X0459961Y0377461D03*
X0449961Y0377461D03*
X0439961Y0377461D03*
X0429961Y0377461D03*
X0419961Y0377461D03*
X0409961Y0377461D03*
X0399961Y0377461D03*
X0389961Y0377461D03*
X0379961Y0377461D03*
X0369961Y0377461D03*
X0489961Y0353642D03*
X0479961Y0353642D03*
X0469961Y0353642D03*
X0459961Y0353642D03*
X0449961Y0353642D03*
X0439961Y0353642D03*
X0429961Y0353642D03*
X0419961Y0353642D03*
X0409961Y0353642D03*
X0399961Y0353642D03*
X0389961Y0353642D03*
X0379961Y0353642D03*
X0369961Y0353642D03*
X0489961Y0343642D03*
X0479961Y0343642D03*
X0469961Y0343642D03*
X0459961Y0343642D03*
X0449961Y0343642D03*
X0439961Y0343642D03*
X0429961Y0343642D03*
X0419961Y0343642D03*
X0409961Y0343642D03*
X0399961Y0343642D03*
X0389961Y0343642D03*
X0379961Y0343642D03*
X0369961Y0343642D03*
X0347441Y0387461D03*
X0337441Y0387461D03*
X0327441Y0387461D03*
X0317441Y0387461D03*
X0307441Y0387461D03*
X0297441Y0387461D03*
X0287441Y0387461D03*
X0277441Y0387461D03*
X0267441Y0387461D03*
X0257441Y0387461D03*
X0347441Y0377461D03*
X0337441Y0377461D03*
X0327441Y0377461D03*
X0317441Y0377461D03*
X0307441Y0377461D03*
X0297441Y0377461D03*
X0287441Y0377461D03*
X0277441Y0377461D03*
X0267441Y0377461D03*
X0257441Y0377461D03*
X0347441Y0353642D03*
X0337441Y0353642D03*
X0327441Y0353642D03*
X0317441Y0353642D03*
X0307441Y0353642D03*
X0297441Y0353642D03*
X0287441Y0353642D03*
X0277441Y0353642D03*
X0267441Y0353642D03*
X0257441Y0353642D03*
X0347441Y0343642D03*
X0337441Y0343642D03*
X0327441Y0343642D03*
X0317441Y0343642D03*
X0307441Y0343642D03*
X0297441Y0343642D03*
X0287441Y0343642D03*
X0277441Y0343642D03*
X0267441Y0343642D03*
X0257441Y0343642D03*
D45*
X0230118Y0385098D03*
X0210433Y0385098D03*
X0190748Y0385098D03*
X0230118Y0362657D03*
X0210433Y0362657D03*
X0190748Y0362657D03*
X0230118Y0340217D03*
X0210433Y0340217D03*
X0190748Y0340217D03*
D61*
X0667520Y0393760D03*
X0152559Y0393760D03*
D85*
X0659449Y0413051D03*
X0160630Y0413051D03*
D15*
X0968504Y0104331D03*
X0415354Y0299213D03*
D18*
X1175984Y0067913D03*
D89*
X1165984Y0067913D03*
X1155984Y0067913D03*
X1145984Y0067913D03*
X1135984Y0067913D03*
X1125984Y0067913D03*
D15*
X0413386Y0070866D03*
X1125984Y0316929D03*
D41*
X0147638Y0312992D03*
X0147638Y0292992D03*
D15*
X1027559Y0316929D03*
X0968504Y0063386D03*
X1066929Y0316929D03*
X0450787Y0307087D03*
D40*
X1108097Y0106742D03*
X1110164Y0110187D03*
X1113117Y0105561D03*
X1127093Y0105856D03*
D27*
X0034252Y0216535D03*
G36*
G01*
X0069291Y0211220D02*
X0056693Y0211220D01*
G75*
G02*
X0055709Y0212205I0000000J0000984D01*
G01*
X0055709Y0220866D01*
G75*
G02*
X0056693Y0221850I0000984J0000000D01*
G01*
X0069291Y0221850D01*
G75*
G02*
X0070276Y0220866I0000000J-000984D01*
G01*
X0070276Y0212205D01*
G75*
G02*
X0069291Y0211220I-000984J0000000D01*
G01*
G37*
D68*
X0084646Y0216535D03*
D15*
X0498031Y0295276D03*
X0509843Y0289370D03*
X1114173Y0316929D03*
X0547244Y0289370D03*
D79*
X0879921Y0314764D03*
X0879921Y0295472D03*
D15*
X0299213Y0316929D03*
X0413386Y0035433D03*
G36*
G01*
X1335531Y0339173D02*
X1329823Y0339173D01*
G75*
G02*
X1328839Y0340157I0000000J0000984D01*
G01*
X1328839Y0344882D01*
G75*
G02*
X1329823Y0345866I0000984J0000000D01*
G01*
X1335531Y0345866D01*
G75*
G02*
X1336516Y0344882I0000000J-000984D01*
G01*
X1336516Y0340157D01*
G75*
G02*
X1335531Y0339173I-000984J0000000D01*
G01*
G37*
D59*
X1332677Y0352362D03*
X1332677Y0362205D03*
X1332677Y0372047D03*
X1332677Y0381890D03*
X1332677Y0391732D03*
D15*
X0437008Y0307087D03*
X0787402Y0314961D03*
D93*
X0489961Y0282382D03*
D16*
X0843110Y0045374D03*
X0782087Y0114272D03*
X0595472Y0029232D03*
D93*
X0769488Y0069783D03*
D16*
X0782087Y0029232D03*
X0589567Y0100492D03*
X0928150Y0045374D03*
D93*
X0887598Y0057972D03*
D16*
X0534449Y0294980D03*
X0520669Y0039469D03*
X0463189Y0039469D03*
X0856890Y0300886D03*
D93*
X0489961Y0057972D03*
D16*
X0595472Y0114272D03*
D93*
X0608071Y0069783D03*
D16*
X0589567Y0043012D03*
X0914370Y0039469D03*
X0787992Y0043012D03*
X0534449Y0045374D03*
X0520669Y0300886D03*
X0463189Y0300886D03*
X0449409Y0045374D03*
X0449409Y0294980D03*
D93*
X0887598Y0282382D03*
D16*
X0914370Y0300886D03*
X0843110Y0294980D03*
X0928150Y0294980D03*
X0856890Y0039469D03*
X0787992Y0100492D03*
D71*
X0901378Y0083563D03*
X0901378Y0099311D03*
X0901378Y0115059D03*
X0901378Y0130807D03*
X0901378Y0146555D03*
X0901378Y0162303D03*
X0901378Y0178051D03*
X0901378Y0193799D03*
X0901378Y0209547D03*
X0901378Y0225295D03*
X0901378Y0241043D03*
X0901378Y0256791D03*
X0885630Y0091437D03*
X0885630Y0107185D03*
X0885630Y0122933D03*
X0885630Y0138681D03*
X0885630Y0154429D03*
X0885630Y0170177D03*
X0885630Y0185925D03*
X0885630Y0201673D03*
X0885630Y0217421D03*
X0885630Y0233169D03*
X0885630Y0248917D03*
X0869882Y0083563D03*
X0869882Y0099311D03*
X0869882Y0115059D03*
X0869882Y0130807D03*
X0869882Y0146555D03*
X0869882Y0162303D03*
X0869882Y0178051D03*
X0869882Y0193799D03*
X0869882Y0209547D03*
X0869882Y0225295D03*
X0869882Y0241043D03*
X0869882Y0256791D03*
X0633661Y0056004D03*
X0649409Y0056004D03*
X0665157Y0056004D03*
X0680906Y0056004D03*
X0696654Y0056004D03*
X0712402Y0056004D03*
X0728150Y0056004D03*
X0743898Y0056004D03*
X0641535Y0071752D03*
X0657283Y0071752D03*
X0673032Y0071752D03*
X0688780Y0071752D03*
X0704528Y0071752D03*
X0720276Y0071752D03*
X0736024Y0071752D03*
X0633661Y0087500D03*
X0649409Y0087500D03*
X0665157Y0087500D03*
X0680906Y0087500D03*
X0696654Y0087500D03*
X0712402Y0087500D03*
X0728150Y0087500D03*
X0743898Y0087500D03*
X0476181Y0256791D03*
X0476181Y0241043D03*
X0476181Y0225295D03*
X0476181Y0209547D03*
X0476181Y0193799D03*
X0476181Y0178051D03*
X0476181Y0162303D03*
X0476181Y0146555D03*
X0476181Y0130807D03*
X0476181Y0115059D03*
X0476181Y0099311D03*
X0476181Y0083563D03*
X0491929Y0248917D03*
X0491929Y0233169D03*
X0491929Y0217421D03*
X0491929Y0201673D03*
X0491929Y0185925D03*
X0491929Y0170177D03*
X0491929Y0154429D03*
X0491929Y0138681D03*
X0491929Y0122933D03*
X0491929Y0107185D03*
X0491929Y0091437D03*
X0507677Y0256791D03*
X0507677Y0241043D03*
X0507677Y0225295D03*
X0507677Y0209547D03*
X0507677Y0193799D03*
X0507677Y0178051D03*
X0507677Y0162303D03*
X0507677Y0146555D03*
X0507677Y0130807D03*
X0507677Y0115059D03*
X0507677Y0099311D03*
X0507677Y0083563D03*
D15*
X0533465Y0307087D03*
X0360000Y0100000D03*
X0350000Y0100000D03*
X0340000Y0100000D03*
X0330000Y0100000D03*
X0320000Y0100000D03*
X0360000Y0110000D03*
X0350000Y0110000D03*
X0340000Y0110000D03*
X0330000Y0110000D03*
X0320000Y0110000D03*
X0360000Y0120000D03*
X0350000Y0120000D03*
X0340000Y0120000D03*
X0330000Y0120000D03*
X0320000Y0120000D03*
G36*
G01*
X0042421Y0294685D02*
X0048130Y0294685D01*
G75*
G02*
X0049114Y0293701I0000000J-000984D01*
G01*
X0049114Y0288976D01*
G75*
G02*
X0048130Y0287992I-000984J0000000D01*
G01*
X0042421Y0287992D01*
G75*
G02*
X0041437Y0288976I0000000J0000984D01*
G01*
X0041437Y0293701D01*
G75*
G02*
X0042421Y0294685I0000984J0000000D01*
G01*
G37*
D59*
X0045276Y0281496D03*
X0045276Y0271654D03*
X0045276Y0261811D03*
X0045276Y0251969D03*
X0045276Y0242126D03*
G36*
G01*
X1335531Y0154134D02*
X1329823Y0154134D01*
G75*
G02*
X1328839Y0155118I0000000J0000984D01*
G01*
X1328839Y0159843D01*
G75*
G02*
X1329823Y0160827I0000984J0000000D01*
G01*
X1335531Y0160827D01*
G75*
G02*
X1336516Y0159843I0000000J-000984D01*
G01*
X1336516Y0155118D01*
G75*
G02*
X1335531Y0154134I-000984J0000000D01*
G01*
G37*
X1332677Y0167323D03*
X1332677Y0177165D03*
X1332677Y0187008D03*
X1332677Y0196850D03*
X1332677Y0206693D03*
X1332677Y0216535D03*
X1332677Y0226378D03*
X1332677Y0236220D03*
X1332677Y0246063D03*
D79*
X1167323Y0316732D03*
X1167323Y0297441D03*
D15*
X0413386Y0153543D03*
X0891732Y0307087D03*
X0413386Y0137795D03*
X1007874Y0316929D03*
X0968504Y0138976D03*
X1078740Y0299213D03*
D41*
X0698976Y0338189D03*
X0678976Y0338189D03*
D15*
X0257874Y0316929D03*
X0413386Y0082677D03*
D41*
X0698976Y0355512D03*
X0678976Y0355512D03*
D15*
X0300000Y0130000D03*
X0300000Y0140000D03*
X0300000Y0150000D03*
X0300000Y0160000D03*
X0300000Y0170000D03*
X0310000Y0130000D03*
X0310000Y0140000D03*
X0310000Y0150000D03*
X0310000Y0160000D03*
X0310000Y0170000D03*
X0320000Y0130000D03*
X0320000Y0140000D03*
X0320000Y0150000D03*
X0320000Y0160000D03*
X0320000Y0170000D03*
X1078740Y0316929D03*
X1102362Y0316929D03*
X0968504Y0081102D03*
X0968504Y0151575D03*
D58*
X0126260Y0051577D03*
X0216260Y0051577D03*
D79*
X0196260Y0101577D03*
X0186260Y0101577D03*
X0176260Y0101577D03*
X0166260Y0101577D03*
X0156260Y0101577D03*
X0146260Y0101577D03*
D15*
X0968504Y0210630D03*
D45*
X1187205Y0385098D03*
X1167520Y0385098D03*
X1147835Y0385098D03*
X1187205Y0362657D03*
X1167520Y0362657D03*
X1147835Y0362657D03*
X1187205Y0340217D03*
X1167520Y0340217D03*
X1147205Y0340217D03*
D90*
X1120276Y0387461D03*
X1110276Y0387461D03*
X1100276Y0387461D03*
X1090276Y0387461D03*
X1080276Y0387461D03*
X1070276Y0387461D03*
X1120276Y0377461D03*
X1110276Y0377461D03*
X1100276Y0377461D03*
X1090276Y0377461D03*
X1080276Y0377461D03*
X1070276Y0377461D03*
X1120276Y0353642D03*
X1110276Y0353642D03*
X1100276Y0353642D03*
X1090276Y0353642D03*
X1080276Y0353642D03*
X1070276Y0353642D03*
X1120276Y0343642D03*
X1110276Y0343642D03*
X1100276Y0343642D03*
X1090276Y0343642D03*
X1080276Y0343642D03*
X1070276Y0343642D03*
X1047835Y0387461D03*
X1037835Y0387461D03*
X1027835Y0387461D03*
X1017835Y0387461D03*
X1007835Y0387461D03*
X0997835Y0387461D03*
X0987835Y0387461D03*
X0977835Y0387461D03*
X0967835Y0387461D03*
X0957835Y0387461D03*
X0947835Y0387461D03*
X0937835Y0387461D03*
X0927835Y0387461D03*
X1047835Y0377461D03*
X1037835Y0377461D03*
X1027835Y0377461D03*
X1017835Y0377461D03*
X1007835Y0377461D03*
X0997835Y0377461D03*
X0987835Y0377461D03*
X0977835Y0377461D03*
X0967835Y0377461D03*
X0957835Y0377461D03*
X0947835Y0377461D03*
X0937835Y0377461D03*
X0927835Y0377461D03*
X1047835Y0353642D03*
X1037835Y0353642D03*
X1027835Y0353642D03*
X1017835Y0353642D03*
X1007835Y0353642D03*
X0997835Y0353642D03*
X0987835Y0353642D03*
X0977835Y0353642D03*
X0967835Y0353642D03*
X0957835Y0353642D03*
X0947835Y0353642D03*
X0937835Y0353642D03*
X0927835Y0353642D03*
X1047835Y0343642D03*
X1037835Y0343642D03*
X1027835Y0343642D03*
X1017835Y0343642D03*
X1007835Y0343642D03*
X0997835Y0343642D03*
X0987835Y0343642D03*
X0977835Y0343642D03*
X0967835Y0343642D03*
X0957835Y0343642D03*
X0947835Y0343642D03*
X0937835Y0343642D03*
X0927835Y0343642D03*
X0905315Y0387461D03*
X0895315Y0387461D03*
X0885315Y0387461D03*
X0875315Y0387461D03*
X0865315Y0387461D03*
X0855315Y0387461D03*
X0845315Y0387461D03*
X0835315Y0387461D03*
X0825315Y0387461D03*
X0815315Y0387461D03*
X0905315Y0377461D03*
X0895315Y0377461D03*
X0885315Y0377461D03*
X0875315Y0377461D03*
X0865315Y0377461D03*
X0855315Y0377461D03*
X0845315Y0377461D03*
X0835315Y0377461D03*
X0825315Y0377461D03*
X0815315Y0377461D03*
X0905315Y0353642D03*
X0895315Y0353642D03*
X0885315Y0353642D03*
X0875315Y0353642D03*
X0865315Y0353642D03*
X0855315Y0353642D03*
X0845315Y0353642D03*
X0835315Y0353642D03*
X0825315Y0353642D03*
X0815315Y0353642D03*
X0905315Y0343642D03*
X0895315Y0343642D03*
X0885315Y0343642D03*
X0875315Y0343642D03*
X0865315Y0343642D03*
X0855315Y0343642D03*
X0845315Y0343642D03*
X0835315Y0343642D03*
X0825315Y0343642D03*
X0815315Y0343642D03*
D45*
X0787992Y0385098D03*
X0768307Y0385098D03*
X0748622Y0385098D03*
X0787992Y0362657D03*
X0768307Y0362657D03*
X0748622Y0362657D03*
X0787992Y0340217D03*
X0768307Y0340217D03*
X0748622Y0340217D03*
D61*
X1225394Y0393760D03*
X0710433Y0393760D03*
D85*
X1217323Y0413051D03*
X0718504Y0413051D03*
D15*
X0814961Y0314961D03*
X0562992Y0314961D03*
X0311024Y0316929D03*
X1090551Y0299213D03*
X0830709Y0307087D03*
X0257874Y0299213D03*
X0533465Y0277559D03*
X0629921Y0314961D03*
X0968504Y0198819D03*
X0330000Y0130000D03*
X0330000Y0140000D03*
X0330000Y0150000D03*
X0330000Y0160000D03*
X0330000Y0170000D03*
X0340000Y0130000D03*
X0340000Y0140000D03*
X0340000Y0150000D03*
X0340000Y0160000D03*
X0340000Y0170000D03*
X0350000Y0130000D03*
X0350000Y0140000D03*
X0350000Y0150000D03*
X0350000Y0160000D03*
X0350000Y0170000D03*
X0413386Y0047244D03*
X0590551Y0314961D03*
X1187008Y0312992D03*
X1114173Y0299213D03*
X0287402Y0316929D03*
D21*
X0682461Y0261516D03*
D84*
X0672461Y0297539D03*
D21*
X0662461Y0261516D03*
G36*
G01*
X0709567Y0260335D02*
X0698346Y0260335D01*
G75*
G02*
X0697362Y0261319I0000000J0000984D01*
G01*
X0697362Y0264173D01*
G75*
G02*
X0698346Y0265157I0000984J0000000D01*
G01*
X0709567Y0265157D01*
G75*
G02*
X0710551Y0264173I0000000J-000984D01*
G01*
X0710551Y0261319D01*
G75*
G02*
X0709567Y0260335I-000984J0000000D01*
G01*
G37*
G36*
G01*
X0709567Y0283661D02*
X0698346Y0283661D01*
G75*
G02*
X0697362Y0284646I0000000J0000984D01*
G01*
X0697362Y0287500D01*
G75*
G02*
X0698346Y0288484I0000984J0000000D01*
G01*
X0709567Y0288484D01*
G75*
G02*
X0710551Y0287500I0000000J-000984D01*
G01*
X0710551Y0284646D01*
G75*
G02*
X0709567Y0283661I-000984J0000000D01*
G01*
G37*
G36*
G01*
X0697461Y0253189D02*
X0697461Y0256260D01*
G75*
G02*
X0697736Y0256535I0000276J0000000D01*
G01*
X0699941Y0256535D01*
G75*
G02*
X0700217Y0256260I0000000J-000276D01*
G01*
X0700217Y0253189D01*
G75*
G02*
X0699941Y0252913I-000276J0000000D01*
G01*
X0697736Y0252913D01*
G75*
G02*
X0697461Y0253189I0000000J0000276D01*
G01*
G37*
G36*
G01*
X0703760Y0253189D02*
X0703760Y0256260D01*
G75*
G02*
X0704035Y0256535I0000276J0000000D01*
G01*
X0706240Y0256535D01*
G75*
G02*
X0706516Y0256260I0000000J-000276D01*
G01*
X0706516Y0253189D01*
G75*
G02*
X0706240Y0252913I-000276J0000000D01*
G01*
X0704035Y0252913D01*
G75*
G02*
X0703760Y0253189I0000000J0000276D01*
G01*
G37*
X1137598Y0078051D02*
%LPD*%
G01*
D34*
X1278307Y0129626D03*
D56*
X1268307Y0129626D03*
X1258307Y0129626D03*
D97*
X1141771Y0088878D03*
X1161771Y0084878D03*
X1161771Y0092878D03*
X1102684Y0249262D02*
G01*
G75*
D29*
X1127093Y0218061D02*
D03*
X1113117Y0217766D02*
D03*
X1108097Y0218947D02*
D03*
X1110164Y0222392D02*
D03*
X1137598Y0190748D02*
%LPD*%
G01*
D34*
X1278307Y0242323D03*
D56*
X1268307Y0242323D03*
X1258307Y0242323D03*
D97*
X1141771Y0201575D03*
X1161771Y0197575D03*
X1161771Y0205575D03*
X1102684Y0137057D02*
G01*
G75*
D29*
X1127093Y0105856D02*
D03*
X1113117Y0105561D02*
D03*
X1108097Y0106742D02*
D03*
X1110164Y0110187D02*
D03*
M02*
