G04 #@! TF.GenerationSoftware,KiCad,Pcbnew,(5.99.0-12439-g94954386e6)*
G04 #@! TF.CreationDate,2021-10-25T23:58:22+03:00*
G04 #@! TF.ProjectId,proteusM73tu,70726f74-6575-4734-9d37-3374752e6b69,a*
G04 #@! TF.SameCoordinates,PX2160ec0PYcfb5d40*
G04 #@! TF.FileFunction,Soldermask,Bot*
G04 #@! TF.FilePolarity,Negative*
%FSLAX46Y46*%
G04 Gerber Fmt 4.6, Leading zero omitted, Abs format (unit mm)*
G04 Created by KiCad (PCBNEW (5.99.0-12439-g94954386e6)) date 2021-10-25 23:58:22*
%MOMM*%
%LPD*%
G01*
G04 APERTURE LIST*
G04 #@! TA.AperFunction,Profile*
%ADD10C,0.050000*%
G04 #@! TD*
%ADD11C,2.000000*%
%ADD12C,1.700000*%
%ADD13C,3.000000*%
%ADD14O,3.700000X2.700000*%
%ADD15O,1.950000X1.700000*%
%ADD16R,1.700000X1.700000*%
%ADD17O,1.700000X1.700000*%
%ADD18C,0.599999*%
%ADD19C,1.650000*%
%ADD20C,2.475000*%
%ADD21C,1.875000*%
%ADD22C,3.525000*%
%ADD23C,5.775000*%
%ADD24C,1.524000*%
%ADD25C,2.850000*%
%ADD26C,2.400000*%
%ADD27C,3.302000*%
%ADD28R,1.100000X4.600000*%
%ADD29R,10.800000X9.400000*%
G04 APERTURE END LIST*
D10*
X170500000Y4100000D02*
X170500000Y0D01*
X5500000Y107200000D02*
X5500000Y111300000D01*
X344500000Y0D02*
X350000000Y0D01*
X88000000Y4100000D02*
X88000000Y0D01*
X278250000Y4100000D02*
G75*
G03*
X278250000Y4100000I-1750000J0D01*
G01*
X5500000Y0D02*
X0Y0D01*
X88000000Y107200000D02*
X88000000Y111300000D01*
X195750000Y4100000D02*
G75*
G03*
X195750000Y4100000I-1750000J0D01*
G01*
X170500000Y111300000D02*
X97000000Y111300000D01*
X335500000Y111300000D02*
X262000000Y111300000D01*
X262000000Y4100000D02*
X262000000Y0D01*
X97000000Y0D02*
X170500000Y0D01*
X335500000Y4100000D02*
G75*
G02*
X344500000Y4100000I4500000J0D01*
G01*
X253000001Y111300000D02*
X179500000Y111300000D01*
X157750000Y107200000D02*
G75*
G03*
X157750000Y107200000I-1750000J0D01*
G01*
X344500000Y111300000D02*
X349999999Y111300000D01*
X30750000Y4100000D02*
G75*
G03*
X30750000Y4100000I-1750000J0D01*
G01*
X179500000Y107200000D02*
X179500000Y111300000D01*
X97000000Y107200000D02*
X97000000Y111300000D01*
X350000000Y0D02*
X350000000Y111300000D01*
X344500000Y107200000D02*
X344500000Y111300000D01*
X5500000Y111300000D02*
X0Y111300000D01*
X335500000Y4100000D02*
X335500000Y0D01*
X253000000Y4100000D02*
G75*
G02*
X262000000Y4100000I4500000J0D01*
G01*
X75250000Y107200000D02*
G75*
G03*
X75250000Y107200000I-1750000J0D01*
G01*
X14500000Y0D02*
X88000000Y0D01*
X5500000Y4100000D02*
X5500000Y0D01*
X113250000Y4100000D02*
G75*
G03*
X113250000Y4100000I-1750000J0D01*
G01*
X253000000Y107200000D02*
G75*
G03*
X262000000Y107200000I4500000J0D01*
G01*
X170500000Y107200000D02*
G75*
G03*
X179500000Y107200000I4500000J0D01*
G01*
X14500000Y4100000D02*
G75*
G03*
X5500000Y4100000I-4500000J0D01*
G01*
X240250000Y107200000D02*
G75*
G03*
X240250000Y107200000I-1750000J0D01*
G01*
X262000000Y0D02*
X335500000Y0D01*
X335500000Y107200000D02*
X335500000Y111300000D01*
X170500000Y107200000D02*
X170500000Y111300000D01*
X97000000Y4100000D02*
X97000000Y0D01*
X88000000Y111300000D02*
X14500000Y111300000D01*
X262000000Y107200000D02*
X262000000Y111300000D01*
X0Y111300000D02*
X0Y0D01*
X322750000Y4100000D02*
G75*
G03*
X322750000Y4100000I-1750000J0D01*
G01*
X344500000Y4100000D02*
X344500000Y0D01*
X179500000Y4100000D02*
X179500000Y0D01*
X97000000Y107200000D02*
G75*
G02*
X88000000Y107200000I-4500000J0D01*
G01*
X30750000Y107200000D02*
G75*
G03*
X30750000Y107200000I-1750000J0D01*
G01*
X113250000Y107200000D02*
G75*
G03*
X113250000Y107200000I-1750000J0D01*
G01*
X253000000Y4100000D02*
X253000000Y0D01*
X322750000Y107200000D02*
G75*
G03*
X322750000Y107200000I-1750000J0D01*
G01*
X335500000Y107200000D02*
G75*
G03*
X344500000Y107200000I4500000J0D01*
G01*
X14500000Y107200000D02*
G75*
G02*
X5500000Y107200000I-4500000J0D01*
G01*
X195750000Y107200000D02*
G75*
G03*
X195750000Y107200000I-1750000J0D01*
G01*
X179500000Y4100000D02*
G75*
G03*
X170500000Y4100000I-4500000J0D01*
G01*
X253000000Y107200000D02*
X253000001Y111300000D01*
X14500000Y107200000D02*
X14500000Y111300000D01*
X75250000Y4100000D02*
G75*
G03*
X75250000Y4100000I-1750000J0D01*
G01*
X278250000Y107200000D02*
G75*
G03*
X278250000Y107200000I-1750000J0D01*
G01*
X179500000Y0D02*
X253000000Y0D01*
X157750000Y4100000D02*
G75*
G03*
X157750000Y4100000I-1750000J0D01*
G01*
X97000000Y4100000D02*
G75*
G03*
X88000000Y4100000I-4500000J0D01*
G01*
X14500000Y4100000D02*
X14500000Y0D01*
X240250000Y4100000D02*
G75*
G03*
X240250000Y4100000I-1750000J0D01*
G01*
D11*
G04 #@! TO.C,J20*
X145700000Y51100000D03*
G04 #@! TD*
D12*
G04 #@! TO.C,P18*
X235500000Y78500000D03*
G04 #@! TD*
D13*
G04 #@! TO.C,J1*
X8700000Y80500000D03*
G36*
G01*
X17599999Y79150000D02*
X14400001Y79150000D01*
G75*
G02*
X14150000Y79400001I0J250001D01*
G01*
X14150000Y81599999D01*
G75*
G02*
X14400001Y81850000I250001J0D01*
G01*
X17599999Y81850000D01*
G75*
G02*
X17850000Y81599999I0J-250001D01*
G01*
X17850000Y79400001D01*
G75*
G02*
X17599999Y79150000I-250001J0D01*
G01*
G37*
D14*
X21500000Y80500000D03*
G04 #@! TD*
D12*
G04 #@! TO.C,P47*
X246000000Y23500000D03*
G04 #@! TD*
G04 #@! TO.C,P76*
X139000000Y78000000D03*
G04 #@! TD*
G04 #@! TO.C,P51*
X246000000Y56500000D03*
G04 #@! TD*
G04 #@! TO.C,P67*
X246000000Y65500000D03*
G04 #@! TD*
G04 #@! TO.C,J17*
G36*
G01*
X339225000Y67650000D02*
X337775000Y67650000D01*
G75*
G02*
X337525000Y67900000I0J250000D01*
G01*
X337525000Y69100000D01*
G75*
G02*
X337775000Y69350000I250000J0D01*
G01*
X339225000Y69350000D01*
G75*
G02*
X339475000Y69100000I0J-250000D01*
G01*
X339475000Y67900000D01*
G75*
G02*
X339225000Y67650000I-250000J0D01*
G01*
G37*
D15*
X338500000Y71000000D03*
X338500000Y73500000D03*
X338500000Y76000000D03*
X338500000Y78500000D03*
X338500000Y81000000D03*
G04 #@! TD*
D16*
G04 #@! TO.C,J3*
X298700000Y45875000D03*
D17*
X296160000Y45875000D03*
X293620000Y45875000D03*
X291080000Y45875000D03*
X288540000Y45875000D03*
X286000000Y45875000D03*
G04 #@! TD*
G04 #@! TO.C,J6*
G36*
G01*
X10775000Y49350000D02*
X12225000Y49350000D01*
G75*
G02*
X12475000Y49100000I0J-250000D01*
G01*
X12475000Y47900000D01*
G75*
G02*
X12225000Y47650000I-250000J0D01*
G01*
X10775000Y47650000D01*
G75*
G02*
X10525000Y47900000I0J250000D01*
G01*
X10525000Y49100000D01*
G75*
G02*
X10775000Y49350000I250000J0D01*
G01*
G37*
D15*
X11500000Y46000000D03*
X11500000Y43500000D03*
X11500000Y41000000D03*
G04 #@! TD*
D12*
G04 #@! TO.C,P79*
X129500000Y78000000D03*
G04 #@! TD*
G04 #@! TO.C,P8*
X277000000Y80500000D03*
G04 #@! TD*
G04 #@! TO.C,P36*
X98500000Y80500000D03*
G04 #@! TD*
G04 #@! TO.C,J5*
G36*
G01*
X10775000Y100350000D02*
X12225000Y100350000D01*
G75*
G02*
X12475000Y100100000I0J-250000D01*
G01*
X12475000Y98900000D01*
G75*
G02*
X12225000Y98650000I-250000J0D01*
G01*
X10775000Y98650000D01*
G75*
G02*
X10525000Y98900000I0J250000D01*
G01*
X10525000Y100100000D01*
G75*
G02*
X10775000Y100350000I250000J0D01*
G01*
G37*
D15*
X11500000Y97000000D03*
X11500000Y94500000D03*
X11500000Y92000000D03*
X11500000Y89500000D03*
X11500000Y87000000D03*
G04 #@! TD*
D12*
G04 #@! TO.C,P19*
X230000000Y78500000D03*
G04 #@! TD*
G04 #@! TO.C,G3*
X91440000Y45720000D03*
X91440000Y48260000D03*
X91440000Y50800000D03*
X91440000Y53340000D03*
X91440000Y55880000D03*
X93980000Y45720000D03*
X93980000Y48260000D03*
X93980000Y50800000D03*
X93980000Y53340000D03*
X93980000Y55880000D03*
X96520000Y45720000D03*
X96520000Y48260000D03*
X96520000Y50800000D03*
X96520000Y53340000D03*
X96520000Y55880000D03*
G04 #@! TD*
G04 #@! TO.C,G2*
X83820000Y45720000D03*
X83820000Y48260000D03*
X83820000Y50800000D03*
X83820000Y53340000D03*
X83820000Y55880000D03*
X86360000Y45720000D03*
X86360000Y48260000D03*
X86360000Y50800000D03*
X86360000Y53340000D03*
X86360000Y55880000D03*
X88900000Y45720000D03*
X88900000Y48260000D03*
X88900000Y50800000D03*
X88900000Y53340000D03*
X88900000Y55880000D03*
G04 #@! TD*
G04 #@! TO.C,P54*
X246000000Y44500000D03*
G04 #@! TD*
G04 #@! TO.C,P7*
X280000000Y76000000D03*
G04 #@! TD*
G04 #@! TO.C,J19*
G36*
G01*
X10775000Y35350000D02*
X12225000Y35350000D01*
G75*
G02*
X12475000Y35100000I0J-250000D01*
G01*
X12475000Y33900000D01*
G75*
G02*
X12225000Y33650000I-250000J0D01*
G01*
X10775000Y33650000D01*
G75*
G02*
X10525000Y33900000I0J250000D01*
G01*
X10525000Y35100000D01*
G75*
G02*
X10775000Y35350000I250000J0D01*
G01*
G37*
D15*
X11500000Y32000000D03*
X11500000Y29500000D03*
X11500000Y27000000D03*
X11500000Y24500000D03*
X11500000Y22000000D03*
X11500000Y19500000D03*
X11500000Y17000000D03*
G04 #@! TD*
D18*
G04 #@! TO.C,M2*
X281456662Y55612501D03*
X281981662Y56487503D03*
X282731660Y55312499D03*
X286281661Y55387502D03*
G04 #@! TD*
D12*
G04 #@! TO.C,P45*
X246000000Y29500000D03*
G04 #@! TD*
G04 #@! TO.C,P38*
X101500000Y80500000D03*
G04 #@! TD*
D19*
G04 #@! TO.C,F7*
X43000000Y79500000D03*
X43000000Y74420000D03*
G04 #@! TD*
D12*
G04 #@! TO.C,P20*
X220500000Y73500000D03*
G04 #@! TD*
G04 #@! TO.C,P31*
X123500000Y78000000D03*
G04 #@! TD*
G04 #@! TO.C,P61*
X146500000Y80000000D03*
G04 #@! TD*
G04 #@! TO.C,G1*
X91440000Y33020000D03*
X91440000Y35560000D03*
X91440000Y38100000D03*
X91440000Y40640000D03*
X91440000Y43180000D03*
X93980000Y33020000D03*
X93980000Y35560000D03*
X93980000Y38100000D03*
X93980000Y40640000D03*
X93980000Y43180000D03*
X96520000Y33020000D03*
X96520000Y35560000D03*
X96520000Y38100000D03*
X96520000Y40640000D03*
X96520000Y43180000D03*
G04 #@! TD*
G04 #@! TO.C,P39*
X82000000Y80500000D03*
G04 #@! TD*
G04 #@! TO.C,G7*
X76200000Y45720000D03*
X76200000Y48260000D03*
X76200000Y50800000D03*
X76200000Y53340000D03*
X76200000Y55880000D03*
X78740000Y45720000D03*
X78740000Y48260000D03*
X78740000Y50800000D03*
X78740000Y53340000D03*
X78740000Y55880000D03*
X81280000Y45720000D03*
X81280000Y48260000D03*
X81280000Y50800000D03*
X81280000Y53340000D03*
X81280000Y55880000D03*
G04 #@! TD*
G04 #@! TO.C,P73*
X105000000Y24000000D03*
G04 #@! TD*
G04 #@! TO.C,P24*
X203500000Y80000000D03*
G04 #@! TD*
G04 #@! TO.C,P37*
X105500000Y80500000D03*
G04 #@! TD*
G04 #@! TO.C,P62*
X105000000Y15000000D03*
G04 #@! TD*
G04 #@! TO.C,P49*
X246000000Y62500000D03*
G04 #@! TD*
G04 #@! TO.C,P75*
X126500000Y78000000D03*
G04 #@! TD*
G04 #@! TO.C,P26*
X220500000Y78000000D03*
G04 #@! TD*
G04 #@! TO.C,P68*
X246000000Y47500000D03*
G04 #@! TD*
G04 #@! TO.C,P30*
X120500000Y78000000D03*
G04 #@! TD*
G04 #@! TO.C,P55*
X246000000Y41700000D03*
G04 #@! TD*
G04 #@! TO.C,P5*
X286000000Y76000000D03*
G04 #@! TD*
G04 #@! TO.C,P1*
X139000000Y69000000D03*
G04 #@! TD*
G04 #@! TO.C,P27*
X214500000Y78000000D03*
G04 #@! TD*
G04 #@! TO.C,P29*
X155000000Y80000000D03*
G04 #@! TD*
D19*
G04 #@! TO.C,F8*
X48400000Y79500000D03*
X48400000Y74420000D03*
G04 #@! TD*
G04 #@! TO.C,J7*
G36*
G01*
X339225000Y10650000D02*
X337775000Y10650000D01*
G75*
G02*
X337525000Y10900000I0J250000D01*
G01*
X337525000Y12100000D01*
G75*
G02*
X337775000Y12350000I250000J0D01*
G01*
X339225000Y12350000D01*
G75*
G02*
X339475000Y12100000I0J-250000D01*
G01*
X339475000Y10900000D01*
G75*
G02*
X339225000Y10650000I-250000J0D01*
G01*
G37*
D15*
X338500000Y14000000D03*
X338500000Y16500000D03*
X338500000Y19000000D03*
X338500000Y21500000D03*
X338500000Y24000000D03*
X338500000Y26500000D03*
X338500000Y29000000D03*
X338500000Y31500000D03*
X338500000Y34000000D03*
G04 #@! TD*
D12*
G04 #@! TO.C,P50*
X246000000Y59500000D03*
G04 #@! TD*
G04 #@! TO.C,P66*
X246000000Y13100000D03*
G04 #@! TD*
G04 #@! TO.C,P15*
X266000000Y80500000D03*
G04 #@! TD*
D19*
G04 #@! TO.C,F2*
X177540000Y94700000D03*
X172460000Y94700000D03*
G04 #@! TD*
D12*
G04 #@! TO.C,P48*
X246000000Y32500000D03*
G04 #@! TD*
D20*
G04 #@! TO.C,J8*
X159850000Y97815000D03*
X154850000Y97815000D03*
X149850000Y97815000D03*
X159850000Y92115000D03*
X154850000Y92115000D03*
X149850000Y92115000D03*
X159850000Y86415000D03*
X154850000Y86415000D03*
X149690000Y86415000D03*
D21*
X142850000Y98415000D03*
X140310000Y98415000D03*
X137770000Y98415000D03*
X135230000Y98415000D03*
X132690000Y98415000D03*
X130150000Y98415000D03*
X142850000Y95875000D03*
X140310000Y95875000D03*
X137770000Y95875000D03*
X135230000Y95875000D03*
X132690000Y95875000D03*
X130150000Y95875000D03*
X142850000Y89825000D03*
X140310000Y89825000D03*
X137770000Y89825000D03*
X135230000Y89825000D03*
X132690000Y89825000D03*
X130150000Y89825000D03*
X142850000Y87285000D03*
X140310000Y87285000D03*
X137770000Y87285000D03*
X135230000Y87285000D03*
X132690000Y87285000D03*
X130150000Y87285000D03*
X124450000Y98415000D03*
X121910000Y98415000D03*
X119370000Y98415000D03*
X116830000Y98415000D03*
X114290000Y98415000D03*
X111750000Y98415000D03*
X109210000Y98415000D03*
X106670000Y98415000D03*
X104130000Y98415000D03*
X101590000Y98415000D03*
X99050000Y98415000D03*
X96510000Y98415000D03*
X93970000Y98415000D03*
X124450000Y95875000D03*
X121910000Y95875000D03*
X119370000Y95875000D03*
X116830000Y95875000D03*
X114290000Y95875000D03*
X111750000Y95875000D03*
X109210000Y95875000D03*
X106670000Y95875000D03*
X104130000Y95875000D03*
X101590000Y95875000D03*
X99050000Y95875000D03*
X96510000Y95875000D03*
X93970000Y95875000D03*
X124450000Y89825000D03*
X121910000Y89825000D03*
X119370000Y89825000D03*
X116830000Y89825000D03*
X114290000Y89825000D03*
X111750000Y89825000D03*
X109210000Y89825000D03*
X106670000Y89825000D03*
X104130000Y89825000D03*
X101590000Y89825000D03*
X99050000Y89825000D03*
X96510000Y89825000D03*
X93970000Y89825000D03*
X124450000Y87285000D03*
X121910000Y87285000D03*
X119370000Y87285000D03*
X116830000Y87285000D03*
X114290000Y87285000D03*
X111750000Y87285000D03*
X109210000Y87285000D03*
X106670000Y87285000D03*
X104130000Y87285000D03*
X101590000Y87285000D03*
X99050000Y87285000D03*
X96510000Y87285000D03*
X93970000Y87285000D03*
X88250000Y98415000D03*
X85710000Y98415000D03*
X83170000Y98415000D03*
X80630000Y98415000D03*
X78090000Y98415000D03*
X75550000Y98415000D03*
X73010000Y98415000D03*
X70470000Y98415000D03*
X67930000Y98415000D03*
X65390000Y98415000D03*
X88250000Y95875000D03*
X85710000Y95875000D03*
X83170000Y95875000D03*
X80630000Y95875000D03*
X78090000Y95875000D03*
X75550000Y95875000D03*
X73010000Y95875000D03*
X70470000Y95875000D03*
X67930000Y95875000D03*
X65390000Y95875000D03*
X88250000Y89825000D03*
X85710000Y89825000D03*
X83170000Y89825000D03*
X80630000Y89825000D03*
X78090000Y89825000D03*
X75550000Y89825000D03*
X73010000Y89825000D03*
X70470000Y89825000D03*
X67930000Y89825000D03*
X65390000Y89825000D03*
X88250000Y87285000D03*
X85710000Y87285000D03*
X83170000Y87285000D03*
X80630000Y87285000D03*
X78090000Y87285000D03*
X75550000Y87285000D03*
X73010000Y87285000D03*
X70470000Y87285000D03*
X67930000Y87285000D03*
X65390000Y87285000D03*
D20*
X58450000Y97815000D03*
X53450000Y97815000D03*
X48450000Y97815000D03*
X58450000Y92115000D03*
X53450000Y92115000D03*
X48450000Y92115000D03*
X58450000Y86415000D03*
X53450000Y86415000D03*
X48450000Y86415000D03*
D22*
X169550000Y100015000D03*
X38750000Y100015000D03*
D23*
X167500000Y104915000D03*
X40800000Y104915000D03*
G04 #@! TD*
D12*
G04 #@! TO.C,P58*
X246000000Y26500000D03*
G04 #@! TD*
G04 #@! TO.C,P33*
X105500000Y76000000D03*
G04 #@! TD*
D16*
G04 #@! TO.C,J13*
X298700000Y17250000D03*
D17*
X296160000Y17250000D03*
X293620000Y17250000D03*
X291080000Y17250000D03*
X288540000Y17250000D03*
X286000000Y17250000D03*
G04 #@! TD*
D12*
G04 #@! TO.C,P59*
X105000000Y18000000D03*
G04 #@! TD*
G04 #@! TO.C,P13*
X286000000Y80500000D03*
G04 #@! TD*
D19*
G04 #@! TO.C,F6*
X37500000Y79500000D03*
X37500000Y74420000D03*
G04 #@! TD*
D12*
G04 #@! TO.C,P14*
X261000000Y80500000D03*
G04 #@! TD*
G04 #@! TO.C,P65*
X246000000Y16100000D03*
G04 #@! TD*
G04 #@! TO.C,P12*
X271000000Y80500000D03*
G04 #@! TD*
G04 #@! TO.C,P32*
X114500000Y78000000D03*
G04 #@! TD*
D18*
G04 #@! TO.C,M4*
X281456662Y27112501D03*
X281981662Y27987503D03*
X282731660Y26812499D03*
X286281661Y26887502D03*
G04 #@! TD*
D13*
G04 #@! TO.C,J2*
X8700000Y55000000D03*
G36*
G01*
X17599999Y53650000D02*
X14400001Y53650000D01*
G75*
G02*
X14150000Y53900001I0J250001D01*
G01*
X14150000Y56099999D01*
G75*
G02*
X14400001Y56350000I250001J0D01*
G01*
X17599999Y56350000D01*
G75*
G02*
X17850000Y56099999I0J-250001D01*
G01*
X17850000Y53900001D01*
G75*
G02*
X17599999Y53650000I-250001J0D01*
G01*
G37*
D14*
X21500000Y55000000D03*
G04 #@! TD*
D12*
G04 #@! TO.C,P34*
X126500000Y75000000D03*
G04 #@! TD*
G04 #@! TO.C,P77*
X129500000Y73500000D03*
G04 #@! TD*
G04 #@! TO.C,P6*
X283000000Y80500000D03*
G04 #@! TD*
G04 #@! TO.C,P69*
X139000000Y73500000D03*
G04 #@! TD*
D24*
G04 #@! TO.C,F4*
X223500000Y79950000D03*
X223500000Y75050000D03*
G04 #@! TD*
D12*
G04 #@! TO.C,P42*
X76000000Y80500000D03*
G04 #@! TD*
G04 #@! TO.C,P63*
X105000000Y9000000D03*
G04 #@! TD*
G04 #@! TO.C,J16*
G36*
G01*
X339225000Y86150000D02*
X337775000Y86150000D01*
G75*
G02*
X337525000Y86400000I0J250000D01*
G01*
X337525000Y87600000D01*
G75*
G02*
X337775000Y87850000I250000J0D01*
G01*
X339225000Y87850000D01*
G75*
G02*
X339475000Y87600000I0J-250000D01*
G01*
X339475000Y86400000D01*
G75*
G02*
X339225000Y86150000I-250000J0D01*
G01*
G37*
D15*
X338500000Y89500000D03*
X338500000Y92000000D03*
X338500000Y94500000D03*
X338500000Y97000000D03*
X338500000Y99500000D03*
G04 #@! TD*
D12*
G04 #@! TO.C,P35*
X111000000Y78000000D03*
G04 #@! TD*
G04 #@! TO.C,P21*
X200000000Y80000000D03*
G04 #@! TD*
D25*
G04 #@! TO.C,BRD1*
X124450001Y71725000D03*
D11*
X214150001Y11525000D03*
X198650001Y29025000D03*
X151250001Y7425000D03*
D25*
X195450001Y17725000D03*
D11*
X198650001Y7425000D03*
X149750001Y25525000D03*
X235750001Y11525000D03*
D25*
X225450001Y14725000D03*
D11*
X135750001Y74925000D03*
X132250001Y10025000D03*
X117650001Y10025000D03*
X217650001Y76425000D03*
D25*
X124450001Y14725000D03*
D11*
X151250001Y29025000D03*
D25*
X154450001Y17725000D03*
D11*
X149750001Y10925000D03*
X232250001Y10025000D03*
X200150001Y10925000D03*
X135750001Y11525000D03*
X132250001Y76425000D03*
X117650001Y76425000D03*
X114150001Y11525000D03*
X114150001Y74925000D03*
D25*
X225450001Y71725000D03*
D11*
X232250001Y76425000D03*
X214150001Y74925000D03*
X235750001Y74925000D03*
X217650001Y10025000D03*
X200150001Y25525000D03*
D26*
X228950001Y21225000D03*
X228950001Y25225000D03*
X228950001Y29225000D03*
X228950001Y33225000D03*
X228950001Y37225000D03*
X228950001Y41225000D03*
X228950001Y45225000D03*
X228950001Y49225000D03*
X228950001Y53225000D03*
X228950001Y57225000D03*
X228950001Y61225000D03*
X228950001Y65225000D03*
X224950001Y23225000D03*
X224950001Y27225000D03*
X224950001Y31225000D03*
X224950001Y35225000D03*
X224950001Y39225000D03*
X224950001Y43225000D03*
X224950001Y47225000D03*
X224950001Y51225000D03*
X224950001Y55225000D03*
X224950001Y59225000D03*
X224950001Y63225000D03*
X220950001Y21225000D03*
X220950001Y25225000D03*
X220950001Y29225000D03*
X220950001Y33225000D03*
X220950001Y37225000D03*
X220950001Y41225000D03*
X220950001Y45225000D03*
X220950001Y49225000D03*
X220950001Y53225000D03*
X220950001Y57225000D03*
X220950001Y61225000D03*
X220950001Y65225000D03*
X160950001Y14225000D03*
X164950001Y14225000D03*
X168950001Y14225000D03*
X172950001Y14225000D03*
X176950001Y14225000D03*
X180950001Y14225000D03*
X184950001Y14225000D03*
X188950001Y14225000D03*
X162950001Y18225000D03*
X166950001Y18225000D03*
X170950001Y18225000D03*
X174950001Y18225000D03*
X178950001Y18225000D03*
X182950001Y18225000D03*
X186950001Y18225000D03*
X160950001Y22225000D03*
X164950001Y22225000D03*
X168950001Y22225000D03*
X172950001Y22225000D03*
X176950001Y22225000D03*
X180950001Y22225000D03*
X184950001Y22225000D03*
X188950001Y22225000D03*
X120950001Y65225000D03*
X120950001Y61225000D03*
X120950001Y57225000D03*
X120950001Y53225000D03*
X120950001Y49225000D03*
X120950001Y45225000D03*
X120950001Y41225000D03*
X120950001Y37225000D03*
X120950001Y33225000D03*
X120950001Y29225000D03*
X120950001Y25225000D03*
X120950001Y21225000D03*
X124950001Y63225000D03*
X124950001Y59225000D03*
X124950001Y55225000D03*
X124950001Y51225000D03*
X124950001Y47225000D03*
X124950001Y43225000D03*
X124950001Y39225000D03*
X124950001Y35225000D03*
X124950001Y31225000D03*
X124950001Y27225000D03*
X124950001Y23225000D03*
X128950001Y65225000D03*
X128950001Y61225000D03*
X128950001Y57225000D03*
X128950001Y53225000D03*
X128950001Y49225000D03*
X128950001Y45225000D03*
X128950001Y41225000D03*
X128950001Y37225000D03*
X128950001Y33225000D03*
X128950001Y29225000D03*
X128950001Y25225000D03*
X128950001Y21225000D03*
G04 #@! TD*
D12*
G04 #@! TO.C,P17*
X135500000Y78000000D03*
G04 #@! TD*
G04 #@! TO.C,G5*
X91440000Y25400000D03*
X88900000Y25400000D03*
X86360000Y25400000D03*
X83820000Y25400000D03*
X81280000Y25400000D03*
X91440000Y27940000D03*
X88900000Y27940000D03*
X86360000Y27940000D03*
X83820000Y27940000D03*
X81280000Y27940000D03*
X91440000Y30480000D03*
X88900000Y30480000D03*
X86360000Y30480000D03*
X83820000Y30480000D03*
X81280000Y30480000D03*
G04 #@! TD*
G04 #@! TO.C,J4*
G36*
G01*
X10775000Y74850000D02*
X12225000Y74850000D01*
G75*
G02*
X12475000Y74600000I0J-250000D01*
G01*
X12475000Y73400000D01*
G75*
G02*
X12225000Y73150000I-250000J0D01*
G01*
X10775000Y73150000D01*
G75*
G02*
X10525000Y73400000I0J250000D01*
G01*
X10525000Y74600000D01*
G75*
G02*
X10775000Y74850000I250000J0D01*
G01*
G37*
D15*
X11500000Y71500000D03*
X11500000Y69000000D03*
X11500000Y66500000D03*
X11500000Y64000000D03*
X11500000Y61500000D03*
G04 #@! TD*
G04 #@! TO.C,J10*
G36*
G01*
X339225000Y39150000D02*
X337775000Y39150000D01*
G75*
G02*
X337525000Y39400000I0J250000D01*
G01*
X337525000Y40600000D01*
G75*
G02*
X337775000Y40850000I250000J0D01*
G01*
X339225000Y40850000D01*
G75*
G02*
X339475000Y40600000I0J-250000D01*
G01*
X339475000Y39400000D01*
G75*
G02*
X339225000Y39150000I-250000J0D01*
G01*
G37*
X338500000Y42500000D03*
X338500000Y45000000D03*
X338500000Y47500000D03*
X338500000Y50000000D03*
X338500000Y52500000D03*
X338500000Y55000000D03*
X338500000Y57500000D03*
X338500000Y60000000D03*
X338500000Y62500000D03*
G04 #@! TD*
D24*
G04 #@! TO.C,F1*
X296500000Y80450000D03*
X296500000Y75550000D03*
G04 #@! TD*
D12*
G04 #@! TO.C,P70*
X105000000Y39000000D03*
G04 #@! TD*
G04 #@! TO.C,P25*
X226500000Y78000000D03*
G04 #@! TD*
G04 #@! TO.C,P71*
X105000000Y35000000D03*
G04 #@! TD*
G04 #@! TO.C,P16*
X256000000Y80500000D03*
G04 #@! TD*
G04 #@! TO.C,P57*
X246000000Y35300000D03*
G04 #@! TD*
G04 #@! TO.C,P9*
X274000000Y76000000D03*
G04 #@! TD*
D19*
G04 #@! TO.C,F5*
X177540000Y85900000D03*
X172460000Y85900000D03*
G04 #@! TD*
D12*
G04 #@! TO.C,P44*
X65500000Y80500000D03*
G04 #@! TD*
G04 #@! TO.C,P74*
X105000000Y21000000D03*
G04 #@! TD*
D19*
G04 #@! TO.C,F3*
X177540000Y90300000D03*
X172460000Y90300000D03*
G04 #@! TD*
D12*
G04 #@! TO.C,G4*
X76200000Y33020000D03*
X76200000Y35560000D03*
X76200000Y38100000D03*
X76200000Y40640000D03*
X76200000Y43180000D03*
X78740000Y33020000D03*
X78740000Y35560000D03*
X78740000Y38100000D03*
X78740000Y40640000D03*
X78740000Y43180000D03*
X81280000Y33020000D03*
X81280000Y35560000D03*
X81280000Y38100000D03*
X81280000Y40640000D03*
X81280000Y43180000D03*
G04 #@! TD*
G04 #@! TO.C,P11*
X274000000Y80500000D03*
G04 #@! TD*
G04 #@! TO.C,P10*
X280000000Y80500000D03*
G04 #@! TD*
G04 #@! TO.C,P46*
X246000000Y20600000D03*
G04 #@! TD*
G04 #@! TO.C,P56*
X246000000Y38500000D03*
G04 #@! TD*
D27*
G04 #@! TO.C,U2*
X32070000Y13100500D03*
X54930000Y13100500D03*
D24*
X49850000Y25800500D03*
X47310000Y25800500D03*
X44770000Y25800500D03*
X42230000Y25800500D03*
X39690000Y25800500D03*
X37150000Y25800500D03*
G04 #@! TD*
D12*
G04 #@! TO.C,P52*
X246000000Y53500000D03*
G04 #@! TD*
D20*
G04 #@! TO.C,J9*
X301550000Y97815000D03*
X296550000Y97815000D03*
X291550000Y97815000D03*
X301550000Y92115000D03*
X296550000Y92115000D03*
X291550000Y92115000D03*
X301550000Y86415000D03*
X296550000Y86415000D03*
X291390000Y86415000D03*
D21*
X284550000Y98415000D03*
X282010000Y98415000D03*
X279470000Y98415000D03*
X276930000Y98415000D03*
X274390000Y98415000D03*
X271850000Y98415000D03*
X284550000Y95875000D03*
X282010000Y95875000D03*
X279470000Y95875000D03*
X276930000Y95875000D03*
X274390000Y95875000D03*
X271850000Y95875000D03*
X284550000Y89825000D03*
X282010000Y89825000D03*
X279470000Y89825000D03*
X276930000Y89825000D03*
X274390000Y89825000D03*
X271850000Y89825000D03*
X284550000Y87285000D03*
X282010000Y87285000D03*
X279470000Y87285000D03*
X276930000Y87285000D03*
X274390000Y87285000D03*
X271850000Y87285000D03*
X266150000Y98415000D03*
X263610000Y98415000D03*
X261070000Y98415000D03*
X258530000Y98415000D03*
X255990000Y98415000D03*
X253450000Y98415000D03*
X250910000Y98415000D03*
X248370000Y98415000D03*
X245830000Y98415000D03*
X243290000Y98415000D03*
X240750000Y98415000D03*
X238210000Y98415000D03*
X235670000Y98415000D03*
X266150000Y95875000D03*
X263610000Y95875000D03*
X261070000Y95875000D03*
X258530000Y95875000D03*
X255990000Y95875000D03*
X253450000Y95875000D03*
X250910000Y95875000D03*
X248370000Y95875000D03*
X245830000Y95875000D03*
X243290000Y95875000D03*
X240750000Y95875000D03*
X238210000Y95875000D03*
X235670000Y95875000D03*
X266150000Y89825000D03*
X263610000Y89825000D03*
X261070000Y89825000D03*
X258530000Y89825000D03*
X255990000Y89825000D03*
X253450000Y89825000D03*
X250910000Y89825000D03*
X248370000Y89825000D03*
X245830000Y89825000D03*
X243290000Y89825000D03*
X240750000Y89825000D03*
X238210000Y89825000D03*
X235670000Y89825000D03*
X266150000Y87285000D03*
X263610000Y87285000D03*
X261070000Y87285000D03*
X258530000Y87285000D03*
X255990000Y87285000D03*
X253450000Y87285000D03*
X250910000Y87285000D03*
X248370000Y87285000D03*
X245830000Y87285000D03*
X243290000Y87285000D03*
X240750000Y87285000D03*
X238210000Y87285000D03*
X235670000Y87285000D03*
X229950000Y98415000D03*
X227410000Y98415000D03*
X224870000Y98415000D03*
X222330000Y98415000D03*
X219790000Y98415000D03*
X217250000Y98415000D03*
X214710000Y98415000D03*
X212170000Y98415000D03*
X209630000Y98415000D03*
X207090000Y98415000D03*
X229950000Y95875000D03*
X227410000Y95875000D03*
X224870000Y95875000D03*
X222330000Y95875000D03*
X219790000Y95875000D03*
X217250000Y95875000D03*
X214710000Y95875000D03*
X212170000Y95875000D03*
X209630000Y95875000D03*
X207090000Y95875000D03*
X229950000Y89825000D03*
X227410000Y89825000D03*
X224870000Y89825000D03*
X222330000Y89825000D03*
X219790000Y89825000D03*
X217250000Y89825000D03*
X214710000Y89825000D03*
X212170000Y89825000D03*
X209630000Y89825000D03*
X207090000Y89825000D03*
X229950000Y87285000D03*
X227410000Y87285000D03*
X224870000Y87285000D03*
X222330000Y87285000D03*
X219790000Y87285000D03*
X217250000Y87285000D03*
X214710000Y87285000D03*
X212170000Y87285000D03*
X209630000Y87285000D03*
X207090000Y87285000D03*
D20*
X200150000Y97815000D03*
X195150000Y97815000D03*
X190150000Y97815000D03*
X200150000Y92115000D03*
X195150000Y92115000D03*
X190150000Y92115000D03*
X200150000Y86415000D03*
X195150000Y86415000D03*
X190150000Y86415000D03*
D22*
X311250000Y100015000D03*
X180450000Y100015000D03*
D23*
X309200000Y104915000D03*
X182500000Y104915000D03*
G04 #@! TD*
D12*
G04 #@! TO.C,P23*
X207000000Y80000000D03*
G04 #@! TD*
G04 #@! TO.C,P78*
X143000000Y80000000D03*
G04 #@! TD*
G04 #@! TO.C,P41*
X79000000Y80500000D03*
G04 #@! TD*
G04 #@! TO.C,P4*
X277000000Y76000000D03*
G04 #@! TD*
G04 #@! TO.C,P22*
X211000000Y78000000D03*
G04 #@! TD*
G04 #@! TO.C,P40*
X65500000Y76000000D03*
G04 #@! TD*
G04 #@! TO.C,P72*
X135500000Y70500000D03*
G04 #@! TD*
G04 #@! TO.C,P28*
X160000000Y80000000D03*
G04 #@! TD*
G04 #@! TO.C,P53*
X246000000Y50500000D03*
G04 #@! TD*
G04 #@! TO.C,G6*
X83820000Y33020000D03*
X83820000Y35560000D03*
X83820000Y38100000D03*
X83820000Y40640000D03*
X83820000Y43180000D03*
X86360000Y33020000D03*
X86360000Y35560000D03*
X86360000Y38100000D03*
X86360000Y40640000D03*
X86360000Y43180000D03*
X88900000Y33020000D03*
X88900000Y35560000D03*
X88900000Y38100000D03*
X88900000Y40640000D03*
X88900000Y43180000D03*
G04 #@! TD*
G04 #@! TO.C,P64*
X105000000Y12000000D03*
G04 #@! TD*
G04 #@! TO.C,P60*
X150000000Y80000000D03*
G04 #@! TD*
G04 #@! TO.C,P2*
X301500000Y79500000D03*
G04 #@! TD*
G04 #@! TO.C,P3*
X283000000Y76000000D03*
G04 #@! TD*
G04 #@! TO.C,P43*
X73000000Y80500000D03*
G04 #@! TD*
D28*
G04 #@! TO.C,Q1*
X173345000Y66425000D03*
D29*
X170805000Y75575000D03*
D28*
X168265000Y66425000D03*
G04 #@! TD*
G04 #@! TO.C,R2*
G36*
G01*
X180230000Y66125000D02*
X177380000Y66125000D01*
G75*
G02*
X177130000Y66375000I0J250000D01*
G01*
X177130000Y67100000D01*
G75*
G02*
X177380000Y67350000I250000J0D01*
G01*
X180230000Y67350000D01*
G75*
G02*
X180480000Y67100000I0J-250000D01*
G01*
X180480000Y66375000D01*
G75*
G02*
X180230000Y66125000I-250000J0D01*
G01*
G37*
G36*
G01*
X180230000Y72050000D02*
X177380000Y72050000D01*
G75*
G02*
X177130000Y72300000I0J250000D01*
G01*
X177130000Y73025000D01*
G75*
G02*
X177380000Y73275000I250000J0D01*
G01*
X180230000Y73275000D01*
G75*
G02*
X180480000Y73025000I0J-250000D01*
G01*
X180480000Y72300000D01*
G75*
G02*
X180230000Y72050000I-250000J0D01*
G01*
G37*
G04 #@! TD*
G04 #@! TO.C,R1*
G36*
G01*
X177155000Y64310000D02*
X177155000Y65090000D01*
G75*
G02*
X177225000Y65160000I70000J0D01*
G01*
X177785000Y65160000D01*
G75*
G02*
X177855000Y65090000I0J-70000D01*
G01*
X177855000Y64310000D01*
G75*
G02*
X177785000Y64240000I-70000J0D01*
G01*
X177225000Y64240000D01*
G75*
G02*
X177155000Y64310000I0J70000D01*
G01*
G37*
G36*
G01*
X178755000Y64310000D02*
X178755000Y65090000D01*
G75*
G02*
X178825000Y65160000I70000J0D01*
G01*
X179385000Y65160000D01*
G75*
G02*
X179455000Y65090000I0J-70000D01*
G01*
X179455000Y64310000D01*
G75*
G02*
X179385000Y64240000I-70000J0D01*
G01*
X178825000Y64240000D01*
G75*
G02*
X178755000Y64310000I0J70000D01*
G01*
G37*
G04 #@! TD*
M02*
